STARTFONT 2.3
FONT -FontForge-Source Code Pro-Book-R-Normal--18-180-72-72-M-110-ISO10646-1
SIZE 18 72 72  2
FONTBOUNDINGBOX 20 31 -5 -8
COMMENT "Generated by fontforge, http://fontforge.sourceforge.net"
COMMENT "Copyright 2010, 2012 Adobe Systems Incorporated (http://www.adobe.com/), with Reserved Font Name `Source'."
STARTPROPERTIES 42
FOUNDRY "FontForge"
FAMILY_NAME "Source Code Pro"
WEIGHT_NAME "Book"
SLANT "R"
SETWIDTH_NAME "Normal"
ADD_STYLE_NAME ""
PIXEL_SIZE 18
POINT_SIZE 180
RESOLUTION_X 72
RESOLUTION_Y 72
SPACING "M"
AVERAGE_WIDTH 110
CHARSET_REGISTRY "ISO10646"
CHARSET_ENCODING "1"
FONTNAME_REGISTRY ""
CHARSET_COLLECTIONS "ASCII ISOLatin1Encoding ISO8859-2 ISO8859-9 ISO8859-4 ISO10646-1"
BITS_PER_PIXEL 2
FONT_NAME "SourceCodePro-It"
FACE_NAME "Source Code Pro Italic"
COPYRIGHT "Copyright 2010, 2012 Adobe Systems Incorporated (http://www.adobe.com/), with Reserved Font Name `Source'."
FONT_VERSION "1.050;PS 1.000;hotconv 16.6.51;makeotf.lib2.5.65220"
FONT_ASCENT 13
FONT_DESCENT 5
UNDERLINE_POSITION -2
UNDERLINE_THICKNESS 1
X_HEIGHT 8
CAP_HEIGHT 11
RAW_ASCENT 750
RAW_DESCENT 250
ITALIC_ANGLE 5056
NORM_SPACE 11
RELATIVE_WEIGHT 40
RELATIVE_SETWIDTH 50
SUPERSCRIPT_X 1
SUPERSCRIPT_Y 6
SUPERSCRIPT_SIZE 10
SUBSCRIPT_X 0
SUBSCRIPT_Y 1
SUBSCRIPT_SIZE 10
FIGURE_WIDTH 11
AVG_LOWERCASE_WIDTH 110
AVG_UPPERCASE_WIDTH 110
ENDPROPERTIES
CHARS 1269
STARTCHAR space
ENCODING 32
SWIDTH 600 0
DWIDTH 11 0
BBX 1 1 0 0
BITMAP
00
ENDCHAR
STARTCHAR exclam
ENCODING 33
SWIDTH 600 0
DWIDTH 11 0
BBX 5 12 3 0
BITMAP
0340
0700
0A00
0A00
0D00
0C00
1800
0000
0000
7800
B800
7400
ENDCHAR
STARTCHAR quotedbl
ENCODING 34
SWIDTH 600 0
DWIDTH 11 0
BBX 7 6 3 6
BITMAP
7838
7474
B074
A0B0
90A0
D090
ENDCHAR
STARTCHAR numbersign
ENCODING 35
SWIDTH 600 0
DWIDTH 11 0
BBX 9 11 1 0
BITMAP
008240
014300
020600
2FFF80
090C00
0C1400
BFFE00
242000
306000
209000
50C000
ENDCHAR
STARTCHAR dollar
ENCODING 36
SWIDTH 600 0
DWIDTH 11 0
BBX 8 15 1 -2
BITMAP
0024
0030
06F9
0D0B
1C00
1D00
0B80
01F4
001D
400A
B41D
1FF4
0300
0600
0600
ENDCHAR
STARTCHAR percent
ENCODING 37
SWIDTH 600 0
DWIDTH 11 0
BBX 12 12 -1 0
BITMAP
07D000
187006
30301D
307060
349080
1F4000
0002F4
000A18
018C1C
0A1818
281C74
600BD0
ENDCHAR
STARTCHAR ampersand
ENCODING 38
SWIDTH 600 0
DWIDTH 11 0
BBX 10 12 0 0
BITMAP
00BD00
028700
034700
030900
03B800
03D010
1EC070
34A0D0
B07680
A01F00
746F80
1FD190
ENDCHAR
STARTCHAR quotesingle
ENCODING 39
SWIDTH 600 0
DWIDTH 11 0
BBX 3 6 5 6
BITMAP
78
74
B4
B0
A0
90
ENDCHAR
STARTCHAR parenleft
ENCODING 40
SWIDTH 600 0
DWIDTH 11 0
BBX 7 16 3 -3
BITMAP
0018
00B4
02C0
0700
0D00
2800
3400
7000
7000
6000
7000
7000
3400
2800
0D00
0600
ENDCHAR
STARTCHAR parenright
ENCODING 41
SWIDTH 600 0
DWIDTH 11 0
BBX 6 16 1 -3
BITMAP
0200
0280
00D0
00A0
0070
0070
0030
0030
0070
00A0
00D0
01C0
0340
0A00
3800
E000
ENDCHAR
STARTCHAR asterisk
ENCODING 42
SWIDTH 600 0
DWIDTH 11 0
BBX 8 8 2 2
BITMAP
0140
0240
4244
BBB9
0F80
1E80
74D0
9060
ENDCHAR
STARTCHAR plus
ENCODING 43
SWIDTH 600 0
DWIDTH 11 0
BBX 9 9 1 1
BITMAP
004000
00C000
00C000
00C000
7FFF40
00C000
00C000
00C000
008000
ENDCHAR
STARTCHAR comma
ENCODING 44
SWIDTH 600 0
DWIDTH 11 0
BBX 5 7 1 -4
BITMAP
0780
0BC0
07C0
0280
0340
1D00
6400
ENDCHAR
STARTCHAR hyphen
ENCODING 45
SWIDTH 600 0
DWIDTH 11 0
BBX 9 1 1 5
BITMAP
7FFF40
ENDCHAR
STARTCHAR period
ENCODING 46
SWIDTH 600 0
DWIDTH 11 0
BBX 3 3 3 0
BITMAP
78
BC
B4
ENDCHAR
STARTCHAR slash
ENCODING 47
SWIDTH 600 0
DWIDTH 11 0
BBX 11 16 0 -3
BITMAP
000034
0000A0
0001C0
000280
000700
000D00
001C00
003400
00A000
00D000
028000
070000
090000
1C0000
340000
A00000
ENDCHAR
STARTCHAR zero
ENCODING 48
SWIDTH 600 0
DWIDTH 11 0
BBX 9 11 1 0
BITMAP
02F900
0E0B00
280280
700280
A1D280
A1D280
D00340
D00700
A00A00
742800
1FE000
ENDCHAR
STARTCHAR one
ENCODING 49
SWIDTH 600 0
DWIDTH 11 0
BBX 9 11 0 0
BITMAP
006E00
01AD00
001D00
001C00
002800
002800
003400
007000
007000
00A000
7FFF80
ENDCHAR
STARTCHAR two
ENCODING 50
SWIDTH 600 0
DWIDTH 11 0
BBX 9 11 0 0
BITMAP
01BE00
0B4280
0401C0
0001C0
000380
000A00
002C00
00B000
028000
1E0000
7FFF80
ENDCHAR
STARTCHAR three
ENCODING 51
SWIDTH 600 0
DWIDTH 11 0
BBX 10 11 0 0
BITMAP
01BE40
0742C0
0000D0
0001C0
000740
01F900
001B40
000280
100280
780B40
0BF900
ENDCHAR
STARTCHAR four
ENCODING 52
SWIDTH 600 0
DWIDTH 11 0
BBX 10 11 0 0
BITMAP
0002D0
000BC0
002A80
00A280
028340
0A0300
280700
BFFFE0
000A00
000D00
001C00
ENDCHAR
STARTCHAR five
ENCODING 53
SWIDTH 600 0
DWIDTH 11 0
BBX 10 11 0 0
BITMAP
02FFE0
034000
070000
0A0000
0ABE00
090780
0002C0
0001C0
100280
781B00
1BF800
ENDCHAR
STARTCHAR six
ENCODING 54
SWIDTH 600 0
DWIDTH 11 0
BBX 9 11 1 0
BITMAP
01BE40
0B4280
280000
340000
62F800
B90A00
A00700
A00700
A00A00
381D00
0BE000
ENDCHAR
STARTCHAR seven
ENCODING 55
SWIDTH 600 0
DWIDTH 11 0
BBX 9 11 2 0
BITMAP
FFFF40
000D00
003400
00A000
018000
034000
0A0000
0D0000
1C0000
280000
340000
ENDCHAR
STARTCHAR eight
ENCODING 56
SWIDTH 600 0
DWIDTH 11 0
BBX 9 11 1 0
BITMAP
02F900
0E0740
1C0280
0D0340
074B00
2EF900
742800
A00A00
900A00
741D00
1BE400
ENDCHAR
STARTCHAR nine
ENCODING 57
SWIDTH 600 0
DWIDTH 11 0
BBX 9 11 1 0
BITMAP
06F800
1D0B00
340340
700280
700380
381B40
1BE340
000700
000D00
D07800
6F9000
ENDCHAR
STARTCHAR colon
ENCODING 58
SWIDTH 600 0
DWIDTH 11 0
BBX 4 9 3 0
BITMAP
0B
2F
1E
00
00
00
78
BC
B4
ENDCHAR
STARTCHAR semicolon
ENCODING 59
SWIDTH 600 0
DWIDTH 11 0
BBX 6 13 1 -4
BITMAP
00B0
02F0
01E0
0000
0000
0000
0780
0BC0
07C0
0280
0340
1D00
6400
ENDCHAR
STARTCHAR less
ENCODING 60
SWIDTH 600 0
DWIDTH 11 0
BBX 7 9 2 1
BITMAP
0018
00A4
0780
6800
A000
6800
0780
00A4
0018
ENDCHAR
STARTCHAR equal
ENCODING 61
SWIDTH 600 0
DWIDTH 11 0
BBX 9 5 1 3
BITMAP
7FFF40
000000
000000
000000
7FFF40
ENDCHAR
STARTCHAR greater
ENCODING 62
SWIDTH 600 0
DWIDTH 11 0
BBX 7 9 2 1
BITMAP
8000
7400
0B40
01E0
0038
01E0
0B40
7400
8000
ENDCHAR
STARTCHAR question
ENCODING 63
SWIDTH 600 0
DWIDTH 11 0
BBX 7 12 3 0
BITMAP
1FD0
A074
0034
00A0
0740
1D00
2400
0000
0000
B400
F400
B000
ENDCHAR
STARTCHAR at
ENCODING 64
SWIDTH 600 0
DWIDTH 11 0
BBX 11 14 0 -3
BITMAP
006F90
02D070
0A0024
1C0024
241AF0
30B560
60C060
61C1D0
A0BD90
600000
700000
340000
1D0600
06F900
ENDCHAR
STARTCHAR A
ENCODING 65
SWIDTH 600 0
DWIDTH 11 0
BBX 9 12 0 0
BITMAP
001E00
002A00
007700
00D700
01C300
034340
060340
0FFF80
280280
340280
A002C0
D001C0
ENDCHAR
STARTCHAR B
ENCODING 66
SWIDTH 600 0
DWIDTH 11 0
BBX 10 12 0 0
BITMAP
03FF40
0741E0
0700A0
0A00A0
0A01D0
0FAE00
1D5740
1C01D0
2C00D0
2801C0
340780
7FF900
ENDCHAR
STARTCHAR C
ENCODING 67
SWIDTH 600 0
DWIDTH 11 0
BBX 9 12 1 0
BITMAP
00BF40
0781C0
0E0000
280000
340000
700000
B00000
B00000
700000
740000
2D0A00
07F800
ENDCHAR
STARTCHAR D
ENCODING 68
SWIDTH 600 0
DWIDTH 11 0
BBX 10 12 0 0
BITMAP
07FE00
0A07C0
0A00E0
0D00B0
0D0070
1C0070
2C00B0
2800A0
3401D0
340380
701E00
BFE400
ENDCHAR
STARTCHAR E
ENCODING 69
SWIDTH 600 0
DWIDTH 11 0
BBX 10 12 1 0
BITMAP
0BFFE0
0D0000
0D0000
1C0000
1C0000
2FFE00
380000
340000
700000
700000
A00000
BFFE00
ENDCHAR
STARTCHAR F
ENCODING 70
SWIDTH 600 0
DWIDTH 11 0
BBX 10 12 1 0
BITMAP
07FFF0
0B0000
0A0000
0E0000
0D0000
1D0000
1FFE00
280000
380000
340000
700000
700000
ENDCHAR
STARTCHAR G
ENCODING 71
SWIDTH 600 0
DWIDTH 11 0
BBX 9 12 1 0
BITMAP
01BE40
0741C0
1D0000
380000
700000
A00000
E03F80
E00340
A00340
700700
391A00
0BF800
ENDCHAR
STARTCHAR H
ENCODING 72
SWIDTH 600 0
DWIDTH 11 0
BBX 11 12 0 0
BITMAP
070034
0A0034
0A0070
0D00B0
1D00A0
1FFFD0
2800D0
2801C0
3402C0
740280
700380
A00340
ENDCHAR
STARTCHAR I
ENCODING 73
SWIDTH 600 0
DWIDTH 11 0
BBX 11 12 0 0
BITMAP
03FFF4
001C00
002800
002800
003400
003400
007000
00B000
00A000
00D000
00D000
7FFF00
ENDCHAR
STARTCHAR J
ENCODING 74
SWIDTH 600 0
DWIDTH 11 0
BBX 10 12 0 0
BITMAP
02FFE0
0000D0
0001D0
0001C0
000280
000280
000340
000340
000700
100A00
742C00
1BE000
ENDCHAR
STARTCHAR K
ENCODING 75
SWIDTH 600 0
DWIDTH 11 0
BBX 10 12 1 0
BITMAP
0D00E0
1D0380
1C0E00
283800
28E000
3BE000
7EB000
783400
B02800
A01D00
D00E00
D00700
ENDCHAR
STARTCHAR L
ENCODING 76
SWIDTH 600 0
DWIDTH 11 0
BBX 7 12 2 0
BITMAP
0D00
0D00
1C00
2C00
2800
3400
3400
7000
B000
A000
E000
FFFC
ENDCHAR
STARTCHAR M
ENCODING 77
SWIDTH 600 0
DWIDTH 11 0
BBX 11 12 0 0
BITMAP
074078
0B80F4
0E81B0
0E83B0
1DCAA0
1CCDA0
28E8D0
34F0C0
3491C0
700280
700280
A00340
ENDCHAR
STARTCHAR N
ENCODING 78
SWIDTH 600 0
DWIDTH 11 0
BBX 11 12 0 0
BITMAP
074034
078034
0AC070
0DD060
0DA0A0
1C70D0
1C34D0
2829C0
341DC0
340E80
700B40
700740
ENDCHAR
STARTCHAR O
ENCODING 79
SWIDTH 600 0
DWIDTH 11 0
BBX 11 12 0 0
BITMAP
00BE40
0381D0
0A00A0
1C0070
280074
340070
740070
7400A0
3400D0
380280
1D0B00
07F800
ENDCHAR
STARTCHAR P
ENCODING 80
SWIDTH 600 0
DWIDTH 11 0
BBX 10 12 1 0
BITMAP
0BFE00
0D06C0
1D01D0
1C01D0
2802C0
280B40
3FF900
740000
700000
A00000
A00000
D00000
ENDCHAR
STARTCHAR Q
ENCODING 81
SWIDTH 600 0
DWIDTH 11 0
BBX 11 15 0 -3
BITMAP
00BE40
0381D0
0A00B0
1C0070
280074
340070
740070
7400A0
3400D0
380280
1D0B00
07F800
00D000
00B400
002F80
ENDCHAR
STARTCHAR R
ENCODING 82
SWIDTH 600 0
DWIDTH 11 0
BBX 10 12 0 0
BITMAP
03FF40
0701E0
0B00B0
0A00B0
0E00E0
0D0680
1FFD00
1C2800
281C00
380D00
340B00
700740
ENDCHAR
STARTCHAR S
ENCODING 83
SWIDTH 600 0
DWIDTH 11 0
BBX 9 12 1 0
BITMAP
02F900
0E0740
1C0000
1C0000
0E0000
07E000
00B800
001D00
000A00
400E00
E42C00
2FE000
ENDCHAR
STARTCHAR T
ENCODING 84
SWIDTH 600 0
DWIDTH 11 0
BBX 9 12 2 0
BITMAP
FFFFC0
01C000
028000
028000
034000
074000
070000
0A0000
0A0000
0D0000
0D0000
1C0000
ENDCHAR
STARTCHAR U
ENCODING 85
SWIDTH 600 0
DWIDTH 11 0
BBX 10 12 1 0
BITMAP
1C00D0
2800D0
2801C0
3401C0
740280
700340
A00340
A00700
A00A00
A00D00
742800
1BE000
ENDCHAR
STARTCHAR V
ENCODING 86
SWIDTH 600 0
DWIDTH 11 0
BBX 9 12 2 0
BITMAP
A001C0
A00380
B00700
700E00
701C00
703400
347000
34D000
35C000
374000
2F0000
2D0000
ENDCHAR
STARTCHAR W
ENCODING 87
SWIDTH 600 0
DWIDTH 11 0
BBX 11 12 1 0
BITMAP
700034
700070
7000A0
A09090
A0E0D0
A2A1C0
A36280
963340
9D3700
E83A00
F43D00
F03C00
ENDCHAR
STARTCHAR X
ENCODING 88
SWIDTH 600 0
DWIDTH 11 0
BBX 11 12 0 0
BITMAP
070034
0340A0
0282C0
01D740
00ED00
00B800
00F800
029C00
070D00
1D0A00
380700
A00380
ENDCHAR
STARTCHAR Y
ENCODING 89
SWIDTH 600 0
DWIDTH 11 0
BBX 9 12 2 0
BITMAP
E002C0
B00740
700E00
342800
287000
1CD000
0E8000
0B0000
0A0000
0D0000
0D0000
1C0000
ENDCHAR
STARTCHAR Z
ENCODING 90
SWIDTH 600 0
DWIDTH 11 0
BBX 11 12 0 0
BITMAP
0BFFF4
0000E0
0002C0
000740
001D00
003800
00A000
02C000
074000
0E0000
380000
BFFFC0
ENDCHAR
STARTCHAR bracketleft
ENCODING 91
SWIDTH 600 0
DWIDTH 11 0
BBX 9 16 2 -3
BITMAP
02FF40
034000
030000
060000
060000
090000
0D0000
0C0000
180000
180000
240000
340000
300000
600000
600000
BFD000
ENDCHAR
STARTCHAR backslash
ENCODING 92
SWIDTH 600 0
DWIDTH 11 0
BBX 5 16 3 -3
BITMAP
6000
7000
3000
3400
2400
2800
1800
1C00
0C00
0D00
0900
0A00
0600
0700
0300
0340
ENDCHAR
STARTCHAR bracketright
ENCODING 93
SWIDTH 600 0
DWIDTH 11 0
BBX 9 16 0 -3
BITMAP
02FF40
000300
000600
000600
000900
000D00
000C00
001800
001800
002400
003400
003000
007000
006000
009000
BFD000
ENDCHAR
STARTCHAR asciicircum
ENCODING 94
SWIDTH 600 0
DWIDTH 11 0
BBX 7 7 2 5
BITMAP
0740
0A80
1CC0
2890
3460
6034
9028
ENDCHAR
STARTCHAR underscore
ENCODING 95
SWIDTH 600 0
DWIDTH 11 0
BBX 10 1 -1 -2
BITMAP
7FFFD0
ENDCHAR
STARTCHAR grave
ENCODING 96
SWIDTH 600 0
DWIDTH 11 0
BBX 3 4 5 10
BITMAP
80
E0
74
18
ENDCHAR
STARTCHAR a
ENCODING 97
SWIDTH 600 0
DWIDTH 11 0
BBX 9 9 1 0
BITMAP
06F9C0
1D0B80
740340
A00340
D00700
D00700
D00A00
B46D00
2F8D00
ENDCHAR
STARTCHAR b
ENCODING 98
SWIDTH 600 0
DWIDTH 11 0
BBX 10 13 0 0
BITMAP
034000
034000
070000
070000
0A6F40
0F82D0
0D00E0
1C00A0
1C00E0
2800D0
3802C0
3D0B40
72F800
ENDCHAR
STARTCHAR c
ENCODING 99
SWIDTH 600 0
DWIDTH 11 0
BBX 9 9 1 0
BITMAP
02FE00
1E0680
380000
700000
A00000
A00000
B00000
381A00
0BE400
ENDCHAR
STARTCHAR d
ENCODING 100
SWIDTH 600 0
DWIDTH 11 0
BBX 10 13 1 0
BITMAP
0000A0
0000D0
0000D0
0001C0
06F9C0
1D0B80
740340
A00340
D00700
D00700
D00A00
B46E00
2F8D00
ENDCHAR
STARTCHAR e
ENCODING 101
SWIDTH 600 0
DWIDTH 11 0
BBX 9 9 1 0
BITMAP
06F800
1E0B00
380340
B00340
BFFF40
A00000
A00000
781900
1BE400
ENDCHAR
STARTCHAR f
ENCODING 102
SWIDTH 600 0
DWIDTH 11 0
BBX 9 13 2 0
BITMAP
006F80
01D040
028000
034000
BFFE00
0B0000
0A0000
0D0000
0D0000
1C0000
1C0000
280000
380000
ENDCHAR
STARTCHAR g
ENCODING 103
SWIDTH 600 0
DWIDTH 11 0
BBX 10 13 0 -4
BITMAP
01BE70
0742E0
1D00D0
2C00D0
3801C0
3401C0
380280
2D1B80
0BE340
000700
000A00
642D00
2FE000
ENDCHAR
STARTCHAR h
ENCODING 104
SWIDTH 600 0
DWIDTH 11 0
BBX 10 13 0 0
BITMAP
034000
034000
070000
070000
0A2F80
0E91D0
0E00E0
1C00D0
1C01D0
2801C0
340280
340280
700340
ENDCHAR
STARTCHAR i
ENCODING 105
SWIDTH 600 0
DWIDTH 11 0
BBX 7 13 2 0
BITMAP
02D0
02D0
0000
0000
FF80
0340
0700
0700
0A00
0D00
0D00
0E10
07F4
ENDCHAR
STARTCHAR j
ENCODING 106
SWIDTH 600 0
DWIDTH 11 0
BBX 9 17 0 -4
BITMAP
000780
000740
000000
000000
0BFF00
000A00
000D00
000D00
001C00
001C00
002800
003800
003400
007000
00A000
41D000
BE4000
ENDCHAR
STARTCHAR k
ENCODING 107
SWIDTH 600 0
DWIDTH 11 0
BBX 9 13 1 0
BITMAP
0A0000
0E0000
0D0000
1C0000
1C02C0
280A00
387800
35E000
7BB000
7D3400
B02C00
A00D00
D00B00
ENDCHAR
STARTCHAR l
ENCODING 108
SWIDTH 600 0
DWIDTH 11 0
BBX 6 13 2 0
BITMAP
7FC0
0280
0380
0340
0700
0700
0A00
0D00
0D00
1C00
1C00
1D10
0BE0
ENDCHAR
STARTCHAR m
ENCODING 109
SWIDTH 600 0
DWIDTH 11 0
BBX 11 9 0 0
BITMAP
19F2E0
2D3D74
283470
343070
3470A0
70A0E0
B0A0D0
A0D1C0
D0D1C0
ENDCHAR
STARTCHAR n
ENCODING 110
SWIDTH 600 0
DWIDTH 11 0
BBX 10 9 0 0
BITMAP
092F80
0E91D0
0E00E0
1C00D0
1C01D0
2801C0
340280
340280
700340
ENDCHAR
STARTCHAR o
ENCODING 111
SWIDTH 600 0
DWIDTH 11 0
BBX 9 9 1 0
BITMAP
06F800
2D0A00
740340
E00340
D00340
D00740
D00A00
746C00
1FE000
ENDCHAR
STARTCHAR p
ENCODING 112
SWIDTH 600 0
DWIDTH 11 0
BBX 10 13 0 -4
BITMAP
096F40
0E82D0
0D00E0
1C00A0
1C00E0
2800D0
3802C0
3D0B40
76F800
700000
A00000
A00000
D00000
ENDCHAR
STARTCHAR q
ENCODING 113
SWIDTH 600 0
DWIDTH 11 0
BBX 9 13 1 -4
BITMAP
06F9C0
1D0B80
740340
A00340
D00700
D00700
D00A00
B46E00
2F8D00
001C00
001C00
002800
002800
ENDCHAR
STARTCHAR r
ENCODING 114
SWIDTH 600 0
DWIDTH 11 0
BBX 8 9 2 0
BITMAP
287E
2640
3900
7400
7000
A000
A000
D000
D000
ENDCHAR
STARTCHAR s
ENCODING 115
SWIDTH 600 0
DWIDTH 11 0
BBX 8 9 1 0
BITMAP
07F9
1D0B
2800
1E40
06E4
002D
000E
A41D
2BE4
ENDCHAR
STARTCHAR t
ENCODING 116
SWIDTH 600 0
DWIDTH 11 0
BBX 9 12 1 0
BITMAP
01C000
018000
028000
BFFF80
070000
070000
0A0000
0E0000
0D0000
0D0000
0E0500
06F900
ENDCHAR
STARTCHAR u
ENCODING 117
SWIDTH 600 0
DWIDTH 11 0
BBX 9 9 1 0
BITMAP
380280
340280
700340
700340
A00700
E00A00
D01E00
E0AD00
7E4D00
ENDCHAR
STARTCHAR v
ENCODING 118
SWIDTH 600 0
DWIDTH 11 0
BBX 10 9 1 0
BITMAP
7001D0
340280
340700
280D00
1C2800
1C3400
0DA000
0AC000
0B4000
ENDCHAR
STARTCHAR w
ENCODING 119
SWIDTH 600 0
DWIDTH 11 0
BBX 10 9 1 0
BITMAP
D05070
D1E0A0
D2A0D0
D36280
D66340
DD6700
DC6A00
F47C00
F07800
ENDCHAR
STARTCHAR x
ENCODING 120
SWIDTH 600 0
DWIDTH 11 0
BBX 10 9 0 0
BITMAP
0A00E0
034380
028A00
00E800
00B000
02B800
0B1C00
1D0A00
740740
ENDCHAR
STARTCHAR y
ENCODING 121
SWIDTH 600 0
DWIDTH 11 0
BBX 12 13 -1 -4
BITMAP
07001D
034028
024070
0280D0
01C280
00C340
00DA00
00AC00
007400
00B000
01D000
078000
BD0000
ENDCHAR
STARTCHAR z
ENCODING 122
SWIDTH 600 0
DWIDTH 11 0
BBX 10 9 0 0
BITMAP
0FFFE0
000280
000A00
002800
00B000
02C000
0B4000
2D0000
7FFF40
ENDCHAR
STARTCHAR braceleft
ENCODING 123
SWIDTH 600 0
DWIDTH 11 0
BBX 9 16 2 -3
BITMAP
006F40
00D000
018000
028000
024000
034000
0B0000
F80000
1D0000
090000
090000
0C0000
180000
280000
280000
0BD000
ENDCHAR
STARTCHAR bar
ENCODING 124
SWIDTH 600 0
DWIDTH 11 0
BBX 2 18 4 -5
BITMAP
70
70
70
70
70
70
70
70
70
70
70
70
70
70
70
70
70
70
ENDCHAR
STARTCHAR braceright
ENCODING 125
SWIDTH 600 0
DWIDTH 11 0
BBX 9 16 0 -3
BITMAP
02F800
001D00
000C00
001C00
001800
002400
002800
001F80
003400
006000
009000
00D000
00C000
01C000
028000
BE0000
ENDCHAR
STARTCHAR asciitilde
ENCODING 126
SWIDTH 600 0
DWIDTH 11 0
BBX 8 2 1 5
BITMAP
2F82
61BD
ENDCHAR
STARTCHAR uni00A0
ENCODING 160
SWIDTH 600 0
DWIDTH 11 0
BBX 1 1 0 0
BITMAP
00
ENDCHAR
STARTCHAR exclamdown
ENCODING 161
SWIDTH 600 0
DWIDTH 11 0
BBX 4 13 3 -4
BITMAP
0E
1F
1E
00
00
18
24
34
30
70
A0
A0
D0
ENDCHAR
STARTCHAR cent
ENCODING 162
SWIDTH 600 0
DWIDTH 11 0
BBX 8 13 1 -1
BITMAP
0014
0024
01BE
0B72
1C60
3850
3490
7480
34C0
2D98
0BE4
0240
0200
ENDCHAR
STARTCHAR sterling
ENCODING 163
SWIDTH 600 0
DWIDTH 11 0
BBX 10 11 0 0
BITMAP
006F80
01D0A0
028000
028000
028000
2FFF00
028000
028000
034000
1D0000
7FFF40
ENDCHAR
STARTCHAR currency
ENCODING 164
SWIDTH 600 0
DWIDTH 11 0
BBX 11 9 0 1
BITMAP
080024
0ABEA0
078280
0A01C0
0D01C0
0D0280
0E0B00
2AFB40
600180
ENDCHAR
STARTCHAR yen
ENCODING 165
SWIDTH 600 0
DWIDTH 11 0
BBX 10 11 1 0
BITMAP
2800E0
0C0280
0A0600
071800
026000
BFFF40
028000
FFFF00
034000
034000
070000
ENDCHAR
STARTCHAR brokenbar
ENCODING 166
SWIDTH 600 0
DWIDTH 11 0
BBX 2 18 4 -5
BITMAP
70
70
70
70
70
70
70
70
00
00
70
70
70
70
70
70
70
70
ENDCHAR
STARTCHAR section
ENCODING 167
SWIDTH 600 0
DWIDTH 11 0
BBX 8 13 1 -1
BITMAP
01F8
0746
0700
0B80
2DB4
341D
340A
1D06
079D
00B4
0030
A0B0
2F90
ENDCHAR
STARTCHAR dieresis
ENCODING 168
SWIDTH 600 0
DWIDTH 11 0
BBX 5 2 4 11
BITMAP
A1C0
A1C0
ENDCHAR
STARTCHAR copyright
ENCODING 169
SWIDTH 600 0
DWIDTH 11 0
BBX 11 12 0 0
BITMAP
00BF80
0741A0
0C0030
246E24
219114
534014
570024
934420
51F860
2001C0
280B00
0BF800
ENDCHAR
STARTCHAR ordfeminine
ENCODING 170
SWIDTH 600 0
DWIDTH 11 0
BBX 6 6 3 7
BITMAP
1BA0
3470
A060
90A0
A1D0
7E80
ENDCHAR
STARTCHAR guillemotleft
ENCODING 171
SWIDTH 600 0
DWIDTH 11 0
BBX 9 7 1 1
BITMAP
020240
0A0A00
783800
A0B000
707400
282800
080800
ENDCHAR
STARTCHAR logicalnot
ENCODING 172
SWIDTH 600 0
DWIDTH 11 0
BBX 9 5 1 1
BITMAP
7FFF40
000340
000340
000340
000340
ENDCHAR
STARTCHAR uni00AD
ENCODING 173
SWIDTH 600 0
DWIDTH 11 0
BBX 9 1 1 5
BITMAP
7FFF40
ENDCHAR
STARTCHAR registered
ENCODING 174
SWIDTH 600 0
DWIDTH 11 0
BBX 7 7 3 6
BITMAP
0BE0
6424
8B88
8F48
9554
9060
2F80
ENDCHAR
STARTCHAR macron
ENCODING 175
SWIDTH 600 0
DWIDTH 11 0
BBX 5 1 4 11
BITMAP
BFC0
ENDCHAR
STARTCHAR degree
ENCODING 176
SWIDTH 600 0
DWIDTH 11 0
BBX 5 4 4 8
BITMAP
2E00
9240
C240
7D00
ENDCHAR
STARTCHAR plusminus
ENCODING 177
SWIDTH 600 0
DWIDTH 11 0
BBX 9 10 1 0
BITMAP
00C000
00C000
00C000
7FFF40
00C000
00C000
00C000
00C000
000000
7FFF40
ENDCHAR
STARTCHAR two.sups
ENCODING 178
SWIDTH 600 0
DWIDTH 11 0
BBX 6 7 3 7
BITMAP
0B80
14A0
0090
00C0
0600
2800
BFC0
ENDCHAR
STARTCHAR three.sups
ENCODING 179
SWIDTH 600 0
DWIDTH 11 0
BBX 6 7 3 7
BITMAP
0B80
04A0
0190
0B40
01C0
61C0
2F40
ENDCHAR
STARTCHAR acute
ENCODING 180
SWIDTH 600 0
DWIDTH 11 0
BBX 4 4 5 10
BITMAP
06
1E
78
50
ENDCHAR
STARTCHAR uni00B5
ENCODING 181
SWIDTH 600 0
DWIDTH 11 0
BBX 10 12 0 -3
BITMAP
0E00A0
0D00A0
1C00D0
1C01C0
2801C0
380280
340740
781A40
6BD2C0
A00000
D00000
D00000
ENDCHAR
STARTCHAR paragraph
ENCODING 182
SWIDTH 600 0
DWIDTH 11 0
BBX 9 13 1 -1
BITMAP
02F680
1FF740
3FF340
7FE700
7FE700
7FDA00
2FDD00
068D00
001C00
002C00
002800
003400
003400
ENDCHAR
STARTCHAR periodcentered
ENCODING 183
SWIDTH 600 0
DWIDTH 11 0
BBX 3 3 4 5
BITMAP
B4
F8
E0
ENDCHAR
STARTCHAR cedilla
ENCODING 184
SWIDTH 600 0
DWIDTH 11 0
BBX 3 5 2 -5
BITMAP
14
38
1C
1C
E0
ENDCHAR
STARTCHAR one.sups
ENCODING 185
SWIDTH 600 0
DWIDTH 11 0
BBX 6 7 3 7
BITMAP
0B80
0280
0240
0300
0700
0600
BFE0
ENDCHAR
STARTCHAR ordmasculine
ENCODING 186
SWIDTH 600 0
DWIDTH 11 0
BBX 6 6 3 7
BITMAP
0BD0
3470
A030
9070
A1D0
2F40
ENDCHAR
STARTCHAR guillemotright
ENCODING 187
SWIDTH 600 0
DWIDTH 11 0
BBX 8 7 1 1
BITMAP
2020
2828
0D0E
0A0A
2D1D
7074
8080
ENDCHAR
STARTCHAR onequarter
ENCODING 188
SWIDTH 600 0
DWIDTH 11 0
BBX 12 11 -1 0
BITMAP
0B8006
02401D
034060
030080
060000
000080
000180
018210
0A0920
281FF4
600090
ENDCHAR
STARTCHAR onehalf
ENCODING 189
SWIDTH 600 0
DWIDTH 11 0
BBX 12 11 -1 0
BITMAP
0B8006
02401D
034060
030080
060000
0002E0
000524
018030
0A0090
280640
600FF4
ENDCHAR
STARTCHAR threequarters
ENCODING 190
SWIDTH 600 0
DWIDTH 11 0
BBX 12 12 -1 0
BITMAP
0BD000
04A006
00901D
078060
20D080
1F8000
000080
000180
018210
0A0920
281FF4
600090
ENDCHAR
STARTCHAR questiondown
ENCODING 191
SWIDTH 600 0
DWIDTH 11 0
BBX 7 13 1 -4
BITMAP
00B4
00F4
00E0
0000
0000
00D0
0280
0B00
2800
A000
D000
A070
6F80
ENDCHAR
STARTCHAR Agrave
ENCODING 192
SWIDTH 600 0
DWIDTH 11 0
BBX 9 16 0 0
BITMAP
002400
001D00
000600
000000
001E00
002A00
007700
00D700
01C300
034340
060340
0FFF80
280280
340280
A002C0
D001C0
ENDCHAR
STARTCHAR Aacute
ENCODING 193
SWIDTH 600 0
DWIDTH 11 0
BBX 9 16 0 0
BITMAP
000080
000780
000900
000000
001E00
002A00
007700
00D700
01C300
034340
060340
0FFF80
280280
340280
A002C0
D001C0
ENDCHAR
STARTCHAR Acircumflex
ENCODING 194
SWIDTH 600 0
DWIDTH 11 0
BBX 10 15 0 0
BITMAP
000F40
0039C0
009090
001E00
002A00
007700
00D700
01C300
034340
060340
0FFF80
280280
340280
A002C0
D001C0
ENDCHAR
STARTCHAR Atilde
ENCODING 195
SWIDTH 600 0
DWIDTH 11 0
BBX 11 15 0 0
BITMAP
00BD34
0082D0
000000
001E00
002A00
007700
00D700
01C300
034340
060340
0FFF80
280280
340280
A002C0
D001C0
ENDCHAR
STARTCHAR Adieresis
ENCODING 196
SWIDTH 600 0
DWIDTH 11 0
BBX 10 15 0 0
BITMAP
007090
0070D0
000000
001E00
002A00
007700
00D700
01C300
034340
060340
0FFF80
280280
340280
A002C0
D001C0
ENDCHAR
STARTCHAR Aring
ENCODING 197
SWIDTH 600 0
DWIDTH 11 0
BBX 9 16 0 0
BITMAP
000B40
001880
002580
001F40
001E00
002A00
007700
00D700
01C300
034340
060340
0FFF80
280280
340280
A002C0
D001C0
ENDCHAR
STARTCHAR AE
ENCODING 198
SWIDTH 600 0
DWIDTH 11 0
BBX 13 12 -1 0
BITMAP
0007FF80
000AC000
001A8000
00368000
00A34000
01C3FC00
02470000
07FE0000
0D0A0000
280D0000
700D0000
A01FF800
ENDCHAR
STARTCHAR Ccedilla
ENCODING 199
SWIDTH 600 0
DWIDTH 11 0
BBX 9 17 1 -5
BITMAP
00BF40
0781C0
0E0000
280000
340000
700000
B00000
B00000
700000
740000
2D0A00
07F800
014000
038000
01C000
018000
0E0000
ENDCHAR
STARTCHAR Egrave
ENCODING 200
SWIDTH 600 0
DWIDTH 11 0
BBX 10 16 1 0
BITMAP
006000
002800
000900
000000
0BFFE0
0D0000
0D0000
1C0000
1C0000
2FFE00
380000
340000
700000
700000
A00000
BFFE00
ENDCHAR
STARTCHAR Eacute
ENCODING 201
SWIDTH 600 0
DWIDTH 11 0
BBX 10 16 1 0
BITMAP
000180
000B80
001800
000000
0BFFE0
0D0000
0D0000
1C0000
1C0000
2FFE00
380000
340000
700000
700000
A00000
BFFE00
ENDCHAR
STARTCHAR Ecircumflex
ENCODING 202
SWIDTH 600 0
DWIDTH 11 0
BBX 10 15 1 0
BITMAP
001F00
007680
008080
0BFFE0
0D0000
0D0000
1C0000
1C0000
2FFE00
380000
340000
700000
700000
A00000
BFFE00
ENDCHAR
STARTCHAR Edieresis
ENCODING 203
SWIDTH 600 0
DWIDTH 11 0
BBX 10 15 1 0
BITMAP
00A1C0
00A1C0
000000
0BFFE0
0D0000
0D0000
1C0000
1C0000
2FFE00
380000
340000
700000
700000
A00000
BFFE00
ENDCHAR
STARTCHAR Igrave
ENCODING 204
SWIDTH 600 0
DWIDTH 11 0
BBX 11 16 0 0
BITMAP
002400
001D00
000600
000000
03FFF4
001C00
002800
002800
003400
003400
007000
00B000
00A000
00D000
00D000
7FFF00
ENDCHAR
STARTCHAR Iacute
ENCODING 205
SWIDTH 600 0
DWIDTH 11 0
BBX 11 16 0 0
BITMAP
000080
000780
000900
000000
03FFF4
001C00
002800
002800
003400
003400
007000
00B000
00A000
00D000
00D000
7FFF00
ENDCHAR
STARTCHAR Icircumflex
ENCODING 206
SWIDTH 600 0
DWIDTH 11 0
BBX 11 15 0 0
BITMAP
000F40
0039C0
009090
03FFF4
001C00
002800
002800
003400
003400
007000
00B000
00A000
00D000
00D000
7FFF00
ENDCHAR
STARTCHAR Idieresis
ENCODING 207
SWIDTH 600 0
DWIDTH 11 0
BBX 11 15 0 0
BITMAP
007090
0070D0
000000
03FFF4
001C00
002800
002800
003400
003400
007000
00B000
00A000
00D000
00D000
7FFF00
ENDCHAR
STARTCHAR Eth
ENCODING 208
SWIDTH 600 0
DWIDTH 11 0
BBX 11 12 0 0
BITMAP
03FE40
0706D0
0700B0
0A0074
0E0074
7FF074
1C0070
1C00B0
2800D0
3802C0
341B00
7FE400
ENDCHAR
STARTCHAR Ntilde
ENCODING 209
SWIDTH 600 0
DWIDTH 11 0
BBX 11 15 0 0
BITMAP
00BD34
0082D0
000000
074034
078034
0AC070
0DD060
0DA0A0
1C70D0
1C34D0
2829C0
341DC0
340E80
700B40
700740
ENDCHAR
STARTCHAR Ograve
ENCODING 210
SWIDTH 600 0
DWIDTH 11 0
BBX 11 16 0 0
BITMAP
002400
001D00
000600
000000
00BE40
0381D0
0A00A0
1C0070
280074
340070
740070
7400A0
3400D0
380280
1D0B00
07F800
ENDCHAR
STARTCHAR Oacute
ENCODING 211
SWIDTH 600 0
DWIDTH 11 0
BBX 11 16 0 0
BITMAP
000080
000780
000900
000000
00BE40
0381D0
0A00A0
1C0070
280074
340070
740070
7400A0
3400D0
380280
1D0B00
07F800
ENDCHAR
STARTCHAR Ocircumflex
ENCODING 212
SWIDTH 600 0
DWIDTH 11 0
BBX 11 15 0 0
BITMAP
000F40
0039C0
009090
00BE40
0381D0
0A00A0
1C0070
280074
340070
740070
7400A0
3400D0
380280
1D0B00
07F800
ENDCHAR
STARTCHAR Otilde
ENCODING 213
SWIDTH 600 0
DWIDTH 11 0
BBX 11 15 0 0
BITMAP
00BD34
0082D0
000000
00BE40
0381D0
0A00A0
1C0070
280074
340070
740070
7400A0
3400D0
380280
1D0B00
07F800
ENDCHAR
STARTCHAR Odieresis
ENCODING 214
SWIDTH 600 0
DWIDTH 11 0
BBX 11 15 0 0
BITMAP
007090
0070D0
000000
00BE40
0381D0
0A00A0
1C0070
280074
340070
740070
7400A0
3400D0
380280
1D0B00
07F800
ENDCHAR
STARTCHAR multiply
ENCODING 215
SWIDTH 600 0
DWIDTH 11 0
BBX 7 7 2 2
BITMAP
D018
7474
1ED0
0B40
1DD0
7474
9018
ENDCHAR
STARTCHAR Oslash
ENCODING 216
SWIDTH 600 0
DWIDTH 11 0
BBX 11 14 0 -1
BITMAP
000004
00BF5C
0381F4
0A01F0
1C03B0
280E74
342870
74A070
72C0A0
3B00D0
3D0280
7D0B00
D7F800
400000
ENDCHAR
STARTCHAR Ugrave
ENCODING 217
SWIDTH 600 0
DWIDTH 11 0
BBX 10 16 1 0
BITMAP
009000
007400
001800
000000
1C00D0
2800D0
2801C0
3401C0
740280
700340
A00340
A00700
A00A00
A00D00
742800
1BE000
ENDCHAR
STARTCHAR Uacute
ENCODING 218
SWIDTH 600 0
DWIDTH 11 0
BBX 10 16 1 0
BITMAP
000200
001E00
002400
000000
1C00D0
2800D0
2801C0
3401C0
740280
700340
A00340
A00700
A00A00
A00D00
742800
1BE000
ENDCHAR
STARTCHAR Ucircumflex
ENCODING 219
SWIDTH 600 0
DWIDTH 11 0
BBX 10 15 1 0
BITMAP
003D00
00E700
024240
1C00D0
2800D0
2801C0
3401C0
740280
700340
A00340
A00700
A00A00
A00D00
742800
1BE000
ENDCHAR
STARTCHAR Udieresis
ENCODING 220
SWIDTH 600 0
DWIDTH 11 0
BBX 10 15 1 0
BITMAP
01C240
01C340
000000
1C00D0
2800D0
2801C0
3401C0
740280
700340
A00340
A00700
A00A00
A00D00
742800
1BE000
ENDCHAR
STARTCHAR Yacute
ENCODING 221
SWIDTH 600 0
DWIDTH 11 0
BBX 9 16 2 0
BITMAP
001800
007800
009000
000000
E002C0
B00740
700E00
342800
287000
1CD000
0E8000
0B0000
0A0000
0D0000
0D0000
1C0000
ENDCHAR
STARTCHAR Thorn
ENCODING 222
SWIDTH 600 0
DWIDTH 11 0
BBX 9 12 1 0
BITMAP
0D0000
0D0000
1FFE00
280780
2802C0
3402C0
340280
701B00
BFE800
A00000
D00000
D00000
ENDCHAR
STARTCHAR germandbls
ENCODING 223
SWIDTH 600 0
DWIDTH 11 0
BBX 10 13 0 0
BITMAP
007E40
02D1C0
0341C0
0702C0
0A0740
0D1D00
0D2C00
1C1E00
2C0780
2801D0
3400A0
3491D0
70BE40
ENDCHAR
STARTCHAR agrave
ENCODING 224
SWIDTH 600 0
DWIDTH 11 0
BBX 9 14 1 0
BITMAP
009000
00B000
003800
000800
000000
06F9C0
1D0B80
740340
A00340
D00700
D00700
D00A00
B46D00
2F8D00
ENDCHAR
STARTCHAR aacute
ENCODING 225
SWIDTH 600 0
DWIDTH 11 0
BBX 9 14 1 0
BITMAP
000200
000B00
002800
006000
000000
06F9C0
1D0B80
740340
A00340
D00700
D00700
D00A00
B46D00
2F8D00
ENDCHAR
STARTCHAR acircumflex
ENCODING 226
SWIDTH 600 0
DWIDTH 11 0
BBX 9 13 1 0
BITMAP
007D00
01DA00
024240
000000
06F9C0
1D0B80
740340
A00340
D00700
D00700
D00A00
B46D00
2F8D00
ENDCHAR
STARTCHAR atilde
ENCODING 227
SWIDTH 600 0
DWIDTH 11 0
BBX 9 13 1 0
BITMAP
005040
02B5C0
020B40
000000
06F9C0
1D0B80
740340
A00340
D00700
D00700
D00A00
B46D00
2F8D00
ENDCHAR
STARTCHAR adieresis
ENCODING 228
SWIDTH 600 0
DWIDTH 11 0
BBX 9 13 1 0
BITMAP
01C340
028740
000000
000000
06F9C0
1D0B80
740340
A00340
D00700
D00700
D00A00
B46D00
2F8D00
ENDCHAR
STARTCHAR aring
ENCODING 229
SWIDTH 600 0
DWIDTH 11 0
BBX 9 14 1 0
BITMAP
007D00
00D600
00C600
007800
000000
06F9C0
1D0B80
740340
A00340
D00700
D00700
D00A00
B46D00
2F8D00
ENDCHAR
STARTCHAR ae
ENCODING 230
SWIDTH 600 0
DWIDTH 11 0
BBX 12 9 -1 0
BITMAP
06F4B8
091F4A
000D06
006D5A
0BAEA9
382800
702800
70AD14
2F47E4
ENDCHAR
STARTCHAR ccedilla
ENCODING 231
SWIDTH 600 0
DWIDTH 11 0
BBX 9 14 1 -5
BITMAP
02FE00
1E0680
380000
700000
A00000
A00000
B00000
381A00
0BE400
020000
074000
028000
024000
1D0000
ENDCHAR
STARTCHAR egrave
ENCODING 232
SWIDTH 600 0
DWIDTH 11 0
BBX 9 14 1 0
BITMAP
009000
00B000
003400
001800
000000
06F800
1E0B00
380340
B00340
BFFF40
A00000
A00000
781900
1BE400
ENDCHAR
STARTCHAR eacute
ENCODING 233
SWIDTH 600 0
DWIDTH 11 0
BBX 9 14 1 0
BITMAP
000200
000E00
003800
006000
000000
06F800
1E0B00
380340
B00340
BFFF40
A00000
A00000
781900
1BE400
ENDCHAR
STARTCHAR ecircumflex
ENCODING 234
SWIDTH 600 0
DWIDTH 11 0
BBX 9 13 1 0
BITMAP
007C00
01DA00
020200
000000
06F800
1E0B00
380340
B00340
BFFF40
A00000
A00000
781900
1BE400
ENDCHAR
STARTCHAR edieresis
ENCODING 235
SWIDTH 600 0
DWIDTH 11 0
BBX 9 13 1 0
BITMAP
028700
028700
000000
000000
06F800
1E0B00
380340
B00340
BFFF40
A00000
A00000
781900
1BE400
ENDCHAR
STARTCHAR igrave
ENCODING 236
SWIDTH 600 0
DWIDTH 11 0
BBX 7 14 2 0
BITMAP
0600
0740
01C0
0090
0000
FF80
0340
0700
0700
0A00
0D00
0D00
0E10
07F4
ENDCHAR
STARTCHAR iacute
ENCODING 237
SWIDTH 600 0
DWIDTH 11 0
BBX 7 14 2 0
BITMAP
0024
0074
01D0
0240
0000
FF80
0340
0700
0700
0A00
0D00
0D00
0E10
07F4
ENDCHAR
STARTCHAR icircumflex
ENCODING 238
SWIDTH 600 0
DWIDTH 11 0
BBX 7 13 2 0
BITMAP
02E0
0A74
1418
0000
FF80
0340
0700
0700
0A00
0D00
0D00
0E10
07F4
ENDCHAR
STARTCHAR idieresis
ENCODING 239
SWIDTH 600 0
DWIDTH 11 0
BBX 7 13 2 0
BITMAP
0D28
0D28
0000
0000
FF80
0340
0700
0700
0A00
0D00
0D00
0E10
07F4
ENDCHAR
STARTCHAR eth
ENCODING 240
SWIDTH 600 0
DWIDTH 11 0
BBX 11 13 0 0
BITMAP
006414
002EE4
002F40
00E2C0
0000D0
02FDA0
0E42E0
2800A0
3400E0
7001D0
340280
2D1B00
0BF800
ENDCHAR
STARTCHAR ntilde
ENCODING 241
SWIDTH 600 0
DWIDTH 11 0
BBX 10 13 0 0
BITMAP
001410
00AD70
0182D0
000000
092F80
0E91D0
0E00E0
1C00D0
1C01D0
2801C0
340280
340280
700340
ENDCHAR
STARTCHAR ograve
ENCODING 242
SWIDTH 600 0
DWIDTH 11 0
BBX 9 14 1 0
BITMAP
008000
00E000
007400
001800
000000
06F800
2D0A00
740340
E00340
D00340
D00740
D00A00
746C00
1FE000
ENDCHAR
STARTCHAR oacute
ENCODING 243
SWIDTH 600 0
DWIDTH 11 0
BBX 9 14 1 0
BITMAP
000600
001E00
007800
005000
000000
06F800
2D0A00
740340
E00340
D00340
D00740
D00A00
746C00
1FE000
ENDCHAR
STARTCHAR ocircumflex
ENCODING 244
SWIDTH 600 0
DWIDTH 11 0
BBX 9 13 1 0
BITMAP
007C00
01DA00
020200
000000
06F800
2D0A00
740340
E00340
D00340
D00740
D00A00
746C00
1FE000
ENDCHAR
STARTCHAR otilde
ENCODING 245
SWIDTH 600 0
DWIDTH 11 0
BBX 9 13 1 0
BITMAP
004040
03B580
061E00
000000
06F800
2D0A00
740340
E00340
D00340
D00740
D00A00
746C00
1FE000
ENDCHAR
STARTCHAR odieresis
ENCODING 246
SWIDTH 600 0
DWIDTH 11 0
BBX 9 13 1 0
BITMAP
028700
028700
000000
000000
06F800
2D0A00
740340
E00340
D00340
D00740
D00A00
746C00
1FE000
ENDCHAR
STARTCHAR divide
ENCODING 247
SWIDTH 600 0
DWIDTH 11 0
BBX 9 9 1 1
BITMAP
01D000
01D000
000000
000000
7FFF40
000000
000000
01D000
01D000
ENDCHAR
STARTCHAR oslash
ENCODING 248
SWIDTH 600 0
DWIDTH 11 0
BBX 10 9 0 0
BITMAP
01BE70
0B43D0
1C07D0
382DD0
34B0D0
3681D0
3E0280
3D1B00
A7F800
ENDCHAR
STARTCHAR ugrave
ENCODING 249
SWIDTH 600 0
DWIDTH 11 0
BBX 9 14 1 0
BITMAP
008000
00E000
007400
001800
000000
380280
340280
700340
700340
A00700
E00A00
D01E00
E0AD00
7E4D00
ENDCHAR
STARTCHAR uacute
ENCODING 250
SWIDTH 600 0
DWIDTH 11 0
BBX 9 14 1 0
BITMAP
000600
001E00
007800
005000
000000
380280
340280
700340
700340
A00700
E00A00
D01E00
E0AD00
7E4D00
ENDCHAR
STARTCHAR ucircumflex
ENCODING 251
SWIDTH 600 0
DWIDTH 11 0
BBX 9 13 1 0
BITMAP
007C00
01DA00
020200
000000
380280
340280
700340
700340
A00700
E00A00
D01E00
E0AD00
7E4D00
ENDCHAR
STARTCHAR udieresis
ENCODING 252
SWIDTH 600 0
DWIDTH 11 0
BBX 9 13 1 0
BITMAP
028700
028700
000000
000000
380280
340280
700340
700340
A00700
E00A00
D01E00
E0AD00
7E4D00
ENDCHAR
STARTCHAR yacute
ENCODING 253
SWIDTH 600 0
DWIDTH 11 0
BBX 12 18 -1 -4
BITMAP
000050
0001E0
000780
000900
000000
07001D
034028
024070
0280D0
01C280
00C340
00DA00
00AC00
007400
00B000
01D000
078000
BD0000
ENDCHAR
STARTCHAR thorn
ENCODING 254
SWIDTH 600 0
DWIDTH 11 0
BBX 10 17 0 -4
BITMAP
034000
034000
070000
070000
0A6F40
0F82D0
0D00E0
1C00A0
1C00E0
2800D0
3802C0
3D0B40
76F800
700000
A00000
A00000
D00000
ENDCHAR
STARTCHAR ydieresis
ENCODING 255
SWIDTH 600 0
DWIDTH 11 0
BBX 12 17 -1 -4
BITMAP
0024A0
0034A0
000000
000000
07001D
034028
024070
0280D0
01C280
00C340
00DA00
00AC00
007400
00B000
01D000
078000
BD0000
ENDCHAR
STARTCHAR Amacron
ENCODING 256
SWIDTH 600 0
DWIDTH 11 0
BBX 10 14 0 0
BITMAP
007FD0
000000
001E00
002A00
007700
00D700
01C300
034340
060340
0FFF80
280280
340280
A002C0
D001C0
ENDCHAR
STARTCHAR amacron
ENCODING 257
SWIDTH 600 0
DWIDTH 11 0
BBX 9 12 1 0
BITMAP
01FF00
000000
000000
06F9C0
1D0B80
740340
A00340
D00700
D00700
D00A00
B46D00
2F8D00
ENDCHAR
STARTCHAR Abreve
ENCODING 258
SWIDTH 600 0
DWIDTH 11 0
BBX 10 16 0 0
BITMAP
006060
007090
002F40
000000
001E00
002A00
007700
00D700
01C300
034340
060340
0FFF80
280280
340280
A002C0
D001C0
ENDCHAR
STARTCHAR abreve
ENCODING 259
SWIDTH 600 0
DWIDTH 11 0
BBX 9 13 1 0
BITMAP
024180
018740
00BD00
000000
06F9C0
1D0B80
740340
A00340
D00700
D00700
D00A00
B46D00
2F8D00
ENDCHAR
STARTCHAR Aogonek
ENCODING 260
SWIDTH 600 0
DWIDTH 11 0
BBX 9 16 0 -4
BITMAP
001E00
002A00
007700
00D700
01C300
034340
060340
0FFF80
280280
340280
A002C0
D001C0
000240
000900
000D00
000B80
ENDCHAR
STARTCHAR aogonek
ENCODING 261
SWIDTH 600 0
DWIDTH 11 0
BBX 9 13 1 -4
BITMAP
06F9C0
1D0B80
740340
A00340
D00700
D00700
D00A00
B46D00
2F8D00
002400
009000
00D000
00B800
ENDCHAR
STARTCHAR Cacute
ENCODING 262
SWIDTH 600 0
DWIDTH 11 0
BBX 9 16 1 0
BITMAP
000180
000B80
001800
000000
00BF40
0781C0
0E0000
280000
340000
700000
B00000
B00000
700000
740000
2D0A00
07F800
ENDCHAR
STARTCHAR cacute
ENCODING 263
SWIDTH 600 0
DWIDTH 11 0
BBX 9 14 1 0
BITMAP
000200
000B40
002D00
002000
000000
02FE00
1E0680
380000
700000
A00000
A00000
B00000
381A00
0BE400
ENDCHAR
STARTCHAR Ccircumflex
ENCODING 264
SWIDTH 600 0
DWIDTH 11 0
BBX 9 15 1 0
BITMAP
001F00
007680
008080
00BF40
0781C0
0E0000
280000
340000
700000
B00000
B00000
700000
740000
2D0A00
07F800
ENDCHAR
STARTCHAR ccircumflex
ENCODING 265
SWIDTH 600 0
DWIDTH 11 0
BBX 9 13 1 0
BITMAP
003D00
00E700
024140
000000
02FE00
1E0680
380000
700000
A00000
A00000
B00000
381A00
0BE400
ENDCHAR
STARTCHAR Cdotaccent
ENCODING 266
SWIDTH 600 0
DWIDTH 11 0
BBX 9 15 1 0
BITMAP
000D00
001D00
000000
00BF40
0781C0
0E0000
280000
340000
700000
B00000
B00000
700000
740000
2D0A00
07F800
ENDCHAR
STARTCHAR cdotaccent
ENCODING 267
SWIDTH 600 0
DWIDTH 11 0
BBX 9 13 1 0
BITMAP
002C00
003800
000000
000000
02FE00
1E0680
380000
700000
A00000
A00000
B00000
381A00
0BE400
ENDCHAR
STARTCHAR Ccaron
ENCODING 268
SWIDTH 600 0
DWIDTH 11 0
BBX 10 16 1 0
BITMAP
009090
007680
002E00
000000
00BF40
0781C0
0E0000
280000
340000
700000
B00000
B00000
700000
740000
2D0A00
07F800
ENDCHAR
STARTCHAR ccaron
ENCODING 269
SWIDTH 600 0
DWIDTH 11 0
BBX 9 13 1 0
BITMAP
018180
00D740
007D00
000000
02FE00
1E0680
380000
700000
A00000
A00000
B00000
381A00
0BE400
ENDCHAR
STARTCHAR Dcaron
ENCODING 270
SWIDTH 600 0
DWIDTH 11 0
BBX 10 16 0 0
BITMAP
006060
0036C0
001F00
000000
07FE00
0A07C0
0A00E0
0D00B0
0D0070
1C0070
2C00B0
2800A0
3401D0
340380
701E00
BFE400
ENDCHAR
STARTCHAR dcaron
ENCODING 271
SWIDTH 600 0
DWIDTH 11 0
BBX 13 15 0 0
BITMAP
000001C0
00000180
00007240
00007240
0000A300
0000E000
01F9D000
0B47C000
1C01C000
38028000
34038000
74034000
34070000
381F0000
1B960000
ENDCHAR
STARTCHAR Dcroat
ENCODING 272
SWIDTH 600 0
DWIDTH 11 0
BBX 11 12 0 0
BITMAP
03FE40
0706D0
0700B0
0A0074
0E0074
7FF074
1C0070
1C00B0
2800D0
3802C0
341B00
7FE400
ENDCHAR
STARTCHAR dcroat
ENCODING 273
SWIDTH 600 0
DWIDTH 11 0
BBX 11 13 1 0
BITMAP
0000A0
0015D0
007FF8
0001C0
0001C0
06F680
2D0B40
700340
E00700
D00700
D00A00
B46D00
2F8D00
ENDCHAR
STARTCHAR Emacron
ENCODING 274
SWIDTH 600 0
DWIDTH 11 0
BBX 10 14 1 0
BITMAP
00BFC0
000000
0BFFE0
0D0000
0D0000
1C0000
1C0000
2FFE00
380000
340000
700000
700000
A00000
BFFE00
ENDCHAR
STARTCHAR emacron
ENCODING 275
SWIDTH 600 0
DWIDTH 11 0
BBX 9 12 1 0
BITMAP
02FF00
000000
000000
06F800
1E0B00
380340
B00340
BFFF40
A00000
A00000
781900
1BE400
ENDCHAR
STARTCHAR Ebreve
ENCODING 276
SWIDTH 600 0
DWIDTH 11 0
BBX 10 16 1 0
BITMAP
008090
00A1C0
002E00
000000
0BFFE0
0D0000
0D0000
1C0000
1C0000
2FFE00
380000
340000
700000
700000
A00000
BFFE00
ENDCHAR
STARTCHAR ebreve
ENCODING 277
SWIDTH 600 0
DWIDTH 11 0
BBX 9 13 1 0
BITMAP
024180
028740
00B900
000000
06F800
1E0B00
380340
B00340
BFFF40
A00000
A00000
781900
1BE400
ENDCHAR
STARTCHAR Edotaccent
ENCODING 278
SWIDTH 600 0
DWIDTH 11 0
BBX 10 15 1 0
BITMAP
000D00
001D00
000000
0BFFE0
0D0000
0D0000
1C0000
1C0000
2FFE00
380000
340000
700000
700000
A00000
BFFE00
ENDCHAR
STARTCHAR edotaccent
ENCODING 279
SWIDTH 600 0
DWIDTH 11 0
BBX 9 13 1 0
BITMAP
003800
007800
000000
000000
06F800
1E0B00
380340
B00340
BFFF40
A00000
A00000
781900
1BE400
ENDCHAR
STARTCHAR Eogonek
ENCODING 280
SWIDTH 600 0
DWIDTH 11 0
BBX 10 16 1 -4
BITMAP
0BFFE0
0D0000
0D0000
1C0000
1C0000
2FFE00
380000
340000
700000
700000
A00000
BFFE00
002400
009000
00D000
00B800
ENDCHAR
STARTCHAR eogonek
ENCODING 281
SWIDTH 600 0
DWIDTH 11 0
BBX 9 13 1 -4
BITMAP
06F800
1E0B00
380340
B00340
BFFF40
A00000
A00000
781900
1BF800
009000
018000
028000
01F400
ENDCHAR
STARTCHAR Ecaron
ENCODING 282
SWIDTH 600 0
DWIDTH 11 0
BBX 10 16 1 0
BITMAP
009090
007680
002E00
000000
0BFFE0
0D0000
0D0000
1C0000
1C0000
2FFE00
380000
340000
700000
700000
A00000
BFFE00
ENDCHAR
STARTCHAR ecaron
ENCODING 283
SWIDTH 600 0
DWIDTH 11 0
BBX 9 13 1 0
BITMAP
024180
01DA00
00B800
000000
06F800
1E0B00
380340
B00340
BFFF40
A00000
A00000
781900
1BE400
ENDCHAR
STARTCHAR Gcircumflex
ENCODING 284
SWIDTH 600 0
DWIDTH 11 0
BBX 9 15 1 0
BITMAP
002E00
00A740
018180
01BE40
0741C0
1D0000
380000
700000
A00000
E03F80
E00340
A00340
700700
391A00
0BF800
ENDCHAR
STARTCHAR gcircumflex
ENCODING 285
SWIDTH 600 0
DWIDTH 11 0
BBX 10 17 0 -4
BITMAP
001F40
007680
009090
000000
01BE70
0742E0
1D00D0
2C00D0
3801C0
3401C0
380280
2D1B80
0BE340
000700
000A00
642D00
2FE000
ENDCHAR
STARTCHAR Gbreve
ENCODING 286
SWIDTH 600 0
DWIDTH 11 0
BBX 9 16 1 0
BITMAP
00C080
00D180
007E00
000000
01BE40
0741C0
1D0000
380000
700000
A00000
E03F80
E00340
A00340
700700
391A00
0BF800
ENDCHAR
STARTCHAR gbreve
ENCODING 287
SWIDTH 600 0
DWIDTH 11 0
BBX 10 17 0 -4
BITMAP
009060
0061D0
002F40
000000
01BE70
0742E0
1D00D0
2C00D0
3801C0
3401C0
380280
2D1B80
0BE340
000700
000A00
642D00
2FE000
ENDCHAR
STARTCHAR Gdotaccent
ENCODING 288
SWIDTH 600 0
DWIDTH 11 0
BBX 9 15 1 0
BITMAP
001D00
001D00
000000
01BE40
0741C0
1D0000
380000
700000
A00000
E03F80
E00340
A00340
700700
391A00
0BF800
ENDCHAR
STARTCHAR gdotaccent
ENCODING 289
SWIDTH 600 0
DWIDTH 11 0
BBX 10 17 0 -4
BITMAP
000E00
000E00
000000
000000
01BE70
0742E0
1D00D0
2C00D0
3801C0
3401C0
380280
2D1B80
0BE340
000700
000A00
642D00
2FE000
ENDCHAR
STARTCHAR uni0122
ENCODING 290
SWIDTH 600 0
DWIDTH 11 0
BBX 9 16 1 -4
BITMAP
01BE40
0741C0
1D0000
380000
700000
A00000
E03F80
E00340
A00340
700700
391A00
0BF800
000000
028000
01D000
0E4000
ENDCHAR
STARTCHAR uni0123
ENCODING 291
SWIDTH 600 0
DWIDTH 11 0
BBX 10 17 0 -4
BITMAP
000640
001D00
001D00
000000
01BE70
0742E0
1D00D0
2C00D0
3801C0
3401C0
380280
2D1B80
0BE340
000700
000A00
642D00
2FE000
ENDCHAR
STARTCHAR Hcircumflex
ENCODING 292
SWIDTH 600 0
DWIDTH 11 0
BBX 11 15 0 0
BITMAP
000F40
0039C0
009090
070034
0A0034
0A0070
0D00B0
1D00A0
1FFFD0
2800D0
2801C0
3402C0
740280
700380
A00340
ENDCHAR
STARTCHAR hcircumflex
ENCODING 293
SWIDTH 600 0
DWIDTH 11 0
BBX 10 16 0 0
BITMAP
02E000
0A7400
181800
034000
034000
070000
070000
0A2F80
0E91D0
0E00E0
1C00D0
1C01D0
2801C0
340280
340280
700340
ENDCHAR
STARTCHAR Hbar
ENCODING 294
SWIDTH 600 0
DWIDTH 11 0
BBX 12 12 0 0
BITMAP
070034
0A0034
3FFFFD
0D00B0
1D00A0
1FFFD0
2800D0
2801C0
3402C0
740280
700380
A00340
ENDCHAR
STARTCHAR hbar
ENCODING 295
SWIDTH 600 0
DWIDTH 11 0
BBX 10 13 0 0
BITMAP
038000
034000
2FFF00
070000
0A0000
0A2F80
0E91D0
1D00D0
1C00D0
2801C0
2802C0
340280
700340
ENDCHAR
STARTCHAR Itilde
ENCODING 296
SWIDTH 600 0
DWIDTH 11 0
BBX 11 15 0 0
BITMAP
00BD34
0082D0
000000
03FFF4
001C00
002800
002800
003400
003400
007000
00B000
00A000
00D000
00D000
7FFF00
ENDCHAR
STARTCHAR itilde
ENCODING 297
SWIDTH 600 0
DWIDTH 11 0
BBX 8 13 2 0
BITMAP
0505
1E89
24B8
0000
FF80
0340
0700
0700
0A00
0D00
0D00
0E10
07F4
ENDCHAR
STARTCHAR Imacron
ENCODING 298
SWIDTH 600 0
DWIDTH 11 0
BBX 11 14 0 0
BITMAP
007FD0
000000
03FFF4
001C00
002800
002800
003400
003400
007000
00B000
00A000
00D000
00D000
7FFF00
ENDCHAR
STARTCHAR imacron
ENCODING 299
SWIDTH 600 0
DWIDTH 11 0
BBX 7 12 2 0
BITMAP
0FF8
0000
0000
FF80
0340
0700
0700
0A00
0D00
0D00
0E10
07F4
ENDCHAR
STARTCHAR Ibreve
ENCODING 300
SWIDTH 600 0
DWIDTH 11 0
BBX 11 16 0 0
BITMAP
006060
007090
002F40
000000
03FFF4
001C00
002800
002800
003400
003400
007000
00B000
00A000
00D000
00D000
7FFF00
ENDCHAR
STARTCHAR ibreve
ENCODING 301
SWIDTH 600 0
DWIDTH 11 0
BBX 8 13 2 0
BITMAP
1809
0D28
07E0
0000
FF80
0340
0700
0700
0A00
0D00
0D00
0E10
07F4
ENDCHAR
STARTCHAR Iogonek
ENCODING 302
SWIDTH 600 0
DWIDTH 11 0
BBX 11 16 0 -4
BITMAP
03FFF4
001C00
002800
002800
003400
003400
007000
00B000
00A000
00D000
00D000
7FFF00
024000
060000
090000
07D000
ENDCHAR
STARTCHAR iogonek
ENCODING 303
SWIDTH 600 0
DWIDTH 11 0
BBX 7 17 2 -4
BITMAP
02D0
02D0
0000
0000
FF80
0340
0700
0700
0A00
0D00
0D00
0E10
07F4
0180
0300
0600
02E0
ENDCHAR
STARTCHAR Idotaccent
ENCODING 304
SWIDTH 600 0
DWIDTH 11 0
BBX 11 15 0 0
BITMAP
000A00
000A00
000000
03FFF4
001C00
002800
002800
003400
003400
007000
00B000
00A000
00D000
00D000
7FFF00
ENDCHAR
STARTCHAR dotlessi
ENCODING 305
SWIDTH 600 0
DWIDTH 11 0
BBX 7 9 2 0
BITMAP
FF80
0340
0700
0700
0A00
0D00
0D00
0E10
07F4
ENDCHAR
STARTCHAR IJ
ENCODING 306
SWIDTH 600 0
DWIDTH 11 0
BBX 9 15 1 -3
BITMAP
0D01C0
1D02C0
1C0280
2C0380
280340
340700
340700
700A00
B00E00
A00D00
D01C00
D01C00
002800
007400
03E000
ENDCHAR
STARTCHAR ij
ENCODING 307
SWIDTH 600 0
DWIDTH 11 0
BBX 9 17 1 -4
BITMAP
0B4380
0B0380
000000
000000
0D0700
1C0A00
280E00
280D00
341C00
341C00
702800
B02800
A03400
007000
007000
00A000
0B8000
ENDCHAR
STARTCHAR Jcircumflex
ENCODING 308
SWIDTH 600 0
DWIDTH 11 0
BBX 10 15 0 0
BITMAP
000F40
0039C0
009090
02FFE0
0000D0
0001D0
0001C0
000280
000280
000340
000340
000700
100A00
742C00
1BE000
ENDCHAR
STARTCHAR jcircumflex
ENCODING 309
SWIDTH 600 0
DWIDTH 11 0
BBX 10 17 0 -4
BITMAP
0007C0
001DA0
006020
000000
0BFF00
000A00
000D00
000D00
001C00
001C00
002800
003800
003400
007000
00A000
41D000
BE4000
ENDCHAR
STARTCHAR uni0136
ENCODING 310
SWIDTH 600 0
DWIDTH 11 0
BBX 10 16 1 -4
BITMAP
0D00E0
1D0380
1C0E00
283800
28E000
3BE000
7EB000
783400
B02800
A01D00
D00E00
D00700
000000
038000
01C000
0E4000
ENDCHAR
STARTCHAR uni0137
ENCODING 311
SWIDTH 600 0
DWIDTH 11 0
BBX 9 17 1 -4
BITMAP
0A0000
0E0000
0D0000
1C0000
1C02C0
280A00
387800
35E000
7BB000
7D3400
B02C00
A00D00
D00B00
000000
038000
01C000
1E4000
ENDCHAR
STARTCHAR kgreenlandic
ENCODING 312
SWIDTH 600 0
DWIDTH 11 0
BBX 9 9 1 0
BITMAP
1C02C0
280A00
387800
35E000
7BB000
7D3400
B02C00
E00D00
D00B00
ENDCHAR
STARTCHAR Lacute
ENCODING 313
SWIDTH 600 0
DWIDTH 11 0
BBX 7 16 2 0
BITMAP
0090
02D0
0A00
0000
0D00
0D00
1C00
2C00
2800
3400
3400
7000
B000
A000
E000
FFFC
ENDCHAR
STARTCHAR lacute
ENCODING 314
SWIDTH 600 0
DWIDTH 11 0
BBX 7 17 2 0
BITMAP
0018
00B8
0180
0000
7FC0
0280
0380
0340
0700
0700
0A00
0D00
0D00
1C00
1C00
1D10
0BE0
ENDCHAR
STARTCHAR uni013B
ENCODING 315
SWIDTH 600 0
DWIDTH 11 0
BBX 7 16 2 -4
BITMAP
0D00
0D00
1C00
2C00
2800
3400
3400
7000
B000
A000
E000
FFFC
0000
0A40
0340
2D00
ENDCHAR
STARTCHAR uni013C
ENCODING 316
SWIDTH 600 0
DWIDTH 11 0
BBX 6 17 2 -4
BITMAP
7FC0
0280
0380
0340
0700
0700
0A00
0D00
0D00
1C00
1C00
1D10
0BE0
0000
0740
0280
1E00
ENDCHAR
STARTCHAR Lcaron
ENCODING 317
SWIDTH 600 0
DWIDTH 11 0
BBX 8 15 2 0
BITMAP
000A
0009
000D
0D0C
0D18
1C00
2C00
2800
3400
3400
7000
B000
A000
E000
FFFC
ENDCHAR
STARTCHAR lcaron
ENCODING 318
SWIDTH 600 0
DWIDTH 11 0
BBX 9 15 2 0
BITMAP
000340
000700
7FC600
028900
038900
034000
070000
070000
0A0000
0D0000
0D0000
1C0000
1C0000
1D1000
0BE000
ENDCHAR
STARTCHAR Ldot
ENCODING 319
SWIDTH 600 0
DWIDTH 11 0
BBX 8 12 2 0
BITMAP
0D00
0D00
1C00
2C00
280E
340E
3400
7000
B000
A000
E000
FFFC
ENDCHAR
STARTCHAR ldot
ENCODING 320
SWIDTH 600 0
DWIDTH 11 0
BBX 9 13 2 0
BITMAP
FF4000
070000
0B0000
0A0000
0D0000
0D02C0
1C0380
2C0000
280000
340000
340000
384000
1FD000
ENDCHAR
STARTCHAR Lslash
ENCODING 321
SWIDTH 600 0
DWIDTH 11 0
BBX 8 12 1 0
BITMAP
0340
0340
0700
0B00
0A1A
0EB4
1F40
FC00
6C00
2800
3800
3FFF
ENDCHAR
STARTCHAR lslash
ENCODING 322
SWIDTH 600 0
DWIDTH 11 0
BBX 7 13 2 0
BITMAP
7FC0
0280
0380
0344
0768
0B90
7E00
8D00
0D00
1C00
1C00
1D10
0BE0
ENDCHAR
STARTCHAR Nacute
ENCODING 323
SWIDTH 600 0
DWIDTH 11 0
BBX 11 16 0 0
BITMAP
000080
000780
000900
000000
074034
078034
0AC070
0DD060
0DA0A0
1C70D0
1C34D0
2829C0
341DC0
340E80
700B40
700740
ENDCHAR
STARTCHAR nacute
ENCODING 324
SWIDTH 600 0
DWIDTH 11 0
BBX 10 14 0 0
BITMAP
000080
0003C0
000A00
001800
000000
092F80
0E91D0
0E00E0
1C00D0
1C01D0
2801C0
340280
340280
700340
ENDCHAR
STARTCHAR uni0145
ENCODING 325
SWIDTH 600 0
DWIDTH 11 0
BBX 11 16 0 -4
BITMAP
074034
078034
0AC070
0DD060
0DA0A0
1C70D0
1C34D0
2829C0
341DC0
340E80
700B40
700740
000000
029000
00D000
0B4000
ENDCHAR
STARTCHAR uni0146
ENCODING 326
SWIDTH 600 0
DWIDTH 11 0
BBX 10 13 0 -4
BITMAP
092F80
0E91D0
0E00E0
1C00D0
1C01D0
2801C0
340280
340280
700340
000000
02D000
009000
0B8000
ENDCHAR
STARTCHAR Ncaron
ENCODING 327
SWIDTH 600 0
DWIDTH 11 0
BBX 11 16 0 0
BITMAP
006060
0029D0
001F40
000000
074034
078034
0AC070
0DD060
0DA0A0
1C70D0
1C34D0
2829C0
341DC0
340E80
700B40
700740
ENDCHAR
STARTCHAR ncaron
ENCODING 328
SWIDTH 600 0
DWIDTH 11 0
BBX 10 13 0 0
BITMAP
005060
0036C0
001E00
000000
092F80
0E91D0
0E00E0
1C00D0
1C01D0
2801C0
340280
340280
700340
ENDCHAR
STARTCHAR napostrophe
ENCODING 329
SWIDTH 600 0
DWIDTH 11 0
BBX 11 13 0 0
BITMAP
1D0000
3F0000
2E0000
090000
6892F4
90E928
01E01C
01C028
028028
028034
034074
074070
0700A0
ENDCHAR
STARTCHAR Eng
ENCODING 330
SWIDTH 600 0
DWIDTH 11 0
BBX 10 12 0 0
BITMAP
072F80
0B91E0
0A00B0
0D0070
1D0070
1C00B0
2800A0
2800E0
3401D0
3402C0
700740
B07D00
ENDCHAR
STARTCHAR eng
ENCODING 331
SWIDTH 600 0
DWIDTH 11 0
BBX 10 13 0 -4
BITMAP
092F80
0E91D0
0E00E0
1C00D0
1C00D0
2801C0
3402C0
340280
700340
000340
000700
000A00
00B800
ENDCHAR
STARTCHAR Omacron
ENCODING 332
SWIDTH 600 0
DWIDTH 11 0
BBX 11 14 0 0
BITMAP
007FD0
000000
00BE40
0381D0
0A00A0
1C0070
280074
340070
740070
7400A0
3400D0
380280
1D0B00
07F800
ENDCHAR
STARTCHAR omacron
ENCODING 333
SWIDTH 600 0
DWIDTH 11 0
BBX 9 12 1 0
BITMAP
02FF00
000000
000000
06F800
2D0A00
740340
E00340
D00340
D00740
D00A00
746C00
1FE000
ENDCHAR
STARTCHAR Obreve
ENCODING 334
SWIDTH 600 0
DWIDTH 11 0
BBX 11 16 0 0
BITMAP
006060
007090
002F40
000000
00BE40
0381D0
0A00A0
1C0070
280074
340070
740070
7400A0
3400D0
380280
1D0B00
07F800
ENDCHAR
STARTCHAR obreve
ENCODING 335
SWIDTH 600 0
DWIDTH 11 0
BBX 9 13 1 0
BITMAP
030280
028700
01B900
000000
06F800
2D0A00
740340
E00340
D00340
D00740
D00A00
746C00
1FE000
ENDCHAR
STARTCHAR Ohungarumlaut
ENCODING 336
SWIDTH 600 0
DWIDTH 11 0
BBX 11 16 0 0
BITMAP
000618
000D74
002490
000000
00BE40
0381D0
0A00A0
1C0070
280074
340070
740070
7400A0
3400D0
380280
1D0B00
07F800
ENDCHAR
STARTCHAR ohungarumlaut
ENCODING 337
SWIDTH 600 0
DWIDTH 11 0
BBX 10 13 1 0
BITMAP
002490
006280
008600
000000
06F800
2D0A00
740340
E00340
D00340
D00740
D00A00
746C00
1FE000
ENDCHAR
STARTCHAR OE
ENCODING 338
SWIDTH 600 0
DWIDTH 11 0
BBX 12 12 0 0
BITMAP
00BFFE
079700
0E0A00
280900
340D00
700FE0
701C00
702800
702400
743400
2D7000
0BFFE0
ENDCHAR
STARTCHAR oe
ENCODING 339
SWIDTH 600 0
DWIDTH 11 0
BBX 11 9 0 0
BITMAP
0BD2E0
286A28
703818
E03418
D03FF8
C07000
D0B000
A1B450
7E1F90
ENDCHAR
STARTCHAR Racute
ENCODING 340
SWIDTH 600 0
DWIDTH 11 0
BBX 10 16 0 0
BITMAP
000080
000780
000900
000000
03FF40
0701E0
0B00B0
0A00B0
0E00E0
0D0680
1FFD00
1C2800
281C00
380D00
340B00
700740
ENDCHAR
STARTCHAR racute
ENCODING 341
SWIDTH 600 0
DWIDTH 11 0
BBX 8 14 2 0
BITMAP
0009
001D
0074
0090
0000
287E
2640
3900
7400
7000
A000
A000
D000
D000
ENDCHAR
STARTCHAR uni0156
ENCODING 342
SWIDTH 600 0
DWIDTH 11 0
BBX 10 16 0 -4
BITMAP
03FF40
0701E0
0B00B0
0A00B0
0E00E0
0D0680
1FFD00
1C2800
281C00
380D00
340B00
700740
000000
01D000
00A000
0B8000
ENDCHAR
STARTCHAR uni0157
ENCODING 343
SWIDTH 600 0
DWIDTH 11 0
BBX 10 13 0 -4
BITMAP
0287E0
026400
039000
074000
070000
0A0000
0A0000
0D0000
0D0000
000000
290000
0D0000
B40000
ENDCHAR
STARTCHAR Rcaron
ENCODING 344
SWIDTH 600 0
DWIDTH 11 0
BBX 10 16 0 0
BITMAP
006060
0039D0
001F40
000000
03FF40
0701E0
0B00B0
0A00B0
0E00E0
0D0680
1FFD00
1C2800
281C00
380D00
340B00
700740
ENDCHAR
STARTCHAR rcaron
ENCODING 345
SWIDTH 600 0
DWIDTH 11 0
BBX 8 13 2 0
BITMAP
0202
029D
00F4
0000
287E
2640
3900
7400
7000
A000
A000
D000
D000
ENDCHAR
STARTCHAR Sacute
ENCODING 346
SWIDTH 600 0
DWIDTH 11 0
BBX 9 16 1 0
BITMAP
000600
001E00
002400
000000
02F900
0E0740
1C0000
1C0000
0E0000
07E000
00B800
001D00
000A00
400E00
E42C00
2FE000
ENDCHAR
STARTCHAR sacute
ENCODING 347
SWIDTH 600 0
DWIDTH 11 0
BBX 8 14 1 0
BITMAP
0006
001E
0078
0050
0000
07F9
1D0B
2800
1E40
06E4
002D
000E
A41D
2BE4
ENDCHAR
STARTCHAR Scircumflex
ENCODING 348
SWIDTH 600 0
DWIDTH 11 0
BBX 9 15 1 0
BITMAP
007C00
01DA00
024200
02F900
0E0740
1C0000
1C0000
0E0000
07E000
00B800
001D00
000A00
400E00
E42C00
2FE000
ENDCHAR
STARTCHAR scircumflex
ENCODING 349
SWIDTH 600 0
DWIDTH 11 0
BBX 8 13 1 0
BITMAP
007C
01DA
0202
0000
07F9
1D0B
2800
1E40
06E4
002D
000E
A41D
2BE4
ENDCHAR
STARTCHAR uni015E
ENCODING 350
SWIDTH 600 0
DWIDTH 11 0
BBX 9 17 1 -5
BITMAP
02F900
0E0740
1C0000
1C0000
0E0000
07E000
00B800
001D00
000A00
400E00
E42C00
2FE000
020000
0B4000
024000
074000
290000
ENDCHAR
STARTCHAR uni015F
ENCODING 351
SWIDTH 600 0
DWIDTH 11 0
BBX 8 14 1 -5
BITMAP
07F9
1D0B
2800
1E40
06E4
002D
000E
A41D
2BE4
0200
0B40
0240
0740
2900
ENDCHAR
STARTCHAR Scaron
ENCODING 352
SWIDTH 600 0
DWIDTH 11 0
BBX 9 16 1 0
BITMAP
014180
00DA00
007C00
000000
02F900
0E0740
1C0000
1C0000
0E0000
07E000
00B800
001D00
000A00
400E00
E42C00
2FE000
ENDCHAR
STARTCHAR scaron
ENCODING 353
SWIDTH 600 0
DWIDTH 11 0
BBX 9 13 1 0
BITMAP
024240
01DA00
00B800
000000
07F900
1D0B00
280000
1E4000
06E400
002D00
000E00
A41D00
2BE400
ENDCHAR
STARTCHAR uni0162
ENCODING 354
SWIDTH 600 0
DWIDTH 11 0
BBX 9 17 2 -5
BITMAP
FFFFC0
01C000
028000
028000
034000
074000
070000
0A0000
0A0000
0D0000
0D0000
1C0000
140000
380000
1C0000
1C0000
E00000
ENDCHAR
STARTCHAR uni0163
ENCODING 355
SWIDTH 600 0
DWIDTH 11 0
BBX 9 17 1 -5
BITMAP
01C000
018000
028000
BFFF80
070000
070000
0A0000
0E0000
0D0000
0D0000
0E0500
06F900
018000
02C000
00D000
01C000
0E4000
ENDCHAR
STARTCHAR Tcaron
ENCODING 356
SWIDTH 600 0
DWIDTH 11 0
BBX 9 16 2 0
BITMAP
060600
029D00
01F400
000000
FFFFC0
01C000
028000
028000
034000
074000
070000
0A0000
0A0000
0D0000
0D0000
1C0000
ENDCHAR
STARTCHAR tcaron
ENCODING 357
SWIDTH 600 0
DWIDTH 11 0
BBX 9 15 1 0
BITMAP
000280
000280
000340
01C300
018600
028000
BFFF80
070000
070000
0A0000
0E0000
0D0000
0D0000
0E0500
06F900
ENDCHAR
STARTCHAR Tbar
ENCODING 358
SWIDTH 600 0
DWIDTH 11 0
BBX 9 12 2 0
BITMAP
FFFFC0
01C000
028000
028000
034000
BFF800
070000
0B0000
0A0000
0D0000
0D0000
1C0000
ENDCHAR
STARTCHAR tbar
ENCODING 359
SWIDTH 600 0
DWIDTH 11 0
BBX 10 12 0 0
BITMAP
007000
006000
00A000
2FFFE0
01C000
01C000
028000
7FFF80
034000
034000
038140
01FE40
ENDCHAR
STARTCHAR Utilde
ENCODING 360
SWIDTH 600 0
DWIDTH 11 0
BBX 10 15 1 0
BITMAP
02F4D0
020B40
000000
1C00D0
2800D0
2801C0
3401C0
740280
700340
A00340
A00700
A00A00
A00D00
742800
1BE000
ENDCHAR
STARTCHAR utilde
ENCODING 361
SWIDTH 600 0
DWIDTH 11 0
BBX 9 13 1 0
BITMAP
004040
03B580
061E00
000000
380280
340280
700340
700340
A00700
E00A00
D01E00
E0AD00
7E4D00
ENDCHAR
STARTCHAR Umacron
ENCODING 362
SWIDTH 600 0
DWIDTH 11 0
BBX 10 14 1 0
BITMAP
01FF40
000000
1C00D0
2800D0
2801C0
3401C0
740280
700340
A00340
A00700
A00A00
A00D00
742800
1BE000
ENDCHAR
STARTCHAR umacron
ENCODING 363
SWIDTH 600 0
DWIDTH 11 0
BBX 9 12 1 0
BITMAP
02FE00
000000
000000
380280
340280
700340
700340
A00700
E00A00
D01E00
E0AD00
7E4D00
ENDCHAR
STARTCHAR Ubreve
ENCODING 364
SWIDTH 600 0
DWIDTH 11 0
BBX 10 16 1 0
BITMAP
018180
01C240
00BD00
000000
1C00D0
2800D0
2801C0
3401C0
740280
700340
A00340
A00700
A00A00
A00D00
742800
1BE000
ENDCHAR
STARTCHAR ubreve
ENCODING 365
SWIDTH 600 0
DWIDTH 11 0
BBX 9 13 1 0
BITMAP
030240
028700
01B900
000000
380280
340280
700340
700340
A00700
E00A00
D01E00
E0AD00
7E4D00
ENDCHAR
STARTCHAR Uring
ENCODING 366
SWIDTH 600 0
DWIDTH 11 0
BBX 10 16 1 0
BITMAP
002D00
006200
009600
007D00
1C00D0
2800D0
2801C0
3401C0
740280
700340
A00340
A00700
A00A00
A00D00
742800
1BE000
ENDCHAR
STARTCHAR uring
ENCODING 367
SWIDTH 600 0
DWIDTH 11 0
BBX 9 14 1 0
BITMAP
007C00
00C900
018900
00B800
000000
380280
340280
700340
700340
A00700
E00A00
D01E00
E0AD00
7E4D00
ENDCHAR
STARTCHAR Uhungarumlaut
ENCODING 368
SWIDTH 600 0
DWIDTH 11 0
BBX 10 16 1 0
BITMAP
001860
0035D0
009240
000000
1C00D0
2800D0
2801C0
3401C0
740280
700340
A00340
A00700
A00A00
A00D00
742800
1BE000
ENDCHAR
STARTCHAR uhungarumlaut
ENCODING 369
SWIDTH 600 0
DWIDTH 11 0
BBX 10 13 1 0
BITMAP
002490
006280
008600
000000
380280
340280
700340
700340
A00700
E00A00
D01E00
E0AD00
7E4D00
ENDCHAR
STARTCHAR Uogonek
ENCODING 370
SWIDTH 600 0
DWIDTH 11 0
BBX 10 16 1 -4
BITMAP
1C00D0
2800D0
2801C0
3401C0
740280
700340
A00340
A00700
A00A00
A00D00
797800
1FE000
0A0000
280000
240000
1F4000
ENDCHAR
STARTCHAR uogonek
ENCODING 371
SWIDTH 600 0
DWIDTH 11 0
BBX 9 13 1 -4
BITMAP
380280
340280
700340
700340
A00700
E00A00
D01E00
E0AD00
7E4D00
002400
009000
00C000
00B800
ENDCHAR
STARTCHAR Wcircumflex
ENCODING 372
SWIDTH 600 0
DWIDTH 11 0
BBX 11 15 1 0
BITMAP
007D00
00D700
024240
700034
700070
7000A0
A09090
A0E0D0
A2A1C0
A36280
963340
9D3700
E83A00
F43D00
F03C00
ENDCHAR
STARTCHAR wcircumflex
ENCODING 373
SWIDTH 600 0
DWIDTH 11 0
BBX 10 13 1 0
BITMAP
00B800
029D00
060200
000000
D05070
D1E0A0
D2A0D0
D36280
D66340
DD6700
DC6A00
F47C00
F07800
ENDCHAR
STARTCHAR Ycircumflex
ENCODING 374
SWIDTH 600 0
DWIDTH 11 0
BBX 9 15 2 0
BITMAP
01F000
076800
090800
E002C0
B00740
700E00
342800
287000
1CD000
0E8000
0B0000
0A0000
0D0000
0D0000
1C0000
ENDCHAR
STARTCHAR ycircumflex
ENCODING 375
SWIDTH 600 0
DWIDTH 11 0
BBX 12 17 -1 -4
BITMAP
000B80
0029D0
006020
000000
07001D
034028
024070
0280D0
01C280
00C340
00DA00
00AC00
007400
00B000
01D000
078000
BD0000
ENDCHAR
STARTCHAR Ydieresis
ENCODING 376
SWIDTH 600 0
DWIDTH 11 0
BBX 9 15 2 0
BITMAP
060C00
0A1C00
000000
E002C0
B00740
700E00
342800
287000
1CD000
0E8000
0B0000
0A0000
0D0000
0D0000
1C0000
ENDCHAR
STARTCHAR Zacute
ENCODING 377
SWIDTH 600 0
DWIDTH 11 0
BBX 11 16 0 0
BITMAP
000180
000780
000900
000000
0BFFF4
0000E0
0002C0
000740
001D00
003800
00A000
02C000
074000
0E0000
380000
BFFFC0
ENDCHAR
STARTCHAR zacute
ENCODING 378
SWIDTH 600 0
DWIDTH 11 0
BBX 10 14 0 0
BITMAP
000180
000780
001E00
001400
000000
0FFFE0
000280
000A00
002800
00B000
02C000
0B4000
2D0000
7FFF40
ENDCHAR
STARTCHAR Zdotaccent
ENCODING 379
SWIDTH 600 0
DWIDTH 11 0
BBX 11 15 0 0
BITMAP
000A00
000E00
000000
0BFFF4
0000E0
0002C0
000740
001D00
003800
00A000
02C000
074000
0E0000
380000
BFFFC0
ENDCHAR
STARTCHAR zdotaccent
ENCODING 380
SWIDTH 600 0
DWIDTH 11 0
BBX 10 13 0 0
BITMAP
001D00
001D00
000000
000000
0FFFE0
000280
000A00
002800
00B000
02C000
0B4000
2D0000
7FFF40
ENDCHAR
STARTCHAR Zcaron
ENCODING 381
SWIDTH 600 0
DWIDTH 11 0
BBX 11 16 0 0
BITMAP
005060
0036C0
001F00
000000
0BFFF4
0000E0
0002C0
000740
001D00
003800
00A000
02C000
074000
0E0000
380000
BFFFC0
ENDCHAR
STARTCHAR zcaron
ENCODING 382
SWIDTH 600 0
DWIDTH 11 0
BBX 10 13 0 0
BITMAP
008090
007680
002E00
000000
0FFFE0
000280
000A00
002800
00B000
02C000
0B4000
2D0000
7FFF40
ENDCHAR
STARTCHAR longs
ENCODING 383
SWIDTH 600 0
DWIDTH 11 0
BBX 9 13 2 0
BITMAP
006F80
01D040
028000
034000
BF0000
0B0000
0A0000
0E0000
0D0000
1C0000
1C0000
280000
380000
ENDCHAR
STARTCHAR uni0180
ENCODING 384
SWIDTH 600 0
DWIDTH 11 0
BBX 10 13 0 0
BITMAP
038000
034000
2FFF00
070000
0A0000
0A6F40
0F41D0
1D00E0
1C00A0
2800D0
3802C0
3D0B40
76F900
ENDCHAR
STARTCHAR uni018A
ENCODING 394
SWIDTH 600 0
DWIDTH 11 0
BBX 11 12 0 0
BITMAP
02FE40
0E71E0
28B070
30A034
70D038
74D034
29C034
02C070
0280A0
0342C0
035B40
07E400
ENDCHAR
STARTCHAR uni018F
ENCODING 399
SWIDTH 600 0
DWIDTH 11 0
BBX 9 12 1 0
BITMAP
06FE00
0E0740
0002C0
0001C0
0001C0
0001C0
BFFFC0
D00280
D00340
E00A00
746800
1F9000
ENDCHAR
STARTCHAR uni0192
ENCODING 402
SWIDTH 600 0
DWIDTH 11 0
BBX 12 14 -1 -2
BITMAP
0000BE
0002C1
000340
000700
000A00
00FFF0
001C00
002800
003400
007000
00A000
00D000
12C000
7E0000
ENDCHAR
STARTCHAR uni0193
ENCODING 403
SWIDTH 600 0
DWIDTH 11 0
BBX 11 14 1 0
BITMAP
0000B8
0001C0
01BFC0
0741C0
1D0000
380000
700000
A00000
E03F80
E00340
A00340
700700
391A00
0BF800
ENDCHAR
STARTCHAR Ohorn
ENCODING 416
SWIDTH 600 0
DWIDTH 11 0
BBX 12 15 0 0
BITMAP
000009
000009
00000C
00BEA4
0381D0
0A00B0
1C0070
280074
340070
740070
7400A0
3400D0
380280
1D0B00
07F800
ENDCHAR
STARTCHAR ohorn
ENCODING 417
SWIDTH 600 0
DWIDTH 11 0
BBX 10 12 1 0
BITMAP
000060
000060
000090
06FA40
2D0B00
740340
E00340
D00340
D00740
D00A00
746C00
1FE000
ENDCHAR
STARTCHAR Uhorn
ENCODING 431
SWIDTH 600 0
DWIDTH 11 0
BBX 12 15 1 0
BITMAP
000006
000006
000009
1C00E0
2800D0
2801C0
340180
740280
700340
A00340
A00700
A00A00
A00D00
742800
1BE000
ENDCHAR
STARTCHAR uhorn
ENCODING 432
SWIDTH 600 0
DWIDTH 11 0
BBX 11 12 1 0
BITMAP
000018
000018
000034
3802E0
340280
700340
700340
A00700
E00B00
D01E00
E0AD00
7E4D00
ENDCHAR
STARTCHAR uni01C2
ENCODING 450
SWIDTH 600 0
DWIDTH 11 0
BBX 9 17 1 -4
BITMAP
002800
003400
007000
007000
00A000
00E000
7FFF40
01C000
02C000
BFFE00
034000
034000
070000
0B0000
0A0000
0D0000
0D0000
ENDCHAR
STARTCHAR uni01CD
ENCODING 461
SWIDTH 600 0
DWIDTH 11 0
BBX 10 16 0 0
BITMAP
006060
0029D0
001F40
000000
001E00
002A00
007700
00D700
01C300
034340
060340
0FFF80
280280
340280
A002C0
D001C0
ENDCHAR
STARTCHAR uni01CE
ENCODING 462
SWIDTH 600 0
DWIDTH 11 0
BBX 9 13 1 0
BITMAP
014180
00DB00
007C00
000000
06F9C0
1D0B80
740340
A00340
D00700
D00700
D00A00
B46D00
2F8D00
ENDCHAR
STARTCHAR uni01CF
ENCODING 463
SWIDTH 600 0
DWIDTH 11 0
BBX 11 16 0 0
BITMAP
006060
0029D0
001F40
000000
03FFF4
001C00
002800
002800
003400
003400
007000
00B000
00A000
00D000
00D000
7FFF00
ENDCHAR
STARTCHAR uni01D0
ENCODING 464
SWIDTH 600 0
DWIDTH 11 0
BBX 7 13 2 0
BITMAP
0808
0A74
03D0
0000
FF80
0340
0700
0700
0A00
0D00
0D00
0E10
07F4
ENDCHAR
STARTCHAR uni01D1
ENCODING 465
SWIDTH 600 0
DWIDTH 11 0
BBX 11 16 0 0
BITMAP
006060
0029D0
001F40
000000
00BE40
0381D0
0A00A0
1C0070
280074
340070
740070
7400A0
3400D0
380280
1D0B00
07F800
ENDCHAR
STARTCHAR uni01D2
ENCODING 466
SWIDTH 600 0
DWIDTH 11 0
BBX 9 13 1 0
BITMAP
024240
01DA00
00B800
000000
06F800
2D0A00
740340
E00340
D00340
D00740
D00A00
746C00
1FE000
ENDCHAR
STARTCHAR uni01D3
ENCODING 467
SWIDTH 600 0
DWIDTH 11 0
BBX 10 16 1 0
BITMAP
018180
00A740
007D00
000000
1C00D0
2800D0
2801C0
3401C0
740280
700340
A00340
A00700
A00A00
A00D00
742800
1BE000
ENDCHAR
STARTCHAR uni01D4
ENCODING 468
SWIDTH 600 0
DWIDTH 11 0
BBX 9 13 1 0
BITMAP
024240
01DA00
00B800
000000
380280
340280
700340
700340
A00700
E00A00
D01E00
E0AD00
7E4D00
ENDCHAR
STARTCHAR uni01D5
ENCODING 469
SWIDTH 600 0
DWIDTH 11 0
BBX 10 17 1 0
BITMAP
00FF80
000000
01C340
018300
000000
1C00D0
2800D0
2801C0
3401C0
740280
700340
A00340
A00700
A00A00
A00D00
742800
1BE000
ENDCHAR
STARTCHAR uni01D6
ENCODING 470
SWIDTH 600 0
DWIDTH 11 0
BBX 9 14 1 0
BITMAP
01FF40
000000
028600
024600
000000
380280
340280
700340
700340
A00700
E00A00
D01E00
E0AD00
7E4D00
ENDCHAR
STARTCHAR uni01D7
ENCODING 471
SWIDTH 600 0
DWIDTH 11 0
BBX 10 17 1 0
BITMAP
000600
000900
01C340
018300
000000
1C00D0
2800D0
2801C0
3401C0
740280
700340
A00340
A00700
A00A00
A00D00
742800
1BE000
ENDCHAR
STARTCHAR uni01D8
ENCODING 472
SWIDTH 600 0
DWIDTH 11 0
BBX 9 15 1 0
BITMAP
000600
001800
000000
028600
024600
000000
380280
340280
700340
700340
A00700
E00A00
D01E00
E0AD00
7E4D00
ENDCHAR
STARTCHAR uni01D9
ENCODING 473
SWIDTH 600 0
DWIDTH 11 0
BBX 10 17 1 0
BITMAP
009180
002E00
01C340
018300
000000
1C00D0
2800D0
2801C0
3401C0
740280
700340
A00340
A00700
A00A00
A00D00
742800
1BE000
ENDCHAR
STARTCHAR uni01DA
ENCODING 474
SWIDTH 600 0
DWIDTH 11 0
BBX 9 15 1 0
BITMAP
008240
007D00
000000
028600
024600
000000
380280
340280
700340
700340
A00700
E00A00
D01E00
E0AD00
7E4D00
ENDCHAR
STARTCHAR uni01DB
ENCODING 475
SWIDTH 600 0
DWIDTH 11 0
BBX 10 18 1 0
BITMAP
006000
002400
001800
01C340
018300
000000
1C00D0
2800D0
2801C0
3401C0
740280
700340
A00340
A00700
A00A00
A00D00
742800
1BE000
ENDCHAR
STARTCHAR uni01DC
ENCODING 476
SWIDTH 600 0
DWIDTH 11 0
BBX 9 15 1 0
BITMAP
006000
003000
001400
028600
024600
000000
380280
340280
700340
700340
A00700
E00A00
D01E00
E0AD00
7E4D00
ENDCHAR
STARTCHAR uni01E2
ENCODING 482
SWIDTH 600 0
DWIDTH 11 0
BBX 13 14 -1 0
BITMAP
0001FF40
00000000
0007FF80
000AC000
001A8000
00368000
00A34000
01C3FC00
02470000
07FE0000
0D0A0000
280D0000
700D0000
A01FF800
ENDCHAR
STARTCHAR uni01E3
ENCODING 483
SWIDTH 600 0
DWIDTH 11 0
BBX 12 12 -1 0
BITMAP
002FF0
000000
000000
06F4B8
091F4A
000D06
006D5A
0BAEA9
382800
702800
70AD14
2F47E4
ENDCHAR
STARTCHAR Gcaron
ENCODING 486
SWIDTH 600 0
DWIDTH 11 0
BBX 10 16 1 0
BITMAP
008090
007780
002E00
000000
01BE40
0741C0
1D0000
380000
700000
A00000
E03F80
E00340
A00340
700700
391A00
0BF800
ENDCHAR
STARTCHAR gcaron
ENCODING 487
SWIDTH 600 0
DWIDTH 11 0
BBX 10 17 0 -4
BITMAP
005060
0036C0
001F00
000000
01BE70
0742E0
1D00D0
2C00D0
3801C0
3401C0
380280
2D1B80
0BE340
000700
000A00
642D00
2FE000
ENDCHAR
STARTCHAR uni01EA
ENCODING 490
SWIDTH 600 0
DWIDTH 11 0
BBX 11 16 0 -4
BITMAP
00BE40
0381D0
0A00B0
1C0070
280074
340070
740070
7400A0
3400D0
380280
1D0B00
07F800
024000
060000
090000
07D000
ENDCHAR
STARTCHAR uni01EB
ENCODING 491
SWIDTH 600 0
DWIDTH 11 0
BBX 9 13 1 -4
BITMAP
06F800
2D0A00
740340
E00340
D00340
D00740
D00A00
B46C00
1FE000
090000
140000
240000
1F4000
ENDCHAR
STARTCHAR uni01F4
ENCODING 500
SWIDTH 600 0
DWIDTH 11 0
BBX 9 16 1 0
BITMAP
000180
000B40
001800
000000
01BE40
0741C0
1D0000
380000
700000
A00000
E03F80
E00340
A00340
700700
391A00
0BF800
ENDCHAR
STARTCHAR uni01F5
ENCODING 501
SWIDTH 600 0
DWIDTH 11 0
BBX 10 18 0 -4
BITMAP
000080
0002C0
000A00
001800
000000
01BE70
0742E0
1D00D0
2C00D0
3801C0
3401C0
380280
2D1B80
0BE340
000700
000A00
642D00
2FE000
ENDCHAR
STARTCHAR uni01F8
ENCODING 504
SWIDTH 600 0
DWIDTH 11 0
BBX 11 16 0 0
BITMAP
002400
001D00
000600
000000
074034
078034
0AC070
0DD060
0DA0A0
1C70D0
1C34D0
2829C0
341DC0
340E80
700B40
700740
ENDCHAR
STARTCHAR uni01F9
ENCODING 505
SWIDTH 600 0
DWIDTH 11 0
BBX 10 14 0 0
BITMAP
002400
002C00
000E00
000600
000000
092F80
0E91D0
0E00E0
1C00D0
1C01D0
2801C0
340280
340280
700340
ENDCHAR
STARTCHAR Aringacute
ENCODING 506
SWIDTH 600 0
DWIDTH 11 0
BBX 9 17 0 0
BITMAP
000080
000280
001580
002580
001F40
001E00
002A00
006700
00D700
018300
034340
060340
0FFF80
280280
340280
A002C0
D001C0
ENDCHAR
STARTCHAR aringacute
ENCODING 507
SWIDTH 600 0
DWIDTH 11 0
BBX 9 16 1 0
BITMAP
000100
001900
007D00
00D600
00C600
007800
000000
06F9C0
1D0B80
740340
A00340
D00700
D00700
D00A00
B46D00
2F8D00
ENDCHAR
STARTCHAR AEacute
ENCODING 508
SWIDTH 600 0
DWIDTH 11 0
BBX 13 16 -1 0
BITMAP
00000240
00001E00
00002400
00000000
0007FF80
000AC000
001A8000
00368000
00A34000
01C3FC00
02470000
07FE0000
0D0A0000
280D0000
700D0000
A01FF800
ENDCHAR
STARTCHAR aeacute
ENCODING 509
SWIDTH 600 0
DWIDTH 11 0
BBX 12 14 -1 0
BITMAP
000060
0001E0
000780
000600
000000
06F4B8
091F4A
000D06
006D5A
0BAEA9
382800
702800
70AD14
2F47E4
ENDCHAR
STARTCHAR Oslashacute
ENCODING 510
SWIDTH 600 0
DWIDTH 11 0
BBX 11 17 0 -1
BITMAP
000080
000780
000900
000004
00BF5C
0381F4
0A01F0
1C03B0
280E74
342870
74A070
72C0A0
3B00D0
3D0280
7D0B00
D7F800
400000
ENDCHAR
STARTCHAR oslashacute
ENCODING 511
SWIDTH 600 0
DWIDTH 11 0
BBX 10 14 0 0
BITMAP
000180
000780
001E00
001400
000000
01BE70
0B43D0
1C07D0
382DD0
34B0D0
3681D0
3E0280
3D1B00
A7F800
ENDCHAR
STARTCHAR uni0218
ENCODING 536
SWIDTH 600 0
DWIDTH 11 0
BBX 9 16 1 -4
BITMAP
02F900
0E0740
1C0000
1C0000
0E0000
07E000
00B800
001D00
000A00
400E00
E42C00
2FE000
000000
074000
028000
2E0000
ENDCHAR
STARTCHAR uni0219
ENCODING 537
SWIDTH 600 0
DWIDTH 11 0
BBX 8 13 1 -4
BITMAP
07F9
1D0B
2800
1E40
06E4
002D
000E
A41D
2BE4
0000
0740
0280
2E00
ENDCHAR
STARTCHAR uni021A
ENCODING 538
SWIDTH 600 0
DWIDTH 11 0
BBX 9 16 2 -4
BITMAP
FFFFC0
01C000
028000
028000
034000
074000
070000
0A0000
0A0000
0D0000
0D0000
1C0000
000000
380000
1C0000
E40000
ENDCHAR
STARTCHAR uni021B
ENCODING 539
SWIDTH 600 0
DWIDTH 11 0
BBX 9 16 1 -4
BITMAP
01C000
018000
028000
BFFF80
070000
070000
0A0000
0E0000
0D0000
0D0000
0E0500
06F900
000000
02D000
00D000
0B8000
ENDCHAR
STARTCHAR uni0237
ENCODING 567
SWIDTH 600 0
DWIDTH 11 0
BBX 8 13 0 -4
BITMAP
0BFF
000A
000D
000D
001C
001C
0028
0038
0034
0070
00A0
41D0
BE40
ENDCHAR
STARTCHAR uni0243
ENCODING 579
SWIDTH 600 0
DWIDTH 11 0
BBX 10 12 0 0
BITMAP
03FF40
0341E0
0700A0
0A00A0
0A02C0
0FFE00
0D0680
1C00D0
FFE0D0
2801C0
340780
3FF900
ENDCHAR
STARTCHAR uni0250
ENCODING 592
SWIDTH 600 0
DWIDTH 11 0
BBX 9 9 1 0
BITMAP
25BE00
3A4740
740340
700740
B16D00
BE9000
A00000
A01C00
2FE400
ENDCHAR
STARTCHAR uni0251
ENCODING 593
SWIDTH 600 0
DWIDTH 11 0
BBX 9 9 1 0
BITMAP
06F9C0
1D0B80
740340
A00340
D00700
D00700
D00A00
B46D00
2F8D00
ENDCHAR
STARTCHAR uni0252
ENCODING 594
SWIDTH 600 0
DWIDTH 11 0
BBX 10 9 0 0
BITMAP
096F40
0E82D0
0D00E0
1C00A0
1C00E0
2800D0
3802C0
3D0B40
72F800
ENDCHAR
STARTCHAR uni0253
ENCODING 595
SWIDTH 600 0
DWIDTH 11 0
BBX 10 13 0 0
BITMAP
00BE00
028000
034000
070000
0A6F40
0E82D0
0D00E0
1C00A0
1C00E0
2800D0
3802C0
3D0B40
72F800
ENDCHAR
STARTCHAR uni0254
ENCODING 596
SWIDTH 600 0
DWIDTH 11 0
BBX 10 9 0 0
BITMAP
06F900
0D0780
0001C0
0001D0
0001C0
0002C0
000740
741E00
1FE400
ENDCHAR
STARTCHAR uni0255
ENCODING 597
SWIDTH 600 0
DWIDTH 11 0
BBX 9 11 1 -2
BITMAP
02FE00
1E0680
380000
700000
A00000
A1BD00
B74600
3D0A00
7BF800
900000
800000
ENDCHAR
STARTCHAR uni0256
ENCODING 598
SWIDTH 600 0
DWIDTH 11 0
BBX 10 17 1 -4
BITMAP
0000A0
0000E0
0000D0
0001C0
06F9C0
1D0B80
740380
A00340
D00740
D00700
D00A00
B46E00
2F8D00
001D00
001C00
001C00
000F40
ENDCHAR
STARTCHAR uni0257
ENCODING 599
SWIDTH 600 0
DWIDTH 11 0
BBX 12 13 1 0
BITMAP
00002D
0000A0
0000D0
0001C0
06F9C0
1D0B80
740380
A00340
D00700
D00700
D00A00
B46E00
2F8D00
ENDCHAR
STARTCHAR uni0258
ENCODING 600
SWIDTH 600 0
DWIDTH 11 0
BBX 9 9 1 0
BITMAP
06F800
1D0B00
740340
A00340
BFFF40
000740
000A00
A06C00
6FE000
ENDCHAR
STARTCHAR uni0259
ENCODING 601
SWIDTH 600 0
DWIDTH 11 0
BBX 9 9 1 0
BITMAP
0BF900
190B00
000340
000380
FFFF40
D00740
D00A00
B46C00
2FE000
ENDCHAR
STARTCHAR uni025A
ENCODING 602
SWIDTH 600 0
DWIDTH 11 0
BBX 11 9 0 0
BITMAP
1BE400
142C00
000EE0
006E60
1B9D2C
E41C00
D02800
A0B000
2F8000
ENDCHAR
STARTCHAR uni025B
ENCODING 603
SWIDTH 600 0
DWIDTH 11 0
BBX 9 9 1 0
BITMAP
06F900
1D0740
280000
2D0000
1FF000
A40000
D00000
B41900
2FE800
ENDCHAR
STARTCHAR uni025C
ENCODING 604
SWIDTH 600 0
DWIDTH 11 0
BBX 8 9 1 0
BITMAP
1BF9
190B
0007
001A
07F8
001E
000A
E41D
6FE4
ENDCHAR
STARTCHAR uni025E
ENCODING 606
SWIDTH 600 0
DWIDTH 11 0
BBX 9 9 1 0
BITMAP
06F900
2D0B40
740340
E01A00
D0F800
D01A00
E00B00
741E00
1BE400
ENDCHAR
STARTCHAR uni025F
ENCODING 607
SWIDTH 600 0
DWIDTH 11 0
BBX 10 13 0 -4
BITMAP
0BFF00
000A00
000E00
000D00
0BFFF0
001C00
002800
003800
003400
007000
00A000
41D000
BE4000
ENDCHAR
STARTCHAR uni0260
ENCODING 608
SWIDTH 600 0
DWIDTH 11 0
BBX 12 15 0 -4
BITMAP
00001F
000034
01BE70
0742E0
0D00E0
2C00D0
3801C0
3401C0
380280
2D1B80
0BE340
000700
000A00
642D00
2FE400
ENDCHAR
STARTCHAR uni0261
ENCODING 609
SWIDTH 600 0
DWIDTH 11 0
BBX 10 13 0 -4
BITMAP
01BE70
0742E0
1D00D0
2C00D0
3801C0
3401C0
380280
2D1B80
0BE340
000700
000A00
642D00
2FE000
ENDCHAR
STARTCHAR uni0262
ENCODING 610
SWIDTH 600 0
DWIDTH 11 0
BBX 9 9 1 0
BITMAP
02FE00
1E0740
340000
B00000
A07F00
E00700
A00600
381A00
0BE400
ENDCHAR
STARTCHAR uni0263
ENCODING 611
SWIDTH 600 0
DWIDTH 11 0
BBX 10 13 1 -4
BITMAP
7001D0
340280
280700
280D00
1C2800
0D7000
09D000
0B8000
0B8000
1DC000
35C000
368000
2E0000
ENDCHAR
STARTCHAR uni0264
ENCODING 612
SWIDTH 600 0
DWIDTH 11 0
BBX 9 9 1 0
BITMAP
3E0BC0
07B800
02E000
0B7400
1C2800
341C00
702800
347400
1F9000
ENDCHAR
STARTCHAR uni0265
ENCODING 613
SWIDTH 600 0
DWIDTH 11 0
BBX 9 13 1 -4
BITMAP
380280
340280
700340
700340
A00700
E00B00
D01E00
E06D00
7E4D00
001C00
002C00
002800
003400
ENDCHAR
STARTCHAR uni0266
ENCODING 614
SWIDTH 600 0
DWIDTH 11 0
BBX 10 13 0 0
BITMAP
00BE00
029000
034000
070000
0A2F80
0E91D0
0E00D0
1C00D0
1C01D0
2801C0
340280
340280
700340
ENDCHAR
STARTCHAR uni0267
ENCODING 615
SWIDTH 600 0
DWIDTH 11 0
BBX 10 17 0 -4
BITMAP
00BE00
029000
034000
070000
0A2F80
0E91D0
0E00D0
1C00D0
1C01D0
2801C0
3402C0
340280
700340
000340
000700
000A00
00B800
ENDCHAR
STARTCHAR uni0268
ENCODING 616
SWIDTH 600 0
DWIDTH 11 0
BBX 8 13 1 0
BITMAP
00B4
00B4
0000
0000
3FE0
00D0
01D0
01C0
7FFE
0380
0340
0384
01FD
ENDCHAR
STARTCHAR uni026A
ENCODING 618
SWIDTH 600 0
DWIDTH 11 0
BBX 9 9 1 0
BITMAP
2FFF80
00D000
01D000
01C000
02C000
028000
038000
034000
FFFC00
ENDCHAR
STARTCHAR uni026B
ENCODING 619
SWIDTH 600 0
DWIDTH 11 0
BBX 7 13 2 0
BITMAP
7FC0
0280
0380
0340
1B04
AF24
8BE0
0D00
0D00
1C00
1C00
1D10
0BE0
ENDCHAR
STARTCHAR uni026C
ENCODING 620
SWIDTH 600 0
DWIDTH 11 0
BBX 7 13 1 0
BITMAP
1FF0
00A0
00D0
00D0
7DC0
6280
2FFC
0340
0340
0700
0700
0744
02F8
ENDCHAR
STARTCHAR uni026D
ENCODING 621
SWIDTH 600 0
DWIDTH 11 0
BBX 6 17 2 -4
BITMAP
7FC0
0280
0380
0340
0700
0700
0A00
0E00
0D00
1D00
1C00
2800
2800
3400
3400
3810
1FD0
ENDCHAR
STARTCHAR uni026E
ENCODING 622
SWIDTH 600 0
DWIDTH 11 0
BBX 11 17 0 -4
BITMAP
034000
070000
0A0000
0A0000
0FFFF4
0D00A0
1C0280
280E00
283800
34BF40
3402C0
7001C0
B001C0
0001C0
000380
1D0A00
07F800
ENDCHAR
STARTCHAR uni026F
ENCODING 623
SWIDTH 600 0
DWIDTH 11 0
BBX 11 9 0 0
BITMAP
1C2834
283470
343470
3470A0
70A0A0
70A0D0
A0D1D0
A2D2C0
79B980
ENDCHAR
STARTCHAR uni0270
ENCODING 624
SWIDTH 600 0
DWIDTH 11 0
BBX 11 13 0 -4
BITMAP
2C2834
283470
343070
3470A0
70A0A0
B0A0D0
A0D1C0
A2D6C0
79BA80
000280
000340
000340
000700
ENDCHAR
STARTCHAR uni0271
ENCODING 625
SWIDTH 600 0
DWIDTH 11 0
BBX 11 13 0 -4
BITMAP
19F2E0
2D3D74
283470
343070
3470A0
70A0A0
B0A0D0
A0D0D0
D0D1C0
000280
000280
000340
002E00
ENDCHAR
STARTCHAR uni0272
ENCODING 626
SWIDTH 600 0
DWIDTH 11 0
BBX 12 13 -2 -4
BITMAP
0092F8
00E91D
00E00E
01C00D
01C01D
02801C
028028
034028
034034
070000
0A0000
0D0000
780000
ENDCHAR
STARTCHAR uni0273
ENCODING 627
SWIDTH 600 0
DWIDTH 11 0
BBX 10 13 0 -4
BITMAP
092F80
0E91D0
0E00E0
1C00D0
1C01D0
2801C0
3402C0
340280
700380
000340
000700
000740
0002D0
ENDCHAR
STARTCHAR uni0274
ENCODING 628
SWIDTH 600 0
DWIDTH 11 0
BBX 9 9 1 0
BITMAP
1D0340
2E0700
3B0700
374A00
728A00
70DD00
A0AD00
A07C00
D03800
ENDCHAR
STARTCHAR uni0275
ENCODING 629
SWIDTH 600 0
DWIDTH 11 0
BBX 9 9 1 0
BITMAP
06F800
2D0A00
740340
E00340
FFFF40
D00340
D00A00
746C00
1FE000
ENDCHAR
STARTCHAR uni0276
ENCODING 630
SWIDTH 600 0
DWIDTH 11 0
BBX 11 9 0 0
BITMAP
06FFFC
1D0D54
341C00
B01C00
E02FE0
D02800
A03400
747000
1FFFE0
ENDCHAR
STARTCHAR uni0278
ENCODING 632
SWIDTH 600 0
DWIDTH 11 0
BBX 10 17 0 -4
BITMAP
000E00
000D00
001D00
001C00
02FE40
0E3AD0
3834A0
707070
B0B070
B0A0A0
70E1D0
39D780
0BF900
02C000
028000
038000
034000
ENDCHAR
STARTCHAR uni0279
ENCODING 633
SWIDTH 600 0
DWIDTH 11 0
BBX 8 9 1 0
BITMAP
000A
000A
000D
000D
001C
0028
0068
4664
F934
ENDCHAR
STARTCHAR uni027A
ENCODING 634
SWIDTH 600 0
DWIDTH 11 0
BBX 10 13 0 0
BITMAP
0000A0
0000D0
0000D0
0001C0
0001C0
000280
000340
000340
000700
000B00
001E00
119900
7E4D00
ENDCHAR
STARTCHAR uni027B
ENCODING 635
SWIDTH 600 0
DWIDTH 11 0
BBX 8 13 0 -4
BITMAP
000E
000D
001C
001C
0028
0028
0074
11B4
7E70
0070
00A0
00A0
007D
ENDCHAR
STARTCHAR uni027D
ENCODING 637
SWIDTH 600 0
DWIDTH 11 0
BBX 9 13 1 -4
BITMAP
0A1F80
099000
0E4000
1D0000
1C0000
280000
280000
340000
340000
700000
700000
385000
1F9000
ENDCHAR
STARTCHAR uni027E
ENCODING 638
SWIDTH 600 0
DWIDTH 11 0
BBX 8 9 2 0
BITMAP
02FE
1E01
2800
3400
7000
A000
A000
D000
D000
ENDCHAR
STARTCHAR uni0280
ENCODING 640
SWIDTH 600 0
DWIDTH 11 0
BBX 8 9 1 0
BITMAP
0FFD
1C0B
1C07
281A
3FF8
3470
7034
7028
A01C
ENDCHAR
STARTCHAR uni0281
ENCODING 641
SWIDTH 600 0
DWIDTH 11 0
BBX 8 9 1 0
BITMAP
2807
1C07
0D0A
0A09
1BFD
741C
A01C
B028
2FF8
ENDCHAR
STARTCHAR uni0282
ENCODING 642
SWIDTH 600 0
DWIDTH 11 0
BBX 9 13 0 -4
BITMAP
01FE40
0742C0
0A0000
079000
01B900
000B40
000380
390740
76F900
700000
A00000
700000
2D0000
ENDCHAR
STARTCHAR uni0283
ENCODING 643
SWIDTH 600 0
DWIDTH 11 0
BBX 11 17 0 -4
BITMAP
0002F8
000A04
000D00
001C00
002800
002800
003400
003400
007000
00B000
00A000
00D000
00D000
01C000
02C000
434000
BE0000
ENDCHAR
STARTCHAR uni0284
ENCODING 644
SWIDTH 600 0
DWIDTH 11 0
BBX 11 17 0 -4
BITMAP
0002F8
000A04
000D00
001C00
002C00
002800
003400
003400
1FFFD0
00B000
00A000
00D000
00D000
01C000
02C000
434000
BE0000
ENDCHAR
STARTCHAR uni0287
ENCODING 647
SWIDTH 600 0
DWIDTH 11 0
BBX 9 12 0 -3
BITMAP
0BF800
051D00
000E00
000D00
000D00
001C00
002C00
002800
7FFFC0
003000
007000
00A000
ENDCHAR
STARTCHAR uni0288
ENCODING 648
SWIDTH 600 0
DWIDTH 11 0
BBX 9 16 1 -4
BITMAP
01C000
018000
028000
BFFF80
070000
070000
0A0000
0A0000
0D0000
0D0000
1C0000
2C0000
280000
280000
1D1400
0BE400
ENDCHAR
STARTCHAR uni0289
ENCODING 649
SWIDTH 600 0
DWIDTH 11 0
BBX 11 9 0 0
BITMAP
0700D0
0A01C0
0A02C0
BFFFF4
1C0340
1C0340
2C0700
1D1B00
0B9600
ENDCHAR
STARTCHAR uni028A
ENCODING 650
SWIDTH 600 0
DWIDTH 11 0
BBX 9 9 1 0
BITMAP
7F1FC0
0D0900
240700
700700
A00700
E00A00
A00D00
747800
1F9000
ENDCHAR
STARTCHAR uni028B
ENCODING 651
SWIDTH 600 0
DWIDTH 11 0
BBX 9 9 1 0
BITMAP
382E00
340740
700340
700340
A00340
E00B00
E01D00
B47800
2F9000
ENDCHAR
STARTCHAR uni028C
ENCODING 652
SWIDTH 600 0
DWIDTH 11 0
BBX 9 9 0 0
BITMAP
003C00
00AD00
01CD00
028A00
070700
0D0700
280340
340280
A00280
ENDCHAR
STARTCHAR uni028D
ENCODING 653
SWIDTH 600 0
DWIDTH 11 0
BBX 11 9 -1 0
BITMAP
01E0B4
02E0F4
0361A4
0A6364
0D6724
1C6928
286C28
307828
A02428
ENDCHAR
STARTCHAR uni028E
ENCODING 654
SWIDTH 600 0
DWIDTH 11 0
BBX 12 13 0 0
BITMAP
0000BD
000280
000B00
001D00
002800
007C00
00DD00
028900
070A00
0D0700
2C0340
340240
A00280
ENDCHAR
STARTCHAR uni028F
ENCODING 655
SWIDTH 600 0
DWIDTH 11 0
BBX 8 9 2 0
BITMAP
E00A
702C
3474
28D0
1E80
0E00
0D00
0D00
1C00
ENDCHAR
STARTCHAR uni0290
ENCODING 656
SWIDTH 600 0
DWIDTH 11 0
BBX 10 13 0 -4
BITMAP
0FFFE0
000280
000A00
002800
00B000
02C000
0B4000
2D0000
7FFF40
000340
000740
000740
0002D0
ENDCHAR
STARTCHAR uni0291
ENCODING 657
SWIDTH 600 0
DWIDTH 11 0
BBX 10 11 0 -2
BITMAP
0FFFD0
000380
000E00
002800
00A000
0282E0
0B0A30
2C1860
7FFF80
006000
009000
ENDCHAR
STARTCHAR uni0292
ENCODING 658
SWIDTH 600 0
DWIDTH 11 0
BBX 10 13 0 -4
BITMAP
07FFD0
000380
001D00
007400
01D000
07F800
001B00
000740
000340
000700
000A00
E06800
6FD000
ENDCHAR
STARTCHAR uni0294
ENCODING 660
SWIDTH 600 0
DWIDTH 11 0
BBX 8 13 2 0
BITMAP
1BE4
741D
000A
000A
000E
002C
01E0
0B40
0D00
1D00
1C00
2800
2800
ENDCHAR
STARTCHAR uni0295
ENCODING 661
SWIDTH 600 0
DWIDTH 11 0
BBX 9 13 2 0
BITMAP
06F900
1D0B40
340100
700000
700000
380000
1D0000
074000
034000
070000
070000
0A0000
0D0000
ENDCHAR
STARTCHAR uni0298
ENCODING 664
SWIDTH 600 0
DWIDTH 11 0
BBX 9 13 1 0
BITMAP
01BD00
074740
1D0280
2801C0
7401C0
71D1C0
A1D280
A00280
A00340
A00B00
A00D00
347800
1F9000
ENDCHAR
STARTCHAR uni0299
ENCODING 665
SWIDTH 600 0
DWIDTH 11 0
BBX 8 9 1 0
BITMAP
1FFD
1C0B
2C07
280A
3FF8
341E
700A
B01D
BFE4
ENDCHAR
STARTCHAR uni029C
ENCODING 668
SWIDTH 600 0
DWIDTH 11 0
BBX 10 9 0 0
BITMAP
0A00A0
0E00D0
0D00D0
1C01C0
2FFFC0
280280
380340
340340
700700
ENDCHAR
STARTCHAR uni029D
ENCODING 669
SWIDTH 600 0
DWIDTH 11 0
BBX 9 18 0 -5
BITMAP
000780
000740
000000
000000
0BFF00
000A00
000D00
000D00
001C00
001C00
002800
003800
003400
6EB000
91F000
D1F400
7E6800
001800
ENDCHAR
STARTCHAR uni029E
ENCODING 670
SWIDTH 600 0
DWIDTH 11 0
BBX 10 13 0 -4
BITMAP
1C00D0
0D00D0
0701C0
0346C0
01EA80
01E380
078340
1D0700
B40700
000A00
000E00
000D00
001C00
ENDCHAR
STARTCHAR uni029F
ENCODING 671
SWIDTH 600 0
DWIDTH 11 0
BBX 7 9 2 0
BITMAP
1C00
2800
3800
3400
7000
7000
A000
A000
FFF8
ENDCHAR
STARTCHAR uni02A1
ENCODING 673
SWIDTH 600 0
DWIDTH 11 0
BBX 9 13 1 0
BITMAP
06F900
1D0740
000280
000280
000340
001E00
00A400
7FFF00
034000
070000
070000
0A0000
0A0000
ENDCHAR
STARTCHAR uni02A2
ENCODING 674
SWIDTH 600 0
DWIDTH 11 0
BBX 10 13 1 0
BITMAP
01BE40
0B42D0
0D0040
1C0000
1D0000
0E0000
038000
7FFF00
01D000
01C000
02C000
028000
034000
ENDCHAR
STARTCHAR uni02A4
ENCODING 676
SWIDTH 600 0
DWIDTH 11 0
BBX 13 17 -1 -4
BITMAP
00034000
00034000
00070000
00070000
02EBFF80
0E1D0700
1C0D0D00
341C2800
341C7000
7028D000
7025F800
38B41D00
1E700D00
00000D00
00001C00
00247400
001FD000
ENDCHAR
STARTCHAR uni02A6
ENCODING 678
SWIDTH 600 0
DWIDTH 11 0
BBX 9 12 1 0
BITMAP
050000
0C0000
1C0000
FFFF80
347440
347000
703800
B00B00
A00340
A00340
B40B00
2FF800
ENDCHAR
STARTCHAR uni02A7
ENCODING 679
SWIDTH 600 0
DWIDTH 11 0
BBX 11 17 1 -4
BITMAP
00007C
0701D0
060280
0A0340
7FFF40
1C0700
1C0B00
280A00
380D00
340D00
701C00
742C00
2F6800
003400
003400
00B000
079000
ENDCHAR
STARTCHAR h.sups
ENCODING 688
SWIDTH 600 0
DWIDTH 11 0
BBX 7 9 3 7
BITMAP
0400
0C00
1800
2AE0
2934
3434
3030
6060
6060
ENDCHAR
STARTCHAR j.sups
ENCODING 690
SWIDTH 600 0
DWIDTH 11 0
BBX 7 11 2 4
BITMAP
0024
0000
0BF0
0060
0090
0090
00C0
00C0
0180
4240
7E00
ENDCHAR
STARTCHAR r.sups
ENCODING 691
SWIDTH 600 0
DWIDTH 11 0
BBX 6 6 4 7
BITMAP
26E0
3900
3400
7000
6000
9000
ENDCHAR
STARTCHAR w.sups
ENCODING 695
SWIDTH 600 0
DWIDTH 11 0
BBX 9 6 2 7
BITMAP
60D180
61D300
339600
365900
386800
387400
ENDCHAR
STARTCHAR y.sups
ENCODING 696
SWIDTH 600 0
DWIDTH 11 0
BBX 8 8 2 5
BITMAP
0C09
0918
0624
0660
0380
0340
0A00
7800
ENDCHAR
STARTCHAR uni02B9
ENCODING 697
SWIDTH 600 0
DWIDTH 11 0
BBX 3 5 5 8
BITMAP
28
34
30
60
90
ENDCHAR
STARTCHAR uni02BB
ENCODING 699
SWIDTH 600 0
DWIDTH 11 0
BBX 5 6 4 7
BITMAP
0280
1D00
3400
7D00
7D00
3800
ENDCHAR
STARTCHAR uni02BC
ENCODING 700
SWIDTH 600 0
DWIDTH 11 0
BBX 4 6 4 7
BITMAP
1E
2F
2F
09
68
90
ENDCHAR
STARTCHAR uni02BE
ENCODING 702
SWIDTH 600 0
DWIDTH 11 0
BBX 4 6 5 9
BITMAP
B4
1C
0D
1C
B4
40
ENDCHAR
STARTCHAR uni02BF
ENCODING 703
SWIDTH 600 0
DWIDTH 11 0
BBX 4 6 5 9
BITMAP
01
29
A0
90
A0
2C
ENDCHAR
STARTCHAR uni02C1
ENCODING 705
SWIDTH 600 0
DWIDTH 11 0
BBX 6 7 4 9
BITMAP
1F80
7450
A000
6000
3400
0C00
1800
ENDCHAR
STARTCHAR circumflex
ENCODING 710
SWIDTH 600 0
DWIDTH 11 0
BBX 5 3 4 10
BITMAP
1F00
7680
8080
ENDCHAR
STARTCHAR caron
ENCODING 711
SWIDTH 600 0
DWIDTH 11 0
BBX 6 3 4 10
BITMAP
9090
7680
2E00
ENDCHAR
STARTCHAR uni02C8
ENCODING 712
SWIDTH 600 0
DWIDTH 11 0
BBX 3 6 5 7
BITMAP
38
74
70
60
A0
50
ENDCHAR
STARTCHAR uni02C9
ENCODING 713
SWIDTH 600 0
DWIDTH 11 0
BBX 5 1 4 11
BITMAP
BFC0
ENDCHAR
STARTCHAR uni02CA
ENCODING 714
SWIDTH 600 0
DWIDTH 11 0
BBX 4 4 5 10
BITMAP
06
1E
78
50
ENDCHAR
STARTCHAR uni02CB
ENCODING 715
SWIDTH 600 0
DWIDTH 11 0
BBX 3 4 5 10
BITMAP
80
E0
74
18
ENDCHAR
STARTCHAR uni02CC
ENCODING 716
SWIDTH 600 0
DWIDTH 11 0
BBX 3 6 2 -5
BITMAP
0C
18
28
38
34
74
ENDCHAR
STARTCHAR uni02D0
ENCODING 720
SWIDTH 600 0
DWIDTH 11 0
BBX 5 9 3 0
BITMAP
1F40
0E00
0800
0000
0000
0000
2000
7400
F800
ENDCHAR
STARTCHAR uni02D1
ENCODING 721
SWIDTH 600 0
DWIDTH 11 0
BBX 4 3 4 6
BITMAP
7D
38
20
ENDCHAR
STARTCHAR breve
ENCODING 728
SWIDTH 600 0
DWIDTH 11 0
BBX 6 3 4 10
BITMAP
C0A0
A1C0
6E40
ENDCHAR
STARTCHAR dotaccent
ENCODING 729
SWIDTH 600 0
DWIDTH 11 0
BBX 3 2 5 11
BITMAP
78
74
ENDCHAR
STARTCHAR ring
ENCODING 730
SWIDTH 600 0
DWIDTH 11 0
BBX 5 4 4 10
BITMAP
1F00
3280
6240
2E00
ENDCHAR
STARTCHAR ogonek
ENCODING 731
SWIDTH 600 0
DWIDTH 11 0
BBX 4 4 2 -4
BITMAP
28
60
90
7D
ENDCHAR
STARTCHAR tilde
ENCODING 732
SWIDTH 600 0
DWIDTH 11 0
BBX 7 3 3 10
BITMAP
0404
3B58
61E0
ENDCHAR
STARTCHAR hungarumlaut
ENCODING 733
SWIDTH 600 0
DWIDTH 11 0
BBX 6 3 5 10
BITMAP
2490
6280
8600
ENDCHAR
STARTCHAR uni02DE
ENCODING 734
SWIDTH 600 0
DWIDTH 11 0
BBX 5 3 3 4
BITMAP
1A00
6A00
0380
ENDCHAR
STARTCHAR uni02E0
ENCODING 736
SWIDTH 600 0
DWIDTH 11 0
BBX 6 9 4 4
BITMAP
C060
90C0
9240
6600
3D00
3800
5C00
9C00
B400
ENDCHAR
STARTCHAR l.sups
ENCODING 737
SWIDTH 600 0
DWIDTH 11 0
BBX 4 9 5 7
BITMAP
B8
18
24
34
30
60
60
A0
7D
ENDCHAR
STARTCHAR s.sups
ENCODING 738
SWIDTH 600 0
DWIDTH 11 0
BBX 6 6 3 7
BITMAP
0BD0
2850
1900
01C0
60D0
2F80
ENDCHAR
STARTCHAR x.sups
ENCODING 739
SWIDTH 600 0
DWIDTH 11 0
BBX 6 6 3 7
BITMAP
1870
0DC0
0B40
0F40
3580
5080
ENDCHAR
STARTCHAR uni02E4
ENCODING 740
SWIDTH 600 0
DWIDTH 11 0
BBX 6 9 4 7
BITMAP
1F80
7450
A000
6000
3400
0C00
1800
1800
1400
ENDCHAR
STARTCHAR uni0300
ENCODING 768
SWIDTH 600 0
DWIDTH 11 0
BBX 3 4 5 10
BITMAP
80
E0
74
18
ENDCHAR
STARTCHAR uni0301
ENCODING 769
SWIDTH 600 0
DWIDTH 11 0
BBX 4 4 5 10
BITMAP
06
1E
78
50
ENDCHAR
STARTCHAR uni0302
ENCODING 770
SWIDTH 600 0
DWIDTH 11 0
BBX 5 3 4 10
BITMAP
1F00
7680
8080
ENDCHAR
STARTCHAR uni0303
ENCODING 771
SWIDTH 600 0
DWIDTH 11 0
BBX 7 3 3 10
BITMAP
0404
3B58
61E0
ENDCHAR
STARTCHAR uni0304
ENCODING 772
SWIDTH 600 0
DWIDTH 11 0
BBX 5 1 4 11
BITMAP
BFC0
ENDCHAR
STARTCHAR uni0305
ENCODING 773
SWIDTH 600 0
DWIDTH 11 0
BBX 5 1 4 11
BITMAP
BFC0
ENDCHAR
STARTCHAR uni0306
ENCODING 774
SWIDTH 600 0
DWIDTH 11 0
BBX 6 3 4 10
BITMAP
C0A0
A1C0
6E40
ENDCHAR
STARTCHAR uni0307
ENCODING 775
SWIDTH 600 0
DWIDTH 11 0
BBX 3 2 5 11
BITMAP
78
74
ENDCHAR
STARTCHAR uni0308
ENCODING 776
SWIDTH 600 0
DWIDTH 11 0
BBX 5 2 4 11
BITMAP
A1C0
A1C0
ENDCHAR
STARTCHAR uni0309
ENCODING 777
SWIDTH 600 0
DWIDTH 11 0
BBX 3 4 5 10
BITMAP
74
1C
1C
64
ENDCHAR
STARTCHAR uni030A
ENCODING 778
SWIDTH 600 0
DWIDTH 11 0
BBX 5 4 4 10
BITMAP
1F00
3280
6240
2E00
ENDCHAR
STARTCHAR uni030B
ENCODING 779
SWIDTH 600 0
DWIDTH 11 0
BBX 6 3 5 10
BITMAP
2490
6280
8600
ENDCHAR
STARTCHAR uni030C
ENCODING 780
SWIDTH 600 0
DWIDTH 11 0
BBX 6 3 4 10
BITMAP
9090
7680
2E00
ENDCHAR
STARTCHAR uni030F
ENCODING 783
SWIDTH 600 0
DWIDTH 11 0
BBX 5 4 3 10
BITMAP
9200
A240
7180
2080
ENDCHAR
STARTCHAR uni0310
ENCODING 784
SWIDTH 600 0
DWIDTH 11 0
BBX 6 5 4 10
BITMAP
0500
0F00
C460
91C0
6E40
ENDCHAR
STARTCHAR uni0311
ENCODING 785
SWIDTH 600 0
DWIDTH 11 0
BBX 6 3 3 10
BITMAP
0BD0
2870
6030
ENDCHAR
STARTCHAR uni0312
ENCODING 786
SWIDTH 600 0
DWIDTH 11 0
BBX 3 4 5 10
BITMAP
14
60
B0
70
ENDCHAR
STARTCHAR uni0313
ENCODING 787
SWIDTH 600 0
DWIDTH 11 0
BBX 3 4 5 10
BITMAP
34
38
24
60
ENDCHAR
STARTCHAR uni0318
ENCODING 792
SWIDTH 600 0
DWIDTH 11 0
BBX 4 4 2 -5
BITMAP
05
BD
08
04
ENDCHAR
STARTCHAR uni0319
ENCODING 793
SWIDTH 600 0
DWIDTH 11 0
BBX 3 4 2 -5
BITMAP
90
BC
C0
40
ENDCHAR
STARTCHAR uni031A
ENCODING 794
SWIDTH 600 0
DWIDTH 11 0
BBX 3 3 6 10
BITMAP
FC
08
04
ENDCHAR
STARTCHAR uni031B
ENCODING 795
SWIDTH 600 0
DWIDTH 11 0
BBX 3 4 6 8
BITMAP
18
1C
28
E0
ENDCHAR
STARTCHAR uni031C
ENCODING 796
SWIDTH 600 0
DWIDTH 11 0
BBX 3 4 2 -5
BITMAP
28
60
A0
74
ENDCHAR
STARTCHAR uni031D
ENCODING 797
SWIDTH 600 0
DWIDTH 11 0
BBX 4 3 2 -4
BITMAP
14
24
FD
ENDCHAR
STARTCHAR uni031E
ENCODING 798
SWIDTH 600 0
DWIDTH 11 0
BBX 4 3 2 -5
BITMAP
BE
20
30
ENDCHAR
STARTCHAR uni031F
ENCODING 799
SWIDTH 600 0
DWIDTH 11 0
BBX 4 4 2 -5
BITMAP
24
FD
30
10
ENDCHAR
STARTCHAR uni0320
ENCODING 800
SWIDTH 600 0
DWIDTH 11 0
BBX 4 1 2 -3
BITMAP
FD
ENDCHAR
STARTCHAR uni0323
ENCODING 803
SWIDTH 600 0
DWIDTH 11 0
BBX 3 2 2 -4
BITMAP
78
78
ENDCHAR
STARTCHAR uni0324
ENCODING 804
SWIDTH 600 0
DWIDTH 11 0
BBX 6 2 1 -3
BITMAP
A1D0
A1C0
ENDCHAR
STARTCHAR uni0325
ENCODING 805
SWIDTH 600 0
DWIDTH 11 0
BBX 4 4 2 -5
BITMAP
7D
C6
C9
B8
ENDCHAR
STARTCHAR uni0326
ENCODING 806
SWIDTH 600 0
DWIDTH 11 0
BBX 3 3 2 -4
BITMAP
38
1C
E4
ENDCHAR
STARTCHAR uni0327
ENCODING 807
SWIDTH 600 0
DWIDTH 11 0
BBX 3 5 2 -5
BITMAP
14
38
1C
1C
E0
ENDCHAR
STARTCHAR uni0328
ENCODING 808
SWIDTH 600 0
DWIDTH 11 0
BBX 4 4 2 -4
BITMAP
28
60
90
7D
ENDCHAR
STARTCHAR uni0329
ENCODING 809
SWIDTH 600 0
DWIDTH 11 0
BBX 2 4 3 -5
BITMAP
90
90
C0
C0
ENDCHAR
STARTCHAR uni032A
ENCODING 810
SWIDTH 600 0
DWIDTH 11 0
BBX 5 3 1 -4
BITMAP
7FC0
5080
5080
ENDCHAR
STARTCHAR uni032C
ENCODING 812
SWIDTH 600 0
DWIDTH 11 0
BBX 6 3 1 -4
BITMAP
5060
3680
1E00
ENDCHAR
STARTCHAR uni032E
ENCODING 814
SWIDTH 600 0
DWIDTH 11 0
BBX 6 3 1 -4
BITMAP
9060
A1D0
2E40
ENDCHAR
STARTCHAR uni032F
ENCODING 815
SWIDTH 600 0
DWIDTH 11 0
BBX 6 3 1 -5
BITMAP
2F40
A1C0
C090
ENDCHAR
STARTCHAR uni0330
ENCODING 816
SWIDTH 600 0
DWIDTH 11 0
BBX 7 3 0 -4
BITMAP
0504
2B5C
60B4
ENDCHAR
STARTCHAR uni0331
ENCODING 817
SWIDTH 600 0
DWIDTH 11 0
BBX 5 1 1 -3
BITMAP
BFC0
ENDCHAR
STARTCHAR uni0334
ENCODING 820
SWIDTH 600 0
DWIDTH 11 0
BBX 7 3 2 3
BITMAP
1404
AA24
82E0
ENDCHAR
STARTCHAR uni0339
ENCODING 825
SWIDTH 600 0
DWIDTH 11 0
BBX 3 4 2 -5
BITMAP
34
0C
18
64
ENDCHAR
STARTCHAR uni033A
ENCODING 826
SWIDTH 600 0
DWIDTH 11 0
BBX 5 3 1 -4
BITMAP
1080
5080
BF80
ENDCHAR
STARTCHAR uni033B
ENCODING 827
SWIDTH 600 0
DWIDTH 11 0
BBX 5 3 1 -4
BITMAP
7FC0
5080
BF80
ENDCHAR
STARTCHAR uni033C
ENCODING 828
SWIDTH 600 0
DWIDTH 11 0
BBX 7 2 0 -4
BITMAP
2EB4
6358
ENDCHAR
STARTCHAR uni033D
ENCODING 829
SWIDTH 600 0
DWIDTH 11 0
BBX 3 3 5 10
BITMAP
58
74
98
ENDCHAR
STARTCHAR uni0342
ENCODING 834
SWIDTH 600 0
DWIDTH 11 0
BBX 7 3 3 10
BITMAP
0404
3B58
61E0
ENDCHAR
STARTCHAR uni0345
ENCODING 837
SWIDTH 600 0
DWIDTH 11 0
BBX 3 3 3 -4
BITMAP
A0
90
74
ENDCHAR
STARTCHAR uni035F
ENCODING 863
SWIDTH 600 0
DWIDTH 11 0
BBX 18 1 -5 -3
BITMAP
FFFFFFFFE0
ENDCHAR
STARTCHAR uni0361
ENCODING 865
SWIDTH 600 0
DWIDTH 11 0
BBX 17 3 -2 11
BITMAP
006BFE9000
1B94016D00
6400000240
ENDCHAR
STARTCHAR pi
ENCODING 960
SWIDTH 600 0
DWIDTH 11 0
BBX 10 9 1 0
BITMAP
BFFFE0
1C0A00
1C0A00
280D00
241C00
341C00
702800
A02800
A01E00
ENDCHAR
STARTCHAR a.sups
ENCODING 7491
SWIDTH 600 0
DWIDTH 11 0
BBX 6 6 3 7
BITMAP
1BA0
3470
A060
90A0
A1D0
7E80
ENDCHAR
STARTCHAR b.sups
ENCODING 7495
SWIDTH 600 0
DWIDTH 11 0
BBX 7 9 3 7
BITMAP
0400
1800
1800
2AE0
3870
3034
6030
A0A0
9F80
ENDCHAR
STARTCHAR d.sups
ENCODING 7496
SWIDTH 600 0
DWIDTH 11 0
BBX 7 9 3 7
BITMAP
0014
0028
0024
1BB0
7470
9060
9090
A1D0
7E80
ENDCHAR
STARTCHAR e.sups
ENCODING 7497
SWIDTH 600 0
DWIDTH 11 0
BBX 6 6 3 7
BITMAP
0BD0
2860
7030
BFF0
6040
2F80
ENDCHAR
STARTCHAR g.sups
ENCODING 7501
SWIDTH 600 0
DWIDTH 11 0
BBX 6 9 3 4
BITMAP
1BA0
3470
A060
9060
A1D0
7ED0
00C0
4280
BE00
ENDCHAR
STARTCHAR k.sups
ENCODING 7503
SWIDTH 600 0
DWIDTH 11 0
BBX 7 9 3 7
BITMAP
0500
0C00
0C00
1824
2890
2B80
39C0
30A0
6060
ENDCHAR
STARTCHAR m.sups
ENCODING 7504
SWIDTH 600 0
DWIDTH 11 0
BBX 10 6 1 7
BITMAP
1AE7C0
1D7490
247090
2460C0
3090C0
609180
ENDCHAR
STARTCHAR o.sups
ENCODING 7506
SWIDTH 600 0
DWIDTH 11 0
BBX 6 6 3 7
BITMAP
0BD0
3470
A030
9070
A1D0
2F40
ENDCHAR
STARTCHAR p.sups
ENCODING 7510
SWIDTH 600 0
DWIDTH 11 0
BBX 7 9 3 4
BITMAP
2AE0
2834
3024
7034
70A0
AF80
9000
C000
4000
ENDCHAR
STARTCHAR t.sups
ENCODING 7511
SWIDTH 600 0
DWIDTH 11 0
BBX 6 8 4 7
BITMAP
0800
1C00
FFD0
2400
2400
3000
3000
2F40
ENDCHAR
STARTCHAR u.sups
ENCODING 7512
SWIDTH 600 0
DWIDTH 11 0
BBX 7 6 3 7
BITMAP
3434
3030
6060
6060
A1D0
7E90
ENDCHAR
STARTCHAR v.sups
ENCODING 7515
SWIDTH 600 0
DWIDTH 11 0
BBX 6 6 4 7
BITMAP
C0D0
9180
9300
6A00
6C00
3400
ENDCHAR
STARTCHAR c.sups
ENCODING 7580
SWIDTH 600 0
DWIDTH 11 0
BBX 6 6 3 7
BITMAP
07E0
2810
3000
7000
3440
1F80
ENDCHAR
STARTCHAR f.sups
ENCODING 7584
SWIDTH 600 0
DWIDTH 11 0
BBX 7 9 4 7
BITMAP
02F4
0A10
0D00
7FD0
1C00
1800
2400
2400
3000
ENDCHAR
STARTCHAR z.sups
ENCODING 7611
SWIDTH 600 0
DWIDTH 11 0
BBX 6 6 3 7
BITMAP
2FF0
0090
0240
0900
2400
BFD0
ENDCHAR
STARTCHAR uni1E06
ENCODING 7686
SWIDTH 600 0
DWIDTH 11 0
BBX 10 15 0 -3
BITMAP
03FF40
0741E0
0700A0
0A00A0
0A01D0
0FAE00
1D5740
1C01D0
2C00D0
2801C0
340780
7FF900
000000
000000
1FF400
ENDCHAR
STARTCHAR uni1E07
ENCODING 7687
SWIDTH 600 0
DWIDTH 11 0
BBX 10 16 0 -3
BITMAP
034000
034000
070000
070000
0A6F40
0F82D0
0D00E0
1C00A0
1C00E0
2800D0
3802C0
3D0B40
72F800
000000
000000
1FF400
ENDCHAR
STARTCHAR uni1E0C
ENCODING 7692
SWIDTH 600 0
DWIDTH 11 0
BBX 10 16 0 -4
BITMAP
07FE00
0A07C0
0A00E0
0D00B0
0D0070
1C0070
2C00B0
2800A0
3401D0
340380
701E00
BFE400
000000
000000
074000
074000
ENDCHAR
STARTCHAR uni1E0D
ENCODING 7693
SWIDTH 600 0
DWIDTH 11 0
BBX 10 17 1 -4
BITMAP
0000A0
0000D0
0000D0
0001C0
06F9C0
1D0B80
740340
A00340
D00700
D00700
D00A00
B46E00
2F8D00
000000
000000
0B0000
0E0000
ENDCHAR
STARTCHAR uni1E0E
ENCODING 7694
SWIDTH 600 0
DWIDTH 11 0
BBX 10 15 0 -3
BITMAP
07FE00
0A07C0
0A00E0
0D00B0
0D0070
1C0070
2C00B0
2800A0
3401D0
340380
701E00
BFE400
000000
000000
2FF000
ENDCHAR
STARTCHAR uni1E0F
ENCODING 7695
SWIDTH 600 0
DWIDTH 11 0
BBX 10 16 1 -3
BITMAP
0000A0
0000D0
0000D0
0001C0
06F9C0
1D0B80
740340
A00340
D00700
D00700
D00A00
B46E00
2F8D00
000000
000000
7FD000
ENDCHAR
STARTCHAR uni1E10
ENCODING 7696
SWIDTH 600 0
DWIDTH 11 0
BBX 10 17 0 -5
BITMAP
07FE00
0A07C0
0A00E0
0D00B0
0D0070
1C0070
2C00B0
2800A0
3401D0
340380
701E00
BFE400
024000
078000
01C000
028000
1E0000
ENDCHAR
STARTCHAR uni1E11
ENCODING 7697
SWIDTH 600 0
DWIDTH 11 0
BBX 10 18 1 -5
BITMAP
0000A0
0000D0
0000D0
0001C0
06F9C0
1D0B80
740340
A00340
D00700
D00700
D00A00
B46E00
2F8D00
050000
0E0000
070000
0A0000
780000
ENDCHAR
STARTCHAR uni1E16
ENCODING 7702
SWIDTH 600 0
DWIDTH 11 0
BBX 10 17 1 0
BITMAP
000180
000600
000000
00BFC0
000000
0BFFE0
0D0000
0D0000
1C0000
1C0000
2FFE00
380000
340000
700000
700000
A00000
BFFE00
ENDCHAR
STARTCHAR uni1E17
ENCODING 7703
SWIDTH 600 0
DWIDTH 11 0
BBX 9 15 1 0
BITMAP
000600
001800
000000
02FF00
000000
000000
06F800
1E0B00
380340
B00340
BFFF40
A00000
A00000
781900
1BE400
ENDCHAR
STARTCHAR uni1E20
ENCODING 7712
SWIDTH 600 0
DWIDTH 11 0
BBX 9 14 1 0
BITMAP
00FF80
000000
01BE40
0741C0
1D0000
380000
700000
A00000
E03F80
E00340
A00340
700700
391A00
0BF800
ENDCHAR
STARTCHAR uni1E21
ENCODING 7713
SWIDTH 600 0
DWIDTH 11 0
BBX 10 16 0 -4
BITMAP
007FC0
000000
000000
01BE70
0742E0
1D00D0
2C00D0
3801C0
3401C0
380280
2D1B80
0BE340
000700
000A00
642D00
2FE000
ENDCHAR
STARTCHAR uni1E24
ENCODING 7716
SWIDTH 600 0
DWIDTH 11 0
BBX 11 16 0 -4
BITMAP
070034
0A0034
0A0070
0D00B0
1D00A0
1FFFD0
2800D0
2801C0
3402C0
740280
700380
A00340
000000
000000
078000
078000
ENDCHAR
STARTCHAR uni1E25
ENCODING 7717
SWIDTH 600 0
DWIDTH 11 0
BBX 10 17 0 -4
BITMAP
034000
034000
070000
070000
0A2F80
0E91D0
0E00E0
1C00D0
1C01D0
2801C0
340280
340280
700340
000000
000000
02C000
02C000
ENDCHAR
STARTCHAR uni1E26
ENCODING 7718
SWIDTH 600 0
DWIDTH 11 0
BBX 11 15 0 0
BITMAP
007090
0070D0
000000
070034
0A0034
0A0070
0D00B0
1D00A0
1FFFD0
2800D0
2801C0
3402C0
740280
700380
A00340
ENDCHAR
STARTCHAR uni1E27
ENCODING 7719
SWIDTH 600 0
DWIDTH 11 0
BBX 10 16 0 0
BITMAP
0D2800
0D2800
000000
034000
034000
070000
070000
0A2F80
0E91D0
0E00E0
1C00D0
1C01D0
2801C0
340280
340280
700340
ENDCHAR
STARTCHAR uni1E28
ENCODING 7720
SWIDTH 600 0
DWIDTH 11 0
BBX 13 17 -2 -5
BITMAP
00700340
00A00340
00A00700
00D00B00
01D00A00
01FFFD00
02800D00
02801C00
03402C00
07402800
07003800
0A003400
09000000
1E000000
07000000
0A000000
78000000
ENDCHAR
STARTCHAR uni1E29
ENCODING 7721
SWIDTH 600 0
DWIDTH 11 0
BBX 11 18 -1 -5
BITMAP
00D000
00D000
01C000
01C000
028BE0
03A474
038038
070034
070074
0A0070
0D00A0
0D00A0
1C00D0
180000
380000
1C0000
1C0000
E00000
ENDCHAR
STARTCHAR uni1E2A
ENCODING 7722
SWIDTH 600 0
DWIDTH 11 0
BBX 11 16 0 -4
BITMAP
070034
0A0034
0A0070
0D00B0
1D00A0
1FFFD0
2800D0
2801C0
3402C0
740280
700380
A00340
000000
241800
287400
0B9000
ENDCHAR
STARTCHAR uni1E2B
ENCODING 7723
SWIDTH 600 0
DWIDTH 11 0
BBX 10 17 0 -4
BITMAP
034000
034000
070000
070000
0A2F80
0E91D0
0E00E0
1C00D0
1C01D0
2801C0
340280
340280
700340
000000
180C00
1D2800
07E000
ENDCHAR
STARTCHAR uni1E32
ENCODING 7730
SWIDTH 600 0
DWIDTH 11 0
BBX 10 16 1 -4
BITMAP
0D00E0
1D0380
1C0E00
283800
28E000
3BE000
7EB000
783400
B02800
A01D00
D00E00
D00700
000000
000000
078000
078000
ENDCHAR
STARTCHAR uni1E33
ENCODING 7731
SWIDTH 600 0
DWIDTH 11 0
BBX 9 17 1 -4
BITMAP
0A0000
0E0000
0D0000
1C0000
1C02C0
280A00
387800
35E000
7BB000
7D3400
B02C00
A00D00
D00B00
000000
000000
074000
074000
ENDCHAR
STARTCHAR uni1E34
ENCODING 7732
SWIDTH 600 0
DWIDTH 11 0
BBX 10 15 1 -3
BITMAP
0D00E0
1D0380
1C0E00
283800
28E000
3BE000
7EB000
783400
B02800
A01D00
D00E00
D00700
000000
000000
2FF000
ENDCHAR
STARTCHAR uni1E35
ENCODING 7733
SWIDTH 600 0
DWIDTH 11 0
BBX 9 16 1 -3
BITMAP
0A0000
0E0000
0D0000
1C0000
1C02C0
280A00
387800
35E000
7BB000
7D3400
B02C00
A00D00
D00B00
000000
000000
2FF000
ENDCHAR
STARTCHAR uni1E36
ENCODING 7734
SWIDTH 600 0
DWIDTH 11 0
BBX 7 16 2 -4
BITMAP
0D00
0D00
1C00
2C00
2800
3400
3400
7000
B000
A000
E000
FFFC
0000
0000
0B00
0E00
ENDCHAR
STARTCHAR uni1E37
ENCODING 7735
SWIDTH 600 0
DWIDTH 11 0
BBX 6 17 2 -4
BITMAP
7FC0
0280
0380
0340
0700
0700
0A00
0D00
0D00
1C00
1C00
1D10
0BE0
0000
0000
0B40
0B40
ENDCHAR
STARTCHAR uni1E38
ENCODING 7736
SWIDTH 600 0
DWIDTH 11 0
BBX 7 18 2 -4
BITMAP
3FE0
0000
0D00
0D00
1C00
2C00
2800
3400
3400
7000
B000
A000
E000
FFFC
0000
0000
0B00
0E00
ENDCHAR
STARTCHAR uni1E39
ENCODING 7737
SWIDTH 600 0
DWIDTH 11 0
BBX 7 19 2 -4
BITMAP
0BFC
0000
7FC0
0280
0380
0340
0700
0700
0A00
0D00
0D00
1C00
1C00
1D10
0BE0
0000
0000
0B40
0B40
ENDCHAR
STARTCHAR uni1E3A
ENCODING 7738
SWIDTH 600 0
DWIDTH 11 0
BBX 7 15 2 -3
BITMAP
0D00
0D00
1C00
2C00
2800
3400
3400
7000
B000
A000
E000
FFFC
0000
0000
7FD0
ENDCHAR
STARTCHAR uni1E3B
ENCODING 7739
SWIDTH 600 0
DWIDTH 11 0
BBX 6 16 2 -3
BITMAP
7FC0
0280
0380
0340
0700
0700
0A00
0D00
0D00
1C00
1C00
1D10
0BE0
0000
0000
3FE0
ENDCHAR
STARTCHAR uni1E3E
ENCODING 7742
SWIDTH 600 0
DWIDTH 11 0
BBX 11 16 0 0
BITMAP
000080
000780
000900
000000
074078
0B80F4
0E81B0
0E83B0
1DCAA0
1CCDA0
28E8D0
34F0C0
3491C0
700280
700280
A00340
ENDCHAR
STARTCHAR uni1E3F
ENCODING 7743
SWIDTH 600 0
DWIDTH 11 0
BBX 11 14 0 0
BITMAP
000080
0003C0
000E00
001800
000000
19F2E0
2D3D74
283470
343070
3470A0
70A0E0
B0A0D0
A0D1C0
D0D1C0
ENDCHAR
STARTCHAR uni1E40
ENCODING 7744
SWIDTH 600 0
DWIDTH 11 0
BBX 11 15 0 0
BITMAP
000A00
000A00
000000
074078
0B80F4
0E81B0
0E83B0
1DCAA0
1CCDA0
28E8D0
34F0C0
3491C0
700280
700280
A00340
ENDCHAR
STARTCHAR uni1E41
ENCODING 7745
SWIDTH 600 0
DWIDTH 11 0
BBX 11 13 0 0
BITMAP
000E00
001E00
000000
000000
19F2E0
2D3D74
283470
343070
3470A0
70A0E0
B0A0D0
A0D1C0
D0D1C0
ENDCHAR
STARTCHAR uni1E42
ENCODING 7746
SWIDTH 600 0
DWIDTH 11 0
BBX 11 16 0 -4
BITMAP
074078
0B80F4
0E81B0
0E83B0
1DCAA0
1CCDA0
28E8D0
34F0C0
3491C0
700280
700280
A00340
000000
000000
078000
078000
ENDCHAR
STARTCHAR uni1E43
ENCODING 7747
SWIDTH 600 0
DWIDTH 11 0
BBX 11 13 0 -4
BITMAP
19F2E0
2D3D74
283470
343070
3470A0
70A0E0
B0A0D0
A0D1C0
D0D1C0
000000
000000
038000
038000
ENDCHAR
STARTCHAR uni1E44
ENCODING 7748
SWIDTH 600 0
DWIDTH 11 0
BBX 11 15 0 0
BITMAP
000A00
000A00
000000
074034
078034
0AC070
0DD060
0DA0A0
1C70D0
1C34D0
2829C0
341DC0
340E80
700B40
700740
ENDCHAR
STARTCHAR uni1E45
ENCODING 7749
SWIDTH 600 0
DWIDTH 11 0
BBX 10 13 0 0
BITMAP
000E00
000E00
000000
000000
092F80
0E91D0
0E00E0
1C00D0
1C01D0
2801C0
340280
340280
700340
ENDCHAR
STARTCHAR uni1E46
ENCODING 7750
SWIDTH 600 0
DWIDTH 11 0
BBX 11 16 0 -4
BITMAP
074034
078034
0AC070
0DD060
0DA0A0
1C70D0
1C34D0
2829C0
341DC0
340E80
700B40
700740
000000
000000
02C000
038000
ENDCHAR
STARTCHAR uni1E47
ENCODING 7751
SWIDTH 600 0
DWIDTH 11 0
BBX 10 13 0 -4
BITMAP
092F80
0E91D0
0E00E0
1C00D0
1C01D0
2801C0
340280
340280
700340
000000
000000
02C000
02C000
ENDCHAR
STARTCHAR uni1E48
ENCODING 7752
SWIDTH 600 0
DWIDTH 11 0
BBX 11 15 0 -3
BITMAP
074034
078034
0AC070
0DD060
0DA0A0
1C70D0
1C34D0
2829C0
341DC0
340E80
700B40
700740
000000
000000
1FF400
ENDCHAR
STARTCHAR uni1E49
ENCODING 7753
SWIDTH 600 0
DWIDTH 11 0
BBX 10 12 0 -3
BITMAP
092F80
0E91D0
0E00E0
1C00D0
1C01D0
2801C0
340280
340280
700340
000000
000000
1FF400
ENDCHAR
STARTCHAR uni1E52
ENCODING 7762
SWIDTH 600 0
DWIDTH 11 0
BBX 11 17 0 0
BITMAP
000090
000240
000000
007FD0
000000
00BE40
0381D0
0A00A0
1C0070
280074
340070
740070
7400A0
3400D0
380280
1D0B00
07F800
ENDCHAR
STARTCHAR uni1E53
ENCODING 7763
SWIDTH 600 0
DWIDTH 11 0
BBX 9 15 1 0
BITMAP
000600
001800
000000
02FF00
000000
000000
06F800
2D0A00
740340
E00340
D00340
D00740
D00A00
746C00
1FE000
ENDCHAR
STARTCHAR uni1E58
ENCODING 7768
SWIDTH 600 0
DWIDTH 11 0
BBX 10 15 0 0
BITMAP
000A00
000A00
000000
03FF40
0701E0
0B00B0
0A00B0
0E00E0
0D0680
1FFD00
1C2800
281C00
380D00
340B00
700740
ENDCHAR
STARTCHAR uni1E59
ENCODING 7769
SWIDTH 600 0
DWIDTH 11 0
BBX 8 13 2 0
BITMAP
00B4
00B4
0000
0000
287E
2640
3900
7400
7000
A000
A000
D000
D000
ENDCHAR
STARTCHAR uni1E5A
ENCODING 7770
SWIDTH 600 0
DWIDTH 11 0
BBX 10 16 0 -4
BITMAP
03FF40
0701E0
0B00B0
0A00B0
0E00E0
0D0680
1FFD00
1C2800
281C00
380D00
340B00
700740
000000
000000
02D000
02C000
ENDCHAR
STARTCHAR uni1E5B
ENCODING 7771
SWIDTH 600 0
DWIDTH 11 0
BBX 9 13 1 -4
BITMAP
0A1F80
099000
0E4000
1D0000
1C0000
280000
280000
340000
340000
000000
000000
B00000
E00000
ENDCHAR
STARTCHAR uni1E5C
ENCODING 7772
SWIDTH 600 0
DWIDTH 11 0
BBX 10 18 0 -4
BITMAP
007FD0
000000
03FF40
0701E0
0B00B0
0A00B0
0E00E0
0D0680
1FFD00
1C2800
281C00
380D00
340B00
700740
000000
000000
02D000
02C000
ENDCHAR
STARTCHAR uni1E5D
ENCODING 7773
SWIDTH 600 0
DWIDTH 11 0
BBX 9 16 1 -4
BITMAP
00FF80
000000
000000
0A1F80
099000
0E4000
1D0000
1C0000
280000
280000
340000
340000
000000
000000
B00000
E00000
ENDCHAR
STARTCHAR uni1E5E
ENCODING 7774
SWIDTH 600 0
DWIDTH 11 0
BBX 10 15 0 -3
BITMAP
03FF40
0701E0
0B00B0
0A00B0
0E00E0
0D0680
1FFD00
1C2800
281C00
380D00
340B00
700740
000000
000000
0FF400
ENDCHAR
STARTCHAR uni1E5F
ENCODING 7775
SWIDTH 600 0
DWIDTH 11 0
BBX 11 12 -1 -3
BITMAP
00A1F8
009900
00E400
01D000
01C000
028000
028000
034000
034000
000000
000000
7FD000
ENDCHAR
STARTCHAR uni1E60
ENCODING 7776
SWIDTH 600 0
DWIDTH 11 0
BBX 9 15 1 0
BITMAP
003800
003800
000000
02F900
0E0740
1C0000
1C0000
0E0000
07E000
00B800
001D00
000A00
400E00
E42C00
2FE000
ENDCHAR
STARTCHAR uni1E61
ENCODING 7777
SWIDTH 600 0
DWIDTH 11 0
BBX 8 13 1 0
BITMAP
0078
0074
0000
0000
07F9
1D0B
2800
1E40
06E4
002D
000E
A41D
2BE4
ENDCHAR
STARTCHAR uni1E62
ENCODING 7778
SWIDTH 600 0
DWIDTH 11 0
BBX 9 16 1 -4
BITMAP
02F900
0E0740
1C0000
1C0000
0E0000
07E000
00B800
001D00
000A00
400E00
E42C00
2FE000
000000
000000
0B4000
0B0000
ENDCHAR
STARTCHAR uni1E63
ENCODING 7779
SWIDTH 600 0
DWIDTH 11 0
BBX 8 13 1 -4
BITMAP
07F9
1D0B
2800
1E40
06E4
002D
000E
A41D
2BE4
0000
0000
0B40
0B00
ENDCHAR
STARTCHAR uni1E6C
ENCODING 7788
SWIDTH 600 0
DWIDTH 11 0
BBX 9 16 2 -4
BITMAP
FFFFC0
01C000
028000
028000
034000
074000
070000
0A0000
0A0000
0D0000
0D0000
1C0000
000000
000000
780000
780000
ENDCHAR
STARTCHAR uni1E6D
ENCODING 7789
SWIDTH 600 0
DWIDTH 11 0
BBX 9 16 1 -4
BITMAP
01C000
018000
028000
BFFF80
070000
070000
0A0000
0E0000
0D0000
0D0000
0E0500
06F900
000000
000000
02C000
038000
ENDCHAR
STARTCHAR uni1E6E
ENCODING 7790
SWIDTH 600 0
DWIDTH 11 0
BBX 10 15 1 -3
BITMAP
3FFFF0
007000
00A000
00A000
00D000
01D000
01C000
028000
028000
034000
034000
070000
000000
000000
BFC000
ENDCHAR
STARTCHAR uni1E6F
ENCODING 7791
SWIDTH 600 0
DWIDTH 11 0
BBX 9 15 1 -3
BITMAP
01C000
018000
028000
BFFF80
070000
070000
0A0000
0E0000
0D0000
0D0000
0E0500
06F900
000000
000000
1FF400
ENDCHAR
STARTCHAR uni1E7E
ENCODING 7806
SWIDTH 600 0
DWIDTH 11 0
BBX 9 16 2 -4
BITMAP
A001C0
A00380
B00700
700E00
701C00
703400
347000
34D000
35C000
374000
2F0000
2D0000
000000
000000
780000
780000
ENDCHAR
STARTCHAR uni1E7F
ENCODING 7807
SWIDTH 600 0
DWIDTH 11 0
BBX 10 13 1 -4
BITMAP
7001D0
340280
340700
280D00
1C2800
1C3400
0DA000
0AC000
0B4000
000000
000000
0E0000
1E0000
ENDCHAR
STARTCHAR Wgrave
ENCODING 7808
SWIDTH 600 0
DWIDTH 11 0
BBX 11 16 1 0
BITMAP
009000
00B400
001800
000000
700034
700070
7000A0
A09090
A0E0D0
A2A1C0
A36280
963340
9D3700
E83A00
F43D00
F03C00
ENDCHAR
STARTCHAR wgrave
ENCODING 7809
SWIDTH 600 0
DWIDTH 11 0
BBX 10 14 1 0
BITMAP
008000
00E000
007400
002400
000000
D05070
D1E0A0
D2A0D0
D36280
D66340
DD6700
DC6A00
F47C00
F07800
ENDCHAR
STARTCHAR Wacute
ENCODING 7810
SWIDTH 600 0
DWIDTH 11 0
BBX 11 16 1 0
BITMAP
000200
001E00
002400
000000
700034
700070
7000A0
A09090
A0E0D0
A2A1C0
A36280
963340
9D3700
E83A00
F43D00
F03C00
ENDCHAR
STARTCHAR wacute
ENCODING 7811
SWIDTH 600 0
DWIDTH 11 0
BBX 10 14 1 0
BITMAP
000500
001E00
007800
009000
000000
D05070
D1E0A0
D2A0D0
D36280
D66340
DD6700
DC6A00
F47C00
F07800
ENDCHAR
STARTCHAR Wdieresis
ENCODING 7812
SWIDTH 600 0
DWIDTH 11 0
BBX 11 15 1 0
BITMAP
01C340
01C340
000000
700034
700070
7000A0
A09090
A0E0D0
A2A1C0
A36280
963340
9D3700
E83A00
F43D00
F03C00
ENDCHAR
STARTCHAR wdieresis
ENCODING 7813
SWIDTH 600 0
DWIDTH 11 0
BBX 10 13 1 0
BITMAP
024A00
034A00
000000
000000
D05070
D1E0A0
D2A0D0
D36280
D66340
DD6700
DC6A00
F47C00
F07800
ENDCHAR
STARTCHAR uni1E8E
ENCODING 7822
SWIDTH 600 0
DWIDTH 11 0
BBX 9 15 2 0
BITMAP
00A000
00E000
000000
E002C0
B00740
700E00
342800
287000
1CD000
0E8000
0B0000
0A0000
0D0000
0D0000
1C0000
ENDCHAR
STARTCHAR uni1E8F
ENCODING 7823
SWIDTH 600 0
DWIDTH 11 0
BBX 12 17 -1 -4
BITMAP
000740
000740
000000
000000
07001D
034028
024070
0280D0
01C280
00C340
00DA00
00AC00
007400
00B000
01D000
078000
BD0000
ENDCHAR
STARTCHAR uni1E90
ENCODING 7824
SWIDTH 600 0
DWIDTH 11 0
BBX 11 15 0 0
BITMAP
001F00
007680
009080
0BFFF4
0000E0
0002C0
000740
001D00
003800
00A000
02C000
074000
0E0000
380000
BFFFC0
ENDCHAR
STARTCHAR uni1E91
ENCODING 7825
SWIDTH 600 0
DWIDTH 11 0
BBX 10 13 0 0
BITMAP
001E00
00B640
018080
000000
0FFFE0
000280
000A00
002800
00B000
02C000
0B4000
2D0000
7FFF40
ENDCHAR
STARTCHAR uni1E92
ENCODING 7826
SWIDTH 600 0
DWIDTH 11 0
BBX 11 16 0 -4
BITMAP
0BFFF4
0000E0
0002C0
000740
001D00
003800
00A000
02C000
074000
0E0000
380000
BFFFC0
000000
000000
02D000
02D000
ENDCHAR
STARTCHAR uni1E93
ENCODING 7827
SWIDTH 600 0
DWIDTH 11 0
BBX 10 13 0 -4
BITMAP
0FFFE0
000280
000A00
002800
00B000
02C000
0B4000
2D0000
7FFF40
000000
000000
02D000
02C000
ENDCHAR
STARTCHAR uni1E94
ENCODING 7828
SWIDTH 600 0
DWIDTH 11 0
BBX 11 15 0 -3
BITMAP
0BFFF4
0000E0
0002C0
000740
001D00
003800
00A000
02C000
074000
0E0000
380000
BFFFC0
000000
000000
0FF800
ENDCHAR
STARTCHAR uni1E95
ENCODING 7829
SWIDTH 600 0
DWIDTH 11 0
BBX 10 12 0 -3
BITMAP
0FFFE0
000280
000A00
002800
00B000
02C000
0B4000
2D0000
7FFF40
000000
000000
0FF400
ENDCHAR
STARTCHAR uni1E96
ENCODING 7830
SWIDTH 600 0
DWIDTH 11 0
BBX 10 16 0 -3
BITMAP
034000
034000
070000
070000
0A2F80
0E91D0
0E00E0
1C00D0
1C01D0
2801C0
340280
340280
700340
000000
000000
1FF400
ENDCHAR
STARTCHAR uni1E97
ENCODING 7831
SWIDTH 600 0
DWIDTH 11 0
BBX 9 15 1 0
BITMAP
070D00
0A1D00
000000
01C000
018000
028000
BFFF80
070000
070000
0A0000
0E0000
0D0000
0D0000
0E0500
06F900
ENDCHAR
STARTCHAR uni1E9E
ENCODING 7838
SWIDTH 600 0
DWIDTH 11 0
BBX 10 12 0 0
BITMAP
00BF80
0291E0
0700A0
0E0280
0D0A00
1C1E00
2C07C0
2800E0
3400A0
3400A0
7182C0
B0BE40
ENDCHAR
STARTCHAR uni1EA0
ENCODING 7840
SWIDTH 600 0
DWIDTH 11 0
BBX 9 16 0 -4
BITMAP
001E00
002A00
007700
00D700
01C300
034340
060340
0FFF80
280280
340280
A002C0
D001C0
000000
000000
02C000
038000
ENDCHAR
STARTCHAR uni1EA1
ENCODING 7841
SWIDTH 600 0
DWIDTH 11 0
BBX 9 13 1 -4
BITMAP
06F9C0
1D0B80
740340
A00340
D00700
D00700
D00A00
B46D00
2F8D00
000000
000000
0B0000
0E0000
ENDCHAR
STARTCHAR uni1EA2
ENCODING 7842
SWIDTH 600 0
DWIDTH 11 0
BBX 9 16 0 0
BITMAP
000E00
000740
000700
000900
001E00
002A00
007700
00D700
01C300
034340
060340
0FFF80
280280
340280
A002C0
D001C0
ENDCHAR
STARTCHAR uni1EA3
ENCODING 7843
SWIDTH 600 0
DWIDTH 11 0
BBX 9 14 1 0
BITMAP
003800
000D00
001D00
003400
000000
06F9C0
1D0B80
740340
A00340
D00700
D00700
D00A00
B46D00
2F8D00
ENDCHAR
STARTCHAR uni1EA4
ENCODING 7844
SWIDTH 600 0
DWIDTH 11 0
BBX 11 16 0 0
BITMAP
000008
001F64
002580
000000
001E00
002A00
007700
00D700
01C300
034340
060340
0FFF80
280280
340280
A002C0
D001C0
ENDCHAR
STARTCHAR uni1EA5
ENCODING 7845
SWIDTH 600 0
DWIDTH 11 0
BBX 10 14 1 0
BITMAP
000020
0000A0
007D80
018600
000000
06F9C0
1D0B80
740340
A00340
D00700
D00700
D00A00
B46D00
2F8D00
ENDCHAR
STARTCHAR uni1EA6
ENCODING 7846
SWIDTH 600 0
DWIDTH 11 0
BBX 9 16 0 0
BITMAP
018000
00AF40
002580
000000
001E00
002A00
007700
00D700
01C300
034340
060340
0FFF80
280280
340280
A002C0
D001C0
ENDCHAR
STARTCHAR uni1EA7
ENCODING 7847
SWIDTH 600 0
DWIDTH 11 0
BBX 9 14 1 0
BITMAP
080000
090000
027D00
018600
000000
06F9C0
1D0B80
740340
A00340
D00700
D00700
D00A00
B46D00
2F8D00
ENDCHAR
STARTCHAR uni1EA8
ENCODING 7848
SWIDTH 600 0
DWIDTH 11 0
BBX 11 16 0 0
BITMAP
000038
001F5C
0025B4
000000
001E00
002A00
007700
00D700
01C300
034340
060340
0FFF80
280280
340280
A002C0
D001C0
ENDCHAR
STARTCHAR uni1EA9
ENCODING 7849
SWIDTH 600 0
DWIDTH 11 0
BBX 10 14 1 0
BITMAP
0001D0
0000A0
007D90
018600
000000
06F9C0
1D0B80
740340
A00340
D00700
D00700
D00A00
B46D00
2F8D00
ENDCHAR
STARTCHAR uni1EAA
ENCODING 7850
SWIDTH 600 0
DWIDTH 11 0
BBX 10 17 0 0
BITMAP
002E20
0022D0
001F40
002580
000000
001E00
002A00
007700
00D700
01C300
034340
060340
0FFF80
280280
340280
A002C0
D001C0
ENDCHAR
STARTCHAR uni1EAB
ENCODING 7851
SWIDTH 600 0
DWIDTH 11 0
BBX 9 15 1 0
BITMAP
00A480
019B40
000000
007D00
018600
000000
06F9C0
1D0B80
740340
A00340
D00700
D00700
D00A00
B46D00
2F8D00
ENDCHAR
STARTCHAR uni1EAC
ENCODING 7852
SWIDTH 600 0
DWIDTH 11 0
BBX 10 19 0 -4
BITMAP
000F40
0039C0
009090
001E00
002A00
007700
00D700
01C300
034340
060340
0FFF80
280280
340280
A002C0
D001C0
000000
000000
02C000
038000
ENDCHAR
STARTCHAR uni1EAD
ENCODING 7853
SWIDTH 600 0
DWIDTH 11 0
BBX 9 17 1 -4
BITMAP
007D00
01DA00
024240
000000
06F9C0
1D0B80
740340
A00340
D00700
D00700
D00A00
B46D00
2F8D00
000000
000000
0B0000
0E0000
ENDCHAR
STARTCHAR uni1EAE
ENCODING 7854
SWIDTH 600 0
DWIDTH 11 0
BBX 10 17 0 0
BITMAP
000180
000600
0060A0
002F80
000000
001E00
002A00
007700
00D700
01C300
034340
060340
0FFF80
280280
340280
A002C0
D001C0
ENDCHAR
STARTCHAR uni1EAF
ENCODING 7855
SWIDTH 600 0
DWIDTH 11 0
BBX 9 16 1 0
BITMAP
000200
000A00
001800
024180
018740
00B900
000000
06F9C0
1D0B80
740340
A00340
D00700
D00700
D00A00
B46D00
2F8D00
ENDCHAR
STARTCHAR uni1EB0
ENCODING 7856
SWIDTH 600 0
DWIDTH 11 0
BBX 10 18 0 0
BITMAP
000800
000A00
000200
0060A0
002F80
000000
001E00
002A00
007700
00D700
01C300
034340
060340
0FFF80
280280
340280
A002C0
D001C0
ENDCHAR
STARTCHAR uni1EB1
ENCODING 7857
SWIDTH 600 0
DWIDTH 11 0
BBX 9 15 1 0
BITMAP
002000
003400
025980
018740
00B900
000000
06F9C0
1D0B80
740340
A00340
D00700
D00700
D00A00
B46D00
2F8D00
ENDCHAR
STARTCHAR uni1EB2
ENCODING 7858
SWIDTH 600 0
DWIDTH 11 0
BBX 10 18 0 0
BITMAP
000740
000280
000600
0060A0
002F80
000000
001E00
002A00
007700
00D700
01C300
034340
060340
0FFF80
280280
340280
A002C0
D001C0
ENDCHAR
STARTCHAR uni1EB3
ENCODING 7859
SWIDTH 600 0
DWIDTH 11 0
BBX 9 15 1 0
BITMAP
002D00
000A00
025980
018740
00B900
000000
06F9C0
1D0B80
740340
A00340
D00700
D00700
D00A00
B46D00
2F8D00
ENDCHAR
STARTCHAR uni1EB4
ENCODING 7860
SWIDTH 600 0
DWIDTH 11 0
BBX 10 17 0 0
BITMAP
002E20
0062E0
006090
002F80
000000
001E00
002A00
007700
00D700
01C300
034340
060340
0FFF80
280280
340280
A002C0
D001C0
ENDCHAR
STARTCHAR uni1EB5
ENCODING 7861
SWIDTH 600 0
DWIDTH 11 0
BBX 9 15 1 0
BITMAP
00A580
019B40
000000
028240
00BD00
000000
06F9C0
1D0B80
740340
A00340
D00700
D00700
D00A00
B46D00
2F8D00
ENDCHAR
STARTCHAR uni1EB6
ENCODING 7862
SWIDTH 600 0
DWIDTH 11 0
BBX 10 20 0 -4
BITMAP
006060
007090
002F40
000000
001E00
002A00
007700
00D700
01C300
034340
060340
0FFF80
280280
340280
A002C0
D001C0
000000
000000
02C000
038000
ENDCHAR
STARTCHAR uni1EB7
ENCODING 7863
SWIDTH 600 0
DWIDTH 11 0
BBX 9 17 1 -4
BITMAP
024180
018740
00BD00
000000
06F9C0
1D0B80
740340
A00340
D00700
D00700
D00A00
B46D00
2F8D00
000000
000000
0B0000
0E0000
ENDCHAR
STARTCHAR uni1EB8
ENCODING 7864
SWIDTH 600 0
DWIDTH 11 0
BBX 10 16 1 -4
BITMAP
0BFFE0
0D0000
0D0000
1C0000
1C0000
2FFE00
380000
340000
700000
700000
A00000
BFFE00
000000
000000
074000
074000
ENDCHAR
STARTCHAR uni1EB9
ENCODING 7865
SWIDTH 600 0
DWIDTH 11 0
BBX 9 13 1 -4
BITMAP
06F800
1E0B00
380340
B00340
BFFF40
A00000
A00000
781900
1BE400
000000
000000
0B4000
0B0000
ENDCHAR
STARTCHAR uni1EBA
ENCODING 7866
SWIDTH 600 0
DWIDTH 11 0
BBX 10 16 1 0
BITMAP
002D00
000A00
000A00
001800
0BFFE0
0D0000
0D0000
1C0000
1C0000
2FFE00
380000
340000
700000
700000
A00000
BFFE00
ENDCHAR
STARTCHAR uni1EBB
ENCODING 7867
SWIDTH 600 0
DWIDTH 11 0
BBX 9 14 1 0
BITMAP
003800
001D00
001C00
002400
000000
06F800
1E0B00
380340
B00340
BFFF40
A00000
A00000
781900
1BE400
ENDCHAR
STARTCHAR uni1EBC
ENCODING 7868
SWIDTH 600 0
DWIDTH 11 0
BBX 10 15 1 0
BITMAP
00BD60
0187D0
000000
0BFFE0
0D0000
0D0000
1C0000
1C0000
2FFE00
380000
340000
700000
700000
A00000
BFFE00
ENDCHAR
STARTCHAR uni1EBD
ENCODING 7869
SWIDTH 600 0
DWIDTH 11 0
BBX 9 13 1 0
BITMAP
005040
03B580
061F40
000000
06F800
1E0B00
380340
B00340
BFFF40
A00000
A00000
781900
1BE400
ENDCHAR
STARTCHAR uni1EBE
ENCODING 7870
SWIDTH 600 0
DWIDTH 11 0
BBX 11 16 1 0
BITMAP
000018
001E60
006180
000000
0BFFE0
0D0000
0D0000
1C0000
1C0000
2FFE00
380000
340000
700000
700000
A00000
BFFE00
ENDCHAR
STARTCHAR uni1EBF
ENCODING 7871
SWIDTH 600 0
DWIDTH 11 0
BBX 10 14 1 0
BITMAP
000020
000090
007D80
028600
000000
06F800
1E0B00
380340
B00340
BFFF40
A00000
A00000
781900
1BE400
ENDCHAR
STARTCHAR uni1EC0
ENCODING 7872
SWIDTH 600 0
DWIDTH 11 0
BBX 10 16 1 0
BITMAP
024000
00AE00
006180
000000
0BFFE0
0D0000
0D0000
1C0000
1C0000
2FFE00
380000
340000
700000
700000
A00000
BFFE00
ENDCHAR
STARTCHAR uni1EC1
ENCODING 7873
SWIDTH 600 0
DWIDTH 11 0
BBX 9 14 1 0
BITMAP
180000
0D0000
067C00
028600
000000
06F800
1E0B00
380340
B00340
BFFF40
A00000
A00000
781900
1BE400
ENDCHAR
STARTCHAR uni1EC2
ENCODING 7874
SWIDTH 600 0
DWIDTH 11 0
BBX 11 16 1 0
BITMAP
0000B4
001E24
0061E0
000000
0BFFE0
0D0000
0D0000
1C0000
1C0000
2FFE00
380000
340000
700000
700000
A00000
BFFE00
ENDCHAR
STARTCHAR uni1EC3
ENCODING 7875
SWIDTH 600 0
DWIDTH 11 0
BBX 10 14 1 0
BITMAP
0001D0
0000A0
007D80
028600
000000
06F800
1E0B00
380340
B00340
BFFF40
A00000
A00000
781900
1BE400
ENDCHAR
STARTCHAR uni1EC4
ENCODING 7876
SWIDTH 600 0
DWIDTH 11 0
BBX 10 17 1 0
BITMAP
003D60
0097C0
001E00
006180
000000
0BFFE0
0D0000
0D0000
1C0000
1C0000
2FFE00
380000
340000
700000
700000
A00000
BFFE00
ENDCHAR
STARTCHAR uni1EC5
ENCODING 7877
SWIDTH 600 0
DWIDTH 11 0
BBX 9 15 1 0
BITMAP
00A540
019F00
000000
007C00
018600
000000
06F800
1E0B00
380340
B00340
BFFF40
A00000
A00000
781900
1BE400
ENDCHAR
STARTCHAR uni1EC6
ENCODING 7878
SWIDTH 600 0
DWIDTH 11 0
BBX 10 19 1 -4
BITMAP
001F00
007680
008080
0BFFE0
0D0000
0D0000
1C0000
1C0000
2FFE00
380000
340000
700000
700000
A00000
BFFE00
000000
000000
074000
074000
ENDCHAR
STARTCHAR uni1EC7
ENCODING 7879
SWIDTH 600 0
DWIDTH 11 0
BBX 9 17 1 -4
BITMAP
007C00
01DA00
020200
000000
06F800
1E0B00
380340
B00340
BFFF40
A00000
A00000
781900
1BE400
000000
000000
0B4000
0B0000
ENDCHAR
STARTCHAR uni1EC8
ENCODING 7880
SWIDTH 600 0
DWIDTH 11 0
BBX 11 16 0 0
BITMAP
000E00
000740
000700
000900
03FFF4
001C00
002800
002800
003400
003400
007000
00B000
00A000
00D000
00D000
7FFF00
ENDCHAR
STARTCHAR uni1EC9
ENCODING 7881
SWIDTH 600 0
DWIDTH 11 0
BBX 7 14 2 0
BITMAP
0290
00A0
00A0
0280
0000
FF80
0340
0700
0700
0A00
0D00
0D00
0E10
07F4
ENDCHAR
STARTCHAR uni1ECA
ENCODING 7882
SWIDTH 600 0
DWIDTH 11 0
BBX 11 16 0 -4
BITMAP
03FFF4
001C00
002800
002800
003400
003400
007000
00B000
00A000
00D000
00D000
7FFF00
000000
000000
078000
078000
ENDCHAR
STARTCHAR uni1ECB
ENCODING 7883
SWIDTH 600 0
DWIDTH 11 0
BBX 7 17 2 -4
BITMAP
02D0
02D0
0000
0000
FF80
0340
0700
0700
0A00
0D00
0D00
0E10
07F4
0000
0000
0740
0740
ENDCHAR
STARTCHAR uni1ECC
ENCODING 7884
SWIDTH 600 0
DWIDTH 11 0
BBX 11 16 0 -4
BITMAP
00BE40
0381D0
0A00A0
1C0070
280074
340070
740070
7400A0
3400D0
380280
1D0B00
07F800
000000
000000
078000
078000
ENDCHAR
STARTCHAR uni1ECD
ENCODING 7885
SWIDTH 600 0
DWIDTH 11 0
BBX 9 13 1 -4
BITMAP
06F800
2D0A00
740340
E00340
D00340
D00740
D00A00
746C00
1FE000
000000
000000
1E0000
1E0000
ENDCHAR
STARTCHAR uni1ECE
ENCODING 7886
SWIDTH 600 0
DWIDTH 11 0
BBX 11 16 0 0
BITMAP
000E00
000740
000700
000900
00BE40
0381D0
0A00A0
1C0070
280074
340070
740070
7400A0
3400D0
380280
1D0B00
07F800
ENDCHAR
STARTCHAR uni1ECF
ENCODING 7887
SWIDTH 600 0
DWIDTH 11 0
BBX 9 14 1 0
BITMAP
007400
001C00
001C00
006400
000000
06F800
2D0A00
740340
E00340
D00340
D00740
D00A00
746C00
1FE000
ENDCHAR
STARTCHAR uni1ED0
ENCODING 7888
SWIDTH 600 0
DWIDTH 11 0
BBX 11 16 0 0
BITMAP
000008
001F64
002580
000000
00BE40
0381D0
0A00A0
1C0070
280074
340070
740070
7400A0
3400D0
380280
1D0B00
07F800
ENDCHAR
STARTCHAR uni1ED1
ENCODING 7889
SWIDTH 600 0
DWIDTH 11 0
BBX 10 14 1 0
BITMAP
000060
0000D0
00BA40
024600
000000
06F800
2D0A00
740340
E00340
D00340
D00740
D00A00
746C00
1FE000
ENDCHAR
STARTCHAR uni1ED2
ENCODING 7890
SWIDTH 600 0
DWIDTH 11 0
BBX 11 16 0 0
BITMAP
018000
00AF40
002580
000000
00BE40
0381D0
0A00A0
1C0070
280074
340070
740070
7400A0
3400D0
380280
1D0B00
07F800
ENDCHAR
STARTCHAR uni1ED3
ENCODING 7891
SWIDTH 600 0
DWIDTH 11 0
BBX 9 14 1 0
BITMAP
180000
0D0000
06B800
024600
000000
06F800
2D0A00
740340
E00340
D00340
D00740
D00A00
746C00
1FE000
ENDCHAR
STARTCHAR uni1ED4
ENCODING 7892
SWIDTH 600 0
DWIDTH 11 0
BBX 11 16 0 0
BITMAP
000038
001F5C
0025B4
000000
00BE40
0381D0
0A00A0
1C0070
280074
340070
740070
7400A0
3400D0
380280
1D0B00
07F800
ENDCHAR
STARTCHAR uni1ED5
ENCODING 7893
SWIDTH 600 0
DWIDTH 11 0
BBX 10 14 1 0
BITMAP
0002D0
000090
00B980
024600
000000
06F800
2D0A00
740340
E00340
D00340
D00740
D00A00
746C00
1FE000
ENDCHAR
STARTCHAR uni1ED6
ENCODING 7894
SWIDTH 600 0
DWIDTH 11 0
BBX 11 17 0 0
BITMAP
002E20
0022D0
001F40
002580
000000
00BE40
0381D0
0A00A0
1C0070
280074
340070
740070
7400A0
3400D0
380280
1D0B00
07F800
ENDCHAR
STARTCHAR uni1ED7
ENCODING 7895
SWIDTH 600 0
DWIDTH 11 0
BBX 9 15 1 0
BITMAP
00A540
015F00
000000
00B800
024600
000000
06F800
2D0A00
740340
E00340
D00340
D00740
D00A00
746C00
1FE000
ENDCHAR
STARTCHAR uni1ED8
ENCODING 7896
SWIDTH 600 0
DWIDTH 11 0
BBX 11 19 0 -4
BITMAP
000F40
0039C0
009090
00BE40
0381D0
0A00A0
1C0070
280074
340070
740070
7400A0
3400D0
380280
1D0B00
07F800
000000
000000
078000
078000
ENDCHAR
STARTCHAR uni1ED9
ENCODING 7897
SWIDTH 600 0
DWIDTH 11 0
BBX 9 17 1 -4
BITMAP
007C00
01DA00
020200
000000
06F800
2D0A00
740340
E00340
D00340
D00740
D00A00
746C00
1FE000
000000
000000
1E0000
1E0000
ENDCHAR
STARTCHAR uni1EDA
ENCODING 7898
SWIDTH 600 0
DWIDTH 11 0
BBX 12 16 0 0
BITMAP
000080
000789
000909
00000C
00BEA4
0381D0
0A00B0
1C0070
280074
340070
740070
7400A0
3400D0
380280
1D0B00
07F800
ENDCHAR
STARTCHAR uni1EDB
ENCODING 7899
SWIDTH 600 0
DWIDTH 11 0
BBX 10 14 1 0
BITMAP
000600
001E00
007860
005060
000090
06FA40
2D0B00
740340
E00340
D00340
D00740
D00A00
746C00
1FE000
ENDCHAR
STARTCHAR uni1EDC
ENCODING 7900
SWIDTH 600 0
DWIDTH 11 0
BBX 12 16 0 0
BITMAP
002400
001D09
000609
00000C
00BEA4
0381D0
0A00B0
1C0070
280074
340070
740070
7400A0
3400D0
380280
1D0B00
07F800
ENDCHAR
STARTCHAR uni1EDD
ENCODING 7901
SWIDTH 600 0
DWIDTH 11 0
BBX 10 14 1 0
BITMAP
008000
00E000
007460
001860
000090
06FA40
2D0B00
740340
E00340
D00340
D00740
D00A00
746C00
1FE000
ENDCHAR
STARTCHAR uni1EDE
ENCODING 7902
SWIDTH 600 0
DWIDTH 11 0
BBX 12 16 0 0
BITMAP
000E00
000749
000709
00090C
00BEA4
0381D0
0A00B0
1C0070
280074
340070
740070
7400A0
3400D0
380280
1D0B00
07F800
ENDCHAR
STARTCHAR uni1EDF
ENCODING 7903
SWIDTH 600 0
DWIDTH 11 0
BBX 10 14 1 0
BITMAP
007400
001C00
001C60
006460
000090
06FA40
2D0B00
740340
E00340
D00340
D00740
D00A00
746C00
1FE000
ENDCHAR
STARTCHAR uni1EE0
ENCODING 7904
SWIDTH 600 0
DWIDTH 11 0
BBX 12 15 0 0
BITMAP
01F8A9
024B89
00000C
00BEA4
0381D0
0A00B0
1C0070
280074
340070
740070
7400A0
3400D0
380280
1D0B00
07F800
ENDCHAR
STARTCHAR uni1EE1
ENCODING 7905
SWIDTH 600 0
DWIDTH 11 0
BBX 10 13 1 0
BITMAP
014100
0AA360
0C2D60
000090
06FA40
2D0B00
740340
E00340
D00340
D00740
D00A00
746C00
1FE000
ENDCHAR
STARTCHAR uni1EE2
ENCODING 7906
SWIDTH 600 0
DWIDTH 11 0
BBX 12 19 0 -4
BITMAP
000009
000009
00000C
00BEA4
0381D0
0A00B0
1C0070
280074
340070
740070
7400A0
3400D0
380280
1D0B00
07F800
000000
000000
078000
078000
ENDCHAR
STARTCHAR uni1EE3
ENCODING 7907
SWIDTH 600 0
DWIDTH 11 0
BBX 10 16 1 -4
BITMAP
000060
000060
000090
06FA40
2D0B00
740340
E00340
D00340
D00740
D00A00
746C00
1FE000
000000
000000
1E0000
1E0000
ENDCHAR
STARTCHAR uni1EE4
ENCODING 7908
SWIDTH 600 0
DWIDTH 11 0
BBX 10 16 1 -4
BITMAP
1C00D0
2800D0
2801C0
3401C0
740280
700340
A00340
A00700
A00A00
A00D00
742800
1BE000
000000
000000
1E0000
1E0000
ENDCHAR
STARTCHAR uni1EE5
ENCODING 7909
SWIDTH 600 0
DWIDTH 11 0
BBX 9 13 1 -4
BITMAP
380280
340280
700340
700340
A00700
E00A00
D01E00
E0AD00
7E4D00
000000
000000
0B0000
0E0000
ENDCHAR
STARTCHAR uni1EE6
ENCODING 7910
SWIDTH 600 0
DWIDTH 11 0
BBX 10 16 1 0
BITMAP
003800
001D00
001C00
002400
1C00D0
2800D0
2801C0
3401C0
740280
700340
A00340
A00700
A00A00
A00D00
742800
1BE000
ENDCHAR
STARTCHAR uni1EE7
ENCODING 7911
SWIDTH 600 0
DWIDTH 11 0
BBX 9 14 1 0
BITMAP
007400
001C00
001C00
006400
000000
380280
340280
700340
700340
A00700
E00A00
D01E00
E0AD00
7E4D00
ENDCHAR
STARTCHAR uni1EE8
ENCODING 7912
SWIDTH 600 0
DWIDTH 11 0
BBX 12 16 1 0
BITMAP
000200
001E06
002406
000009
1C00E0
2800D0
2801C0
340180
740280
700340
A00340
A00700
A00A00
A00D00
742800
1BE000
ENDCHAR
STARTCHAR uni1EE9
ENCODING 7913
SWIDTH 600 0
DWIDTH 11 0
BBX 11 14 1 0
BITMAP
000600
001E00
007818
005018
000034
3802E0
340280
700340
700340
A00700
E00B00
D01E00
E0AD00
7E4D00
ENDCHAR
STARTCHAR uni1EEA
ENCODING 7914
SWIDTH 600 0
DWIDTH 11 0
BBX 12 16 1 0
BITMAP
009000
007406
001806
000009
1C00E0
2800D0
2801C0
340180
740280
700340
A00340
A00700
A00A00
A00D00
742800
1BE000
ENDCHAR
STARTCHAR uni1EEB
ENCODING 7915
SWIDTH 600 0
DWIDTH 11 0
BBX 11 14 1 0
BITMAP
008000
00E000
007418
001818
000034
3802E0
340280
700340
700340
A00700
E00B00
D01E00
E0AD00
7E4D00
ENDCHAR
STARTCHAR uni1EEC
ENCODING 7916
SWIDTH 600 0
DWIDTH 11 0
BBX 12 16 1 0
BITMAP
003800
001D06
001C06
002409
1C00E0
2800D0
2801C0
340180
740280
700340
A00340
A00700
A00A00
A00D00
742800
1BE000
ENDCHAR
STARTCHAR uni1EED
ENCODING 7917
SWIDTH 600 0
DWIDTH 11 0
BBX 11 14 1 0
BITMAP
007400
001C00
001C18
006418
000034
3802E0
340280
700340
700340
A00700
E00B00
D01E00
E0AD00
7E4D00
ENDCHAR
STARTCHAR uni1EEE
ENCODING 7918
SWIDTH 600 0
DWIDTH 11 0
BBX 12 15 1 0
BITMAP
02F4D6
020B46
000009
1C00E0
2800D0
2801C0
340180
740280
700340
A00340
A00700
A00A00
A00D00
742800
1BE000
ENDCHAR
STARTCHAR uni1EEF
ENCODING 7919
SWIDTH 600 0
DWIDTH 11 0
BBX 11 13 1 0
BITMAP
014040
07B298
091E18
000034
3802E0
340280
700340
700340
A00700
E00B00
D01E00
E0AD00
7E4D00
ENDCHAR
STARTCHAR uni1EF0
ENCODING 7920
SWIDTH 600 0
DWIDTH 11 0
BBX 12 19 1 -4
BITMAP
000006
000006
000009
1C00E0
2800D0
2801C0
340180
740280
700340
A00340
A00700
A00A00
A00D00
742800
1BE000
000000
000000
1E0000
1E0000
ENDCHAR
STARTCHAR uni1EF1
ENCODING 7921
SWIDTH 600 0
DWIDTH 11 0
BBX 11 16 1 -4
BITMAP
000018
000018
000034
3802E0
340280
700340
700340
A00700
E00B00
D01E00
E0AD00
7E4D00
000000
000000
0B0000
0E0000
ENDCHAR
STARTCHAR Ygrave
ENCODING 7922
SWIDTH 600 0
DWIDTH 11 0
BBX 9 16 2 0
BITMAP
020000
02C000
009000
000000
E002C0
B00740
700E00
342800
287000
1CD000
0E8000
0B0000
0A0000
0D0000
0D0000
1C0000
ENDCHAR
STARTCHAR ygrave
ENCODING 7923
SWIDTH 600 0
DWIDTH 11 0
BBX 12 18 -1 -4
BITMAP
000800
000E00
000740
000240
000000
07001D
034028
024070
0280D0
01C280
00C340
00DA00
00AC00
007400
00B000
01D000
078000
BD0000
ENDCHAR
STARTCHAR uni1EF4
ENCODING 7924
SWIDTH 600 0
DWIDTH 11 0
BBX 9 16 2 -4
BITMAP
E002C0
B00740
700E00
342800
287000
1CD000
0E8000
0B0000
0A0000
0D0000
0D0000
1C0000
000000
000000
780000
780000
ENDCHAR
STARTCHAR uni1EF5
ENCODING 7925
SWIDTH 600 0
DWIDTH 11 0
BBX 12 13 -1 -4
BITMAP
07001D
034028
024070
0280D0
01C280
00C340
00DA00
00AC00
007400
00B000
01D000
078380
BD0780
ENDCHAR
STARTCHAR uni1EF6
ENCODING 7926
SWIDTH 600 0
DWIDTH 11 0
BBX 9 16 2 0
BITMAP
01D000
007000
00A000
018000
E002C0
B00740
700E00
342800
287000
1CD000
0E8000
0B0000
0A0000
0D0000
0D0000
1C0000
ENDCHAR
STARTCHAR uni1EF7
ENCODING 7927
SWIDTH 600 0
DWIDTH 11 0
BBX 12 18 -1 -4
BITMAP
000740
0001C0
000280
000600
000000
07001D
034028
024070
0280D0
01C280
00C340
00DA00
00AC00
007400
00B000
01D000
078000
BD0000
ENDCHAR
STARTCHAR uni1EF8
ENCODING 7928
SWIDTH 600 0
DWIDTH 11 0
BBX 9 15 2 0
BITMAP
0BD700
187D00
000000
E002C0
B00740
700E00
342800
287000
1CD000
0E8000
0B0000
0A0000
0D0000
0D0000
1C0000
ENDCHAR
STARTCHAR uni1EF9
ENCODING 7929
SWIDTH 600 0
DWIDTH 11 0
BBX 12 17 -1 -4
BITMAP
001404
007B28
0091E0
000000
07001D
034028
024070
0280D0
01C280
00C340
00DA00
00AC00
007400
00B000
01D000
078000
BD0000
ENDCHAR
STARTCHAR uni2007
ENCODING 8199
SWIDTH 600 0
DWIDTH 11 0
BBX 1 1 0 0
BITMAP
00
ENDCHAR
STARTCHAR uni2010
ENCODING 8208
SWIDTH 600 0
DWIDTH 11 0
BBX 9 1 1 5
BITMAP
7FFF40
ENDCHAR
STARTCHAR figuredash
ENCODING 8210
SWIDTH 600 0
DWIDTH 11 0
BBX 8 1 1 4
BITMAP
BFFF
ENDCHAR
STARTCHAR endash
ENCODING 8211
SWIDTH 600 0
DWIDTH 11 0
BBX 8 1 1 4
BITMAP
BFFF
ENDCHAR
STARTCHAR emdash
ENCODING 8212
SWIDTH 600 0
DWIDTH 11 0
BBX 12 1 -1 4
BITMAP
7FFFFE
ENDCHAR
STARTCHAR uni2015
ENCODING 8213
SWIDTH 600 0
DWIDTH 11 0
BBX 12 1 -1 4
BITMAP
7FFFFE
ENDCHAR
STARTCHAR uni2016
ENCODING 8214
SWIDTH 600 0
DWIDTH 11 0
BBX 5 18 3 -5
BITMAP
C1C0
C1C0
C1C0
C1C0
C1C0
C1C0
C1C0
C1C0
C1C0
C1C0
C1C0
C1C0
C1C0
C1C0
C1C0
C1C0
C1C0
C1C0
ENDCHAR
STARTCHAR underscoredbl
ENCODING 8215
SWIDTH 600 0
DWIDTH 11 0
BBX 10 3 -1 -4
BITMAP
7FFFD0
000000
BFFF80
ENDCHAR
STARTCHAR quoteleft
ENCODING 8216
SWIDTH 600 0
DWIDTH 11 0
BBX 5 6 4 7
BITMAP
0280
1D00
3400
7D00
7D00
3800
ENDCHAR
STARTCHAR quoteright
ENCODING 8217
SWIDTH 600 0
DWIDTH 11 0
BBX 4 6 4 7
BITMAP
1E
2F
2F
09
68
90
ENDCHAR
STARTCHAR quotesinglbase
ENCODING 8218
SWIDTH 600 0
DWIDTH 11 0
BBX 4 6 3 -3
BITMAP
2D
3E
2E
0D
68
90
ENDCHAR
STARTCHAR quotereversed
ENCODING 8219
SWIDTH 600 0
DWIDTH 11 0
BBX 4 6 4 7
BITMAP
2C
BD
B8
A0
74
18
ENDCHAR
STARTCHAR quotedblleft
ENCODING 8220
SWIDTH 600 0
DWIDTH 11 0
BBX 9 6 2 7
BITMAP
024280
1D0D00
342400
7D7D00
7D7D00
383C00
ENDCHAR
STARTCHAR quotedblright
ENCODING 8221
SWIDTH 600 0
DWIDTH 11 0
BBX 8 6 2 7
BITMAP
1E1E
2F2F
2F2F
090A
6828
9090
ENDCHAR
STARTCHAR quotedblbase
ENCODING 8222
SWIDTH 600 0
DWIDTH 11 0
BBX 8 6 2 -3
BITMAP
1E1E
2F2F
2F2F
090A
6828
9090
ENDCHAR
STARTCHAR dagger
ENCODING 8224
SWIDTH 600 0
DWIDTH 11 0
BBX 6 15 3 -2
BITMAP
0340
0300
0700
BFF0
0900
0900
0C00
1C00
1800
2800
2400
3000
7000
6000
5000
ENDCHAR
STARTCHAR daggerdbl
ENCODING 8225
SWIDTH 600 0
DWIDTH 11 0
BBX 8 15 1 -2
BITMAP
0024
0030
0030
0BFF
00A0
0090
00D0
00C0
01C0
0180
0240
7FF8
0300
0700
0600
ENDCHAR
STARTCHAR bullet
ENCODING 8226
SWIDTH 600 0
DWIDTH 11 0
BBX 6 5 2 2
BITMAP
1BD0
3FE0
7FF0
7FD0
2F40
ENDCHAR
STARTCHAR ellipsis
ENCODING 8230
SWIDTH 600 0
DWIDTH 11 0
BBX 11 3 -1 0
BITMAP
2C78B0
7DB8F4
3874E0
ENDCHAR
STARTCHAR uni202F
ENCODING 8239
SWIDTH 600 0
DWIDTH 11 0
BBX 1 1 0 0
BITMAP
00
ENDCHAR
STARTCHAR perthousand
ENCODING 8240
SWIDTH 600 0
DWIDTH 11 0
BBX 11 11 0 0
BITMAP
07D000
186000
186028
0F86E4
00A900
0A4000
2E0B80
A26490
827080
D73180
7D1E40
ENDCHAR
STARTCHAR uni2032
ENCODING 8242
SWIDTH 600 0
DWIDTH 11 0
BBX 3 5 5 8
BITMAP
28
34
30
60
90
ENDCHAR
STARTCHAR uni2033
ENCODING 8243
SWIDTH 600 0
DWIDTH 11 0
BBX 7 5 3 8
BITMAP
0C34
1C70
24A0
3090
60C0
ENDCHAR
STARTCHAR uni2035
ENCODING 8245
SWIDTH 600 0
DWIDTH 11 0
BBX 3 5 5 8
BITMAP
A0
70
30
24
18
ENDCHAR
STARTCHAR guilsinglleft
ENCODING 8249
SWIDTH 600 0
DWIDTH 11 0
BBX 5 7 3 1
BITMAP
0240
0A00
3800
B000
7400
2800
0800
ENDCHAR
STARTCHAR guilsinglright
ENCODING 8250
SWIDTH 600 0
DWIDTH 11 0
BBX 4 7 3 1
BITMAP
20
28
0D
0A
2D
70
80
ENDCHAR
STARTCHAR exclamdbl
ENCODING 8252
SWIDTH 600 0
DWIDTH 11 0
BBX 9 12 1 0
BITMAP
070380
0A0340
0A0700
0D0700
0C0A00
180900
240C00
000000
000000
742800
F87C00
B07800
ENDCHAR
STARTCHAR uni203D
ENCODING 8253
SWIDTH 600 0
DWIDTH 11 0
BBX 7 12 3 0
BITMAP
2F90
E074
0034
0D60
0D80
1D00
2800
0000
0000
7400
F800
B400
ENDCHAR
STARTCHAR uni203E
ENCODING 8254
SWIDTH 600 0
DWIDTH 11 0
BBX 9 1 2 10
BITMAP
BFFF80
ENDCHAR
STARTCHAR uni203F
ENCODING 8255
SWIDTH 600 0
DWIDTH 11 0
BBX 16 3 -4 -4
BITMAP
90000009
2E5005A4
01BFF900
ENDCHAR
STARTCHAR fraction
ENCODING 8260
SWIDTH 600 0
DWIDTH 11 0
BBX 12 11 -1 0
BITMAP
000006
00001D
000060
000080
000000
000000
000000
018000
0A0000
280000
600000
ENDCHAR
STARTCHAR uni2047
ENCODING 8263
SWIDTH 600 0
DWIDTH 11 0
BBX 11 12 0 0
BITMAP
1BD2F4
14B52C
00701C
00D034
0340D0
0D0340
1C0700
000000
000000
380E00
BC1F00
741D00
ENDCHAR
STARTCHAR uni2048
ENCODING 8264
SWIDTH 600 0
DWIDTH 11 0
BBX 10 12 0 0
BITMAP
1BD0B0
14B0A0
0070D0
00D0C0
034180
0D0280
1C0240
000000
000000
380B00
BC0F40
740E00
ENDCHAR
STARTCHAR uni2049
ENCODING 8265
SWIDTH 600 0
DWIDTH 11 0
BBX 10 12 1 0
BITMAP
0A0BD0
0A14B0
0D0070
1C00D0
180340
240D00
241C00
000000
000000
B03800
F47C00
E07400
ENDCHAR
STARTCHAR zero.sups
ENCODING 8304
SWIDTH 600 0
DWIDTH 11 0
BBX 6 7 3 7
BITMAP
0B80
28A0
6060
A060
9090
61C0
2E00
ENDCHAR
STARTCHAR i.sups
ENCODING 8305
SWIDTH 600 0
DWIDTH 11 0
BBX 5 8 4 7
BITMAP
0900
0000
FC00
1800
1800
2400
2400
1F40
ENDCHAR
STARTCHAR four.sups
ENCODING 8308
SWIDTH 600 0
DWIDTH 11 0
BBX 6 7 3 7
BITMAP
0140
0600
1880
20C0
BFE0
0140
0240
ENDCHAR
STARTCHAR five.sups
ENCODING 8309
SWIDTH 600 0
DWIDTH 11 0
BBX 6 7 3 7
BITMAP
0FF0
0C00
1800
2F80
1090
61D0
2F40
ENDCHAR
STARTCHAR six.sups
ENCODING 8310
SWIDTH 600 0
DWIDTH 11 0
BBX 6 7 3 7
BITMAP
07E0
1D10
3400
7B80
7490
3090
1F40
ENDCHAR
STARTCHAR seven.sups
ENCODING 8311
SWIDTH 600 0
DWIDTH 11 0
BBX 6 7 4 7
BITMAP
7FD0
0280
0600
0C00
2800
3000
7000
ENDCHAR
STARTCHAR eight.sups
ENCODING 8312
SWIDTH 600 0
DWIDTH 11 0
BBX 6 8 3 6
BITMAP
0BD0
1860
18A0
1F80
35C0
6090
61C0
2F40
ENDCHAR
STARTCHAR nine.sups
ENCODING 8313
SWIDTH 600 0
DWIDTH 11 0
BBX 6 7 3 7
BITMAP
0B80
2490
3060
34A0
1F90
1180
7E00
ENDCHAR
STARTCHAR parenleft.sups
ENCODING 8317
SWIDTH 600 0
DWIDTH 11 0
BBX 4 10 5 5
BITMAP
09
18
30
60
90
90
C0
90
90
50
ENDCHAR
STARTCHAR parenright.sups
ENCODING 8318
SWIDTH 600 0
DWIDTH 11 0
BBX 4 10 4 5
BITMAP
08
0C
09
09
09
0C
18
24
60
80
ENDCHAR
STARTCHAR n.sups
ENCODING 8319
SWIDTH 600 0
DWIDTH 11 0
BBX 7 6 3 7
BITMAP
2AE0
2934
3030
7030
6060
A0A0
ENDCHAR
STARTCHAR zero.subs
ENCODING 8320
SWIDTH 600 0
DWIDTH 11 0
BBX 6 7 2 -3
BITMAP
1F80
74D0
9090
C090
C0C0
D280
7E00
ENDCHAR
STARTCHAR one.subs
ENCODING 8321
SWIDTH 600 0
DWIDTH 11 0
BBX 6 7 1 -3
BITMAP
06D0
00C0
01C0
0180
0240
0240
7FF0
ENDCHAR
STARTCHAR two.subs
ENCODING 8322
SWIDTH 600 0
DWIDTH 11 0
BBX 5 7 2 -3
BITMAP
1F80
24C0
00C0
0280
0A00
2400
FF80
ENDCHAR
STARTCHAR three.subs
ENCODING 8323
SWIDTH 600 0
DWIDTH 11 0
BBX 5 7 2 -3
BITMAP
1F80
10C0
01C0
0F00
0280
9280
7E00
ENDCHAR
STARTCHAR four.subs
ENCODING 8324
SWIDTH 600 0
DWIDTH 11 0
BBX 6 7 2 -3
BITMAP
0200
0900
2580
6240
FFD0
0300
0300
ENDCHAR
STARTCHAR five.subs
ENCODING 8325
SWIDTH 600 0
DWIDTH 11 0
BBX 6 7 2 -3
BITMAP
1FD0
2400
2400
3F40
11C0
9180
7E00
ENDCHAR
STARTCHAR six.subs
ENCODING 8326
SWIDTH 600 0
DWIDTH 11 0
BBX 6 7 2 -3
BITMAP
0BD0
3840
6000
AF40
A1C0
A180
2E00
ENDCHAR
STARTCHAR seven.subs
ENCODING 8327
SWIDTH 600 0
DWIDTH 11 0
BBX 5 7 3 -3
BITMAP
FF80
0200
0900
1800
3000
6000
9000
ENDCHAR
STARTCHAR eight.subs
ENCODING 8328
SWIDTH 600 0
DWIDTH 11 0
BBX 6 8 2 -4
BITMAP
1B80
3490
25C0
2F40
A240
C180
9280
7E00
ENDCHAR
STARTCHAR nine.subs
ENCODING 8329
SWIDTH 600 0
DWIDTH 11 0
BBX 6 7 2 -3
BITMAP
1F40
31C0
6090
61D0
2EC0
4240
BD00
ENDCHAR
STARTCHAR parenleft.subs
ENCODING 8333
SWIDTH 600 0
DWIDTH 11 0
BBX 4 10 3 -5
BITMAP
02
09
18
24
30
60
60
60
30
20
ENDCHAR
STARTCHAR parenright.subs
ENCODING 8334
SWIDTH 600 0
DWIDTH 11 0
BBX 4 10 2 -5
BITMAP
05
06
06
03
06
06
09
0C
24
60
ENDCHAR
STARTCHAR uni0259.sups
ENCODING 8340
SWIDTH 600 0
DWIDTH 11 0
BBX 6 6 3 7
BITMAP
1F80
10A0
0070
7FE0
6090
2E40
ENDCHAR
STARTCHAR colonmonetary
ENCODING 8353
SWIDTH 600 0
DWIDTH 11 0
BBX 10 15 1 -2
BITMAP
000840
000940
00BF40
07A2D0
0E2500
285800
348800
709400
716000
722000
765100
2D9A00
0FE400
094000
110000
ENDCHAR
STARTCHAR franc
ENCODING 8355
SWIDTH 600 0
DWIDTH 11 0
BBX 11 11 0 0
BITMAP
01FFF8
02C000
028000
034000
034000
07FF80
0B0000
0A0000
7FF400
1D0000
1C0000
ENDCHAR
STARTCHAR lira
ENCODING 8356
SWIDTH 600 0
DWIDTH 11 0
BBX 10 11 0 0
BITMAP
006F90
00E0A0
028000
028000
1FFF40
018000
2FFF00
028000
034000
090000
7FFF40
ENDCHAR
STARTCHAR uni20A6
ENCODING 8358
SWIDTH 600 0
DWIDTH 11 0
BBX 10 11 0 0
BITMAP
02C060
039090
0290C0
0660C0
2FFFF0
093180
7FFFE0
0C2640
181700
181A00
240E00
ENDCHAR
STARTCHAR peseta
ENCODING 8359
SWIDTH 600 0
DWIDTH 11 0
BBX 10 11 1 0
BITMAP
0BFE00
0E0780
7FFFE0
1C0340
1C0700
281D00
3FE400
340000
740000
700000
A00000
ENDCHAR
STARTCHAR uni20A9
ENCODING 8361
SWIDTH 600 0
DWIDTH 11 0
BBX 10 11 1 0
BITMAP
2810A0
2870D0
28A0C0
24A180
256240
FFFFC0
362600
352900
386C00
786800
747400
ENDCHAR
STARTCHAR dong
ENCODING 8363
SWIDTH 600 0
DWIDTH 11 0
BBX 10 12 1 0
BITMAP
000240
00BFE0
000300
06EB00
1D1E00
340900
700D00
701C00
346C00
1FA800
000000
FFF800
ENDCHAR
STARTCHAR Euro
ENCODING 8364
SWIDTH 600 0
DWIDTH 11 0
BBX 11 11 0 0
BITMAP
001BE0
00A428
028000
070000
3FFF80
0E0000
7FFE00
0D0000
0A0040
0742C0
01FE40
ENDCHAR
STARTCHAR uni20AE
ENCODING 8366
SWIDTH 600 0
DWIDTH 11 0
BBX 9 11 2 0
BITMAP
7FFF40
01C000
028000
029800
079000
6B5400
4B9000
6E0000
4E0000
0D0000
1C0000
ENDCHAR
STARTCHAR uni20B1
ENCODING 8369
SWIDTH 600 0
DWIDTH 11 0
BBX 10 11 1 0
BITMAP
0BF900
0A0740
7FFFE0
0C0240
BFFFD0
281A00
2FF800
340000
700000
700000
A00000
ENDCHAR
STARTCHAR uni20B2
ENCODING 8370
SWIDTH 600 0
DWIDTH 11 0
BBX 9 15 1 -2
BITMAP
000C00
000C00
01BE40
0B41C0
1D0000
340000
700000
B03F40
A00300
A00700
700A00
381E00
1BE400
024000
030000
ENDCHAR
STARTCHAR uni20B4
ENCODING 8372
SWIDTH 600 0
DWIDTH 11 0
BBX 9 11 1 0
BITMAP
02FD00
060700
000340
000A00
7FFF80
06D000
BFFF40
380000
740000
381D00
1BE400
ENDCHAR
STARTCHAR uni20B5
ENCODING 8373
SWIDTH 600 0
DWIDTH 11 0
BBX 10 15 1 -2
BITMAP
000500
000800
00BF40
0799D0
0D1400
2C2400
343000
702000
706000
709000
749000
2DCA00
0BF800
018000
014000
ENDCHAR
STARTCHAR uni20B8
ENCODING 8376
SWIDTH 600 0
DWIDTH 11 0
BBX 9 11 2 0
BITMAP
7FFF40
000000
BFFF00
028000
034000
074000
070000
0A0000
0E0000
0D0000
1C0000
ENDCHAR
STARTCHAR uni20B9
ENCODING 8377
SWIDTH 600 0
DWIDTH 11 0
BBX 10 11 1 0
BITMAP
0FFFD0
002C00
000E00
2FFFC0
000D00
006800
7F9000
070000
028000
00E000
007400
ENDCHAR
STARTCHAR uni20BA
ENCODING 8378
SWIDTH 600 0
DWIDTH 11 0
BBX 9 11 1 0
BITMAP
034000
034500
07A400
1F4400
5AA400
1E4000
AD0240
1C0340
280B00
386D00
3F9000
ENDCHAR
STARTCHAR uni20BD
ENCODING 8381
SWIDTH 600 0
DWIDTH 11 0
BBX 11 11 0 0
BITMAP
00BFE0
00E078
00D028
01C028
02C1B0
3FFF80
034000
7FFFC0
070000
070000
0A0000
ENDCHAR
STARTCHAR uni2105
ENCODING 8453
SWIDTH 600 0
DWIDTH 11 0
BBX 12 11 -1 0
BITMAP
0BD006
28501C
300060
344080
1F8000
0002F4
004A18
024C1C
1D1818
741C74
100BD0
ENDCHAR
STARTCHAR uni2113
ENCODING 8467
SWIDTH 600 0
DWIDTH 11 0
BBX 8 13 2 0
BITMAP
00B8
0289
0309
070D
0A18
0D70
0D90
1E00
2800
B800
2800
2C60
0B90
ENDCHAR
STARTCHAR uni2116
ENCODING 8470
SWIDTH 600 0
DWIDTH 11 0
BBX 13 11 -1 0
BITMAP
07425E00
0B467240
0A4A9240
0D8D9240
1D8C9600
199C7C00
28D80000
34E8FC00
30E40000
70F00000
D0B00000
ENDCHAR
STARTCHAR uni2117
ENCODING 8471
SWIDTH 600 0
DWIDTH 11 0
BBX 11 12 0 0
BITMAP
00BF80
0740A0
0D0030
24BE14
20C254
50C714
51F924
524020
524060
200180
280B00
0BF800
ENDCHAR
STARTCHAR uni2120
ENCODING 8480
SWIDTH 600 0
DWIDTH 11 0
BBX 11 6 1 6
BITMAP
2E2834
6128B4
342A70
096620
865060
BD9090
ENDCHAR
STARTCHAR trademark
ENCODING 8482
SWIDTH 600 0
DWIDTH 11 0
BBX 11 5 1 7
BITMAP
BF9C28
0C28A4
1836A0
242730
206060
ENDCHAR
STARTCHAR uni2126
ENCODING 8486
SWIDTH 600 0
DWIDTH 11 0
BBX 12 12 -1 0
BITMAP
001FD0
00E074
02802C
07001D
0A000D
0D001D
1D001C
1C0028
0D0034
0900A0
070280
7F47F4
ENDCHAR
STARTCHAR estimated
ENCODING 8494
SWIDTH 600 0
DWIDTH 11 0
BBX 11 12 0 0
BITMAP
01F900
0A4640
2800D0
3800E0
7800F0
7800F4
7FFFF4
780000
380000
280080
090640
02F800
ENDCHAR
STARTCHAR uni2150
ENCODING 8528
SWIDTH 600 0
DWIDTH 11 0
BBX 12 11 -1 0
BITMAP
0B8006
02401D
034060
030080
060000
0007FC
000024
018060
0A00C0
280180
600240
ENDCHAR
STARTCHAR uni2151
ENCODING 8529
SWIDTH 600 0
DWIDTH 11 0
BBX 12 11 -1 0
BITMAP
0B8006
02401D
034060
030080
060000
0002E0
000A28
018928
0A07E4
280470
600B90
ENDCHAR
STARTCHAR uni2152
ENCODING 8530
SWIDTH 600 0
DWIDTH 11 0
BBX 10 11 1 0
BITMAP
2F0000
070000
0600A0
091B90
02A400
290000
002E00
F89240
24C200
34C600
307900
ENDCHAR
STARTCHAR onethird
ENCODING 8531
SWIDTH 600 0
DWIDTH 11 0
BBX 12 11 -1 0
BITMAP
0B8006
02401D
034060
030080
060000
0001F4
000128
018024
0A01E0
280834
6007E0
ENDCHAR
STARTCHAR twothirds
ENCODING 8532
SWIDTH 600 0
DWIDTH 11 0
BBX 12 12 -1 0
BITMAP
0B8000
14D006
00C01D
024060
190080
3FD000
0001F4
000128
018024
0A01E0
280834
6007E0
ENDCHAR
STARTCHAR uni2155
ENCODING 8533
SWIDTH 600 0
DWIDTH 11 0
BBX 12 11 -1 0
BITMAP
0B8006
02401D
034060
030080
060000
0002F8
000200
0187F0
0A0124
280834
6007D0
ENDCHAR
STARTCHAR uni2156
ENCODING 8534
SWIDTH 600 0
DWIDTH 11 0
BBX 12 12 -1 0
BITMAP
0B8000
14D006
00C01D
024060
190080
3FD000
0002F8
000200
0187F0
0A0124
280834
6007D0
ENDCHAR
STARTCHAR uni2157
ENCODING 8535
SWIDTH 600 0
DWIDTH 11 0
BBX 12 12 -1 0
BITMAP
0BD000
04A006
00901D
078060
20D080
1F8000
0002F8
000200
0187F0
0A0124
280834
6007D0
ENDCHAR
STARTCHAR uni2158
ENCODING 8536
SWIDTH 600 0
DWIDTH 11 0
BBX 12 12 -1 0
BITMAP
024000
060006
08401D
24C060
7FE080
014000
0002F8
000200
0187F0
0A0124
280834
6007D0
ENDCHAR
STARTCHAR uni2159
ENCODING 8537
SWIDTH 600 0
DWIDTH 11 0
BBX 12 11 -1 0
BITMAP
0B8006
02401D
034060
030080
060000
0001B8
000604
018AF0
0A0D28
280924
6007E0
ENDCHAR
STARTCHAR uni215A
ENCODING 8538
SWIDTH 600 0
DWIDTH 11 0
BBX 12 12 -1 0
BITMAP
0FE000
080006
1F801D
049060
20D080
1F4000
0001B8
000604
018AF0
0A0D28
280924
6007E0
ENDCHAR
STARTCHAR oneeighth
ENCODING 8539
SWIDTH 600 0
DWIDTH 11 0
BBX 12 11 -1 0
BITMAP
0B8006
02401D
034060
030080
060000
0002F4
000718
018364
0A03E0
280D34
600BE0
ENDCHAR
STARTCHAR threeeighths
ENCODING 8540
SWIDTH 600 0
DWIDTH 11 0
BBX 12 12 -1 0
BITMAP
0BD000
04A006
00901D
078060
20D080
1F8000
0002F4
000718
018364
0A03E0
280D34
600BE0
ENDCHAR
STARTCHAR fiveeighths
ENCODING 8541
SWIDTH 600 0
DWIDTH 11 0
BBX 12 12 -1 0
BITMAP
0FE000
080006
1F801D
049060
20D080
1F4000
0002F4
000718
018364
0A03E0
280D34
600BE0
ENDCHAR
STARTCHAR seveneighths
ENCODING 8542
SWIDTH 600 0
DWIDTH 11 0
BBX 12 12 -1 0
BITMAP
1FF000
009006
02801D
030060
0A0080
0D0000
0002F4
000718
018364
0A03E0
280D34
600BE0
ENDCHAR
STARTCHAR uni2189
ENCODING 8585
SWIDTH 600 0
DWIDTH 11 0
BBX 12 12 -1 0
BITMAP
07D000
187006
30301D
307060
349080
1F4000
0001F4
000128
018024
0A01E0
280834
6007E0
ENDCHAR
STARTCHAR uni2190
ENCODING 8592
SWIDTH 600 0
DWIDTH 11 0
BBX 11 9 0 0
BITMAP
00A000
028000
0A0000
280000
7FFFF4
280000
0A0000
028000
00A000
ENDCHAR
STARTCHAR arrowup
ENCODING 8593
SWIDTH 600 0
DWIDTH 11 0
BBX 9 10 1 0
BITMAP
018000
07E000
0DE800
35CA00
D1C280
41C040
01C000
01C000
01C000
01C000
ENDCHAR
STARTCHAR uni2192
ENCODING 8594
SWIDTH 600 0
DWIDTH 11 0
BBX 11 9 0 0
BITMAP
003400
001D00
000740
0000D0
7FFFF4
0000D0
000740
001D00
003400
ENDCHAR
STARTCHAR arrowdown
ENCODING 8595
SWIDTH 600 0
DWIDTH 11 0
BBX 9 10 1 0
BITMAP
01C000
01C000
01C000
01C000
41C040
D1C280
35CA00
0DE800
07E000
018000
ENDCHAR
STARTCHAR arrowboth
ENCODING 8596
SWIDTH 600 0
DWIDTH 11 0
BBX 11 7 0 1
BITMAP
0A0240
2800D0
600074
FFFFF8
600034
2800D0
0A0240
ENDCHAR
STARTCHAR arrowupdn
ENCODING 8597
SWIDTH 600 0
DWIDTH 11 0
BBX 8 11 1 -1
BITMAP
0180
07F4
29DD
61C2
01C0
01C0
01C0
61C2
29DD
07F4
0190
ENDCHAR
STARTCHAR uni2196
ENCODING 8598
SWIDTH 600 0
DWIDTH 11 0
BBX 8 7 1 1
BITMAP
7FFE
7D00
6B40
62D0
60B4
702D
200B
ENDCHAR
STARTCHAR uni2197
ENCODING 8599
SWIDTH 600 0
DWIDTH 11 0
BBX 8 7 1 1
BITMAP
3FFF
001F
0077
01D3
0743
1D03
7402
ENDCHAR
STARTCHAR uni2198
ENCODING 8600
SWIDTH 600 0
DWIDTH 11 0
BBX 8 8 1 1
BITMAP
1000
7402
1D03
0743
01D3
0077
001F
2FFF
ENDCHAR
STARTCHAR uni2199
ENCODING 8601
SWIDTH 600 0
DWIDTH 11 0
BBX 7 8 2 1
BITMAP
0004
801C
C074
C1D0
C740
DD00
F400
FFF8
ENDCHAR
STARTCHAR arrowupdnbse
ENCODING 8616
SWIDTH 600 0
DWIDTH 11 0
BBX 9 12 1 -2
BITMAP
01D000
0BF400
29CD00
61C200
01C000
01C000
01C000
61C200
29DD00
07F400
01D000
FFFF80
ENDCHAR
STARTCHAR uni21D0
ENCODING 8656
SWIDTH 600 0
DWIDTH 11 0
BBX 11 11 0 -1
BITMAP
001000
00D000
024000
0BFFF4
240000
600000
240000
0BFFF4
024000
00D000
001000
ENDCHAR
STARTCHAR uni21D1
ENCODING 8657
SWIDTH 600 0
DWIDTH 11 0
BBX 9 10 1 0
BITMAP
018000
07A000
0D2800
3D1E00
D91A80
491840
091800
091800
091800
091800
ENDCHAR
STARTCHAR uni21D2
ENCODING 8658
SWIDTH 600 0
DWIDTH 11 0
BBX 11 11 0 -1
BITMAP
001000
002800
000A00
7FFF80
0000A0
000034
0000A0
7FFF80
000A00
002800
001000
ENDCHAR
STARTCHAR uni21D3
ENCODING 8659
SWIDTH 600 0
DWIDTH 11 0
BBX 9 10 1 0
BITMAP
091800
091800
091800
091800
491840
D91A80
3D1E00
0D2800
07A000
018000
ENDCHAR
STARTCHAR uni2200
ENCODING 8704
SWIDTH 600 0
DWIDTH 11 0
BBX 10 12 1 0
BITMAP
7400B0
3400D0
3402C0
280740
2FFE00
280D00
182800
1C3400
1CA000
0DC000
0E8000
0F0000
ENDCHAR
STARTCHAR partialdiff
ENCODING 8706
SWIDTH 600 0
DWIDTH 11 0
BBX 9 12 1 0
BITMAP
01BD00
014740
000280
000280
000280
0BE680
381F40
A00700
D00A00
D01C00
E07400
2F8000
ENDCHAR
STARTCHAR uni2203
ENCODING 8707
SWIDTH 600 0
DWIDTH 11 0
BBX 10 12 0 0
BITMAP
0BFFE0
0000D0
0001D0
0001C0
000280
0BFF80
000340
000740
000700
000B00
000A00
FFFD00
ENDCHAR
STARTCHAR uni2206
ENCODING 8710
SWIDTH 600 0
DWIDTH 11 0
BBX 10 12 -1 0
BITMAP
000780
000E80
0019C0
0035C0
00A0C0
00D0D0
0280D0
0340A0
0A00A0
1C0070
280070
7FFFF0
ENDCHAR
STARTCHAR product
ENCODING 8719
SWIDTH 600 0
DWIDTH 11 0
BBX 9 13 1 -2
BITMAP
FFFF80
D00280
D00280
D00280
D00280
D00280
D00280
D00280
D00280
D00280
D00280
D00280
D00280
ENDCHAR
STARTCHAR summation
ENCODING 8721
SWIDTH 600 0
DWIDTH 11 0
BBX 9 13 1 -2
BITMAP
BFFF40
340000
1C0000
0A0000
038000
01D000
00A000
01D000
034000
0A0000
2C0000
740000
FFFF80
ENDCHAR
STARTCHAR minus
ENCODING 8722
SWIDTH 600 0
DWIDTH 11 0
BBX 9 1 1 5
BITMAP
7FFF40
ENDCHAR
STARTCHAR uni2215
ENCODING 8725
SWIDTH 600 0
DWIDTH 11 0
BBX 12 11 -1 0
BITMAP
000006
00001D
000060
000080
000000
000000
000000
018000
0A0000
280000
600000
ENDCHAR
STARTCHAR uni2219
ENCODING 8729
SWIDTH 600 0
DWIDTH 11 0
BBX 3 3 3 5
BITMAP
78
B8
B4
ENDCHAR
STARTCHAR radical
ENCODING 8730
SWIDTH 600 0
DWIDTH 11 0
BBX 10 16 1 -1
BITMAP
000090
0000C0
0000C0
000180
000240
000300
000300
040600
780900
4C0800
090C00
061800
031400
016000
00A000
00A000
ENDCHAR
STARTCHAR infinity
ENCODING 8734
SWIDTH 600 0
DWIDTH 11 0
BBX 11 6 0 3
BITMAP
2E07E0
A29824
C0A018
C0B018
A1A824
2E0BE0
ENDCHAR
STARTCHAR orthogonal
ENCODING 8735
SWIDTH 600 0
DWIDTH 11 0
BBX 9 8 1 2
BITMAP
600000
600000
600000
600000
600000
600000
600000
7FFF40
ENDCHAR
STARTCHAR intersection
ENCODING 8745
SWIDTH 600 0
DWIDTH 11 0
BBX 8 8 1 2
BITMAP
07E4
291D
3007
7003
7003
7003
7003
7003
ENDCHAR
STARTCHAR integral
ENCODING 8747
SWIDTH 600 0
DWIDTH 11 0
BBX 5 17 3 -3
BITMAP
0780
0D00
1C00
1C00
1C00
1C00
1C00
0C00
0D00
0D00
0900
0A00
0A00
0A00
0A00
0D00
B800
ENDCHAR
STARTCHAR uni2237
ENCODING 8759
SWIDTH 600 0
DWIDTH 11 0
BBX 9 10 1 1
BITMAP
1E0780
2F0BC0
2D0740
000000
000000
000000
000000
741D00
F83E00
B42D00
ENDCHAR
STARTCHAR approxequal
ENCODING 8776
SWIDTH 600 0
DWIDTH 11 0
BBX 8 6 1 3
BITMAP
2F82
61BD
0000
0000
2F82
61BD
ENDCHAR
STARTCHAR notequal
ENCODING 8800
SWIDTH 600 0
DWIDTH 11 0
BBX 9 9 1 1
BITMAP
000900
001800
7FFF40
009000
00C000
024000
7FFF40
090000
240000
ENDCHAR
STARTCHAR equivalence
ENCODING 8801
SWIDTH 600 0
DWIDTH 11 0
BBX 9 9 1 1
BITMAP
7FFF40
000000
000000
000000
7FFF40
000000
000000
000000
7FFF40
ENDCHAR
STARTCHAR lessequal
ENCODING 8804
SWIDTH 600 0
DWIDTH 11 0
BBX 9 10 1 0
BITMAP
000640
007900
1B8000
780000
1B8000
007900
000640
000000
000000
7FFF40
ENDCHAR
STARTCHAR greaterequal
ENCODING 8805
SWIDTH 600 0
DWIDTH 11 0
BBX 9 10 1 0
BITMAP
640000
1E4000
01B900
000B40
01B900
1E4000
600000
000000
000000
7FFF40
ENDCHAR
STARTCHAR house
ENCODING 8962
SWIDTH 600 0
DWIDTH 11 0
BBX 9 12 1 0
BITMAP
02D000
077000
0D2800
280D00
700740
D00280
C001C0
C001C0
C001C0
C001C0
C001C0
FFFFC0
ENDCHAR
STARTCHAR revlogicalnot
ENCODING 8976
SWIDTH 600 0
DWIDTH 11 0
BBX 9 5 1 1
BITMAP
7FFF40
600000
600000
600000
500000
ENDCHAR
STARTCHAR uni231C
ENCODING 8988
SWIDTH 600 0
DWIDTH 11 0
BBX 8 13 3 0
BITMAP
0BFD
0D00
0C00
1800
1800
2400
3400
3000
6000
6000
9000
D000
C000
ENDCHAR
STARTCHAR uni231D
ENCODING 8989
SWIDTH 600 0
DWIDTH 11 0
BBX 5 13 3 0
BITMAP
BFC0
00C0
0180
0180
0240
0340
0300
0600
0600
0900
0D00
0C00
1800
ENDCHAR
STARTCHAR uni231E
ENCODING 8990
SWIDTH 600 0
DWIDTH 11 0
BBX 6 13 2 -1
BITMAP
0200
0300
0600
0600
0900
0D00
0C00
1800
1800
2400
3400
3000
7FE0
ENDCHAR
STARTCHAR uni231F
ENCODING 8991
SWIDTH 600 0
DWIDTH 11 0
BBX 8 13 0 -1
BITMAP
0002
0006
0006
0009
000D
000C
0018
0018
0024
0034
0030
0060
7FE0
ENDCHAR
STARTCHAR integraltp
ENCODING 8992
SWIDTH 600 0
DWIDTH 11 0
BBX 4 22 4 -8
BITMAP
1F
38
34
30
70
70
70
70
70
70
70
70
70
70
70
70
70
70
70
70
70
10
ENDCHAR
STARTCHAR integralbt
ENCODING 8993
SWIDTH 600 0
DWIDTH 11 0
BBX 3 21 3 -3
BITMAP
08
1C
1C
1C
1C
1C
1C
1C
1C
1C
1C
1C
1C
1C
1C
1C
1C
1C
1C
28
F0
ENDCHAR
STARTCHAR uni2500
ENCODING 9472
SWIDTH 600 0
DWIDTH 11 0
BBX 13 1 -1 5
BITMAP
BFFFFF80
ENDCHAR
STARTCHAR uni2501
ENCODING 9473
SWIDTH 600 0
DWIDTH 11 0
BBX 13 3 -1 4
BITMAP
BFFFFF80
BFFFFF80
BFFFFF80
ENDCHAR
STARTCHAR uni2502
ENCODING 9474
SWIDTH 600 0
DWIDTH 11 0
BBX 2 25 4 -7
BITMAP
70
70
70
70
70
70
70
70
70
70
70
70
70
70
70
70
70
70
70
70
70
70
70
70
70
ENDCHAR
STARTCHAR uni2503
ENCODING 9475
SWIDTH 600 0
DWIDTH 11 0
BBX 3 25 4 -7
BITMAP
F8
F8
F8
F8
F8
F8
F8
F8
F8
F8
F8
F8
F8
F8
F8
F8
F8
F8
F8
F8
F8
F8
F8
F8
F8
ENDCHAR
STARTCHAR uni2504
ENCODING 9476
SWIDTH 600 0
DWIDTH 11 0
BBX 11 1 0 5
BITMAP
7CB9F4
ENDCHAR
STARTCHAR uni2505
ENCODING 9477
SWIDTH 600 0
DWIDTH 11 0
BBX 11 3 0 4
BITMAP
7CB9F4
7CB9F4
7CB9F4
ENDCHAR
STARTCHAR uni2506
ENCODING 9478
SWIDTH 600 0
DWIDTH 11 0
BBX 2 20 4 -5
BITMAP
70
70
70
70
70
00
00
60
70
70
70
70
00
00
60
70
70
70
70
10
ENDCHAR
STARTCHAR uni2507
ENCODING 9479
SWIDTH 600 0
DWIDTH 11 0
BBX 3 19 4 -4
BITMAP
F8
F8
F8
F8
F8
00
00
F8
F8
F8
F8
F8
00
00
F8
F8
F8
F8
F8
ENDCHAR
STARTCHAR uni2508
ENCODING 9480
SWIDTH 600 0
DWIDTH 11 0
BBX 11 1 0 5
BITMAP
B7DEB4
ENDCHAR
STARTCHAR uni2509
ENCODING 9481
SWIDTH 600 0
DWIDTH 11 0
BBX 11 3 0 4
BITMAP
B7DEB4
B7DEB4
B7DEB4
ENDCHAR
STARTCHAR uni250A
ENCODING 9482
SWIDTH 600 0
DWIDTH 11 0
BBX 2 21 4 -5
BITMAP
70
70
70
70
00
00
70
70
70
70
00
70
70
70
70
00
00
70
70
70
70
ENDCHAR
STARTCHAR uni250B
ENCODING 9483
SWIDTH 600 0
DWIDTH 11 0
BBX 3 21 4 -5
BITMAP
F8
F8
F8
F8
00
00
F8
F8
F8
F8
00
F8
F8
F8
F8
00
00
F8
F8
F8
F8
ENDCHAR
STARTCHAR uni250C
ENCODING 9484
SWIDTH 600 0
DWIDTH 11 0
BBX 8 13 4 -7
BITMAP
7FFE
7000
7000
7000
7000
7000
7000
7000
7000
7000
7000
7000
7000
ENDCHAR
STARTCHAR uni250D
ENCODING 9485
SWIDTH 600 0
DWIDTH 11 0
BBX 8 15 4 -8
BITMAP
7FFE
7FFE
7FFE
7000
7000
7000
7000
7000
7000
7000
7000
7000
7000
7000
1000
ENDCHAR
STARTCHAR uni250E
ENCODING 9486
SWIDTH 600 0
DWIDTH 11 0
BBX 8 13 4 -7
BITMAP
FFFE
F800
F800
F800
F800
F800
F800
F800
F800
F800
F800
F800
F800
ENDCHAR
STARTCHAR uni250F
ENCODING 9487
SWIDTH 600 0
DWIDTH 11 0
BBX 8 15 4 -8
BITMAP
FFFE
FFFE
FFFE
F800
F800
F800
F800
F800
F800
F800
F800
F800
F800
F800
5000
ENDCHAR
STARTCHAR uni2510
ENCODING 9488
SWIDTH 600 0
DWIDTH 11 0
BBX 7 13 -1 -7
BITMAP
BFFC
001C
001C
001C
001C
001C
001C
001C
001C
001C
001C
001C
001C
ENDCHAR
STARTCHAR uni2511
ENCODING 9489
SWIDTH 600 0
DWIDTH 11 0
BBX 7 15 -1 -8
BITMAP
BFFC
BFFC
BFFC
001C
001C
001C
001C
001C
001C
001C
001C
001C
001C
001C
0004
ENDCHAR
STARTCHAR uni2512
ENCODING 9490
SWIDTH 600 0
DWIDTH 11 0
BBX 8 13 -1 -7
BITMAP
BFFE
003E
003E
003E
003E
003E
003E
003E
003E
003E
003E
003E
003E
ENDCHAR
STARTCHAR uni2513
ENCODING 9491
SWIDTH 600 0
DWIDTH 11 0
BBX 8 15 -1 -8
BITMAP
BFFE
BFFE
BFFE
003E
003E
003E
003E
003E
003E
003E
003E
003E
003E
003E
0014
ENDCHAR
STARTCHAR uni2514
ENCODING 9492
SWIDTH 600 0
DWIDTH 11 0
BBX 8 13 4 5
BITMAP
7000
7000
7000
7000
7000
7000
7000
7000
7000
7000
7000
7000
7FFE
ENDCHAR
STARTCHAR uni2515
ENCODING 9493
SWIDTH 600 0
DWIDTH 11 0
BBX 8 15 4 4
BITMAP
1000
7000
7000
7000
7000
7000
7000
7000
7000
7000
7000
7000
7FFE
7FFE
7FFE
ENDCHAR
STARTCHAR uni2516
ENCODING 9494
SWIDTH 600 0
DWIDTH 11 0
BBX 8 13 4 5
BITMAP
F800
F800
F800
F800
F800
F800
F800
F800
F800
F800
F800
F800
FFFE
ENDCHAR
STARTCHAR uni2517
ENCODING 9495
SWIDTH 600 0
DWIDTH 11 0
BBX 8 15 4 4
BITMAP
5000
F800
F800
F800
F800
F800
F800
F800
F800
F800
F800
F800
FFFE
FFFE
FFFE
ENDCHAR
STARTCHAR uni2518
ENCODING 9496
SWIDTH 600 0
DWIDTH 11 0
BBX 7 13 -1 5
BITMAP
001C
001C
001C
001C
001C
001C
001C
001C
001C
001C
001C
001C
BFFC
ENDCHAR
STARTCHAR uni2519
ENCODING 9497
SWIDTH 600 0
DWIDTH 11 0
BBX 7 15 -1 4
BITMAP
0004
001C
001C
001C
001C
001C
001C
001C
001C
001C
001C
001C
BFFC
BFFC
BFFC
ENDCHAR
STARTCHAR uni251A
ENCODING 9498
SWIDTH 600 0
DWIDTH 11 0
BBX 8 13 -1 5
BITMAP
003E
003E
003E
003E
003E
003E
003E
003E
003E
003E
003E
003E
BFFE
ENDCHAR
STARTCHAR uni251B
ENCODING 9499
SWIDTH 600 0
DWIDTH 11 0
BBX 8 15 -1 4
BITMAP
0014
003E
003E
003E
003E
003E
003E
003E
003E
003E
003E
003E
BFFE
BFFE
BFFE
ENDCHAR
STARTCHAR uni251C
ENCODING 9500
SWIDTH 600 0
DWIDTH 11 0
BBX 8 25 4 -7
BITMAP
7000
7000
7000
7000
7000
7000
7000
7000
7000
7000
7000
7000
7FFE
7000
7000
7000
7000
7000
7000
7000
7000
7000
7000
7000
7000
ENDCHAR
STARTCHAR uni251D
ENCODING 9501
SWIDTH 600 0
DWIDTH 11 0
BBX 8 27 4 -8
BITMAP
1000
7000
7000
7000
7000
7000
7000
7000
7000
7000
7000
7000
7FFE
7FFE
7FFE
7000
7000
7000
7000
7000
7000
7000
7000
7000
7000
7000
1000
ENDCHAR
STARTCHAR uni251E
ENCODING 9502
SWIDTH 600 0
DWIDTH 11 0
BBX 8 25 4 -7
BITMAP
F800
F800
F800
F800
F800
F800
F800
F800
F800
F800
F800
F800
FFFE
7000
7000
7000
7000
7000
7000
7000
7000
7000
7000
7000
7000
ENDCHAR
STARTCHAR uni251F
ENCODING 9503
SWIDTH 600 0
DWIDTH 11 0
BBX 8 25 4 -7
BITMAP
7000
7000
7000
7000
7000
7000
7000
7000
7000
7000
7000
7000
FFFE
F800
F800
F800
F800
F800
F800
F800
F800
F800
F800
F800
F800
ENDCHAR
STARTCHAR uni2520
ENCODING 9504
SWIDTH 600 0
DWIDTH 11 0
BBX 8 25 4 -7
BITMAP
F800
F800
F800
F800
F800
F800
F800
F800
F800
F800
F800
F800
FFFE
F800
F800
F800
F800
F800
F800
F800
F800
F800
F800
F800
F800
ENDCHAR
STARTCHAR uni2521
ENCODING 9505
SWIDTH 600 0
DWIDTH 11 0
BBX 8 27 4 -8
BITMAP
5000
F800
F800
F800
F800
F800
F800
F800
F800
F800
F800
F800
FFFE
FFFE
FFFE
7000
7000
7000
7000
7000
7000
7000
7000
7000
7000
7000
1000
ENDCHAR
STARTCHAR uni2522
ENCODING 9506
SWIDTH 600 0
DWIDTH 11 0
BBX 8 27 4 -8
BITMAP
1000
7000
7000
7000
7000
7000
7000
7000
7000
7000
7000
7000
FFFE
FFFE
FFFE
F800
F800
F800
F800
F800
F800
F800
F800
F800
F800
F800
5000
ENDCHAR
STARTCHAR uni2523
ENCODING 9507
SWIDTH 600 0
DWIDTH 11 0
BBX 8 27 4 -8
BITMAP
5000
F800
F800
F800
F800
F800
F800
F800
F800
F800
F800
F800
FFFE
FFFE
FFFE
F800
F800
F800
F800
F800
F800
F800
F800
F800
F800
F800
5000
ENDCHAR
STARTCHAR uni2524
ENCODING 9508
SWIDTH 600 0
DWIDTH 11 0
BBX 7 25 -1 -7
BITMAP
001C
001C
001C
001C
001C
001C
001C
001C
001C
001C
001C
001C
BFFC
001C
001C
001C
001C
001C
001C
001C
001C
001C
001C
001C
001C
ENDCHAR
STARTCHAR uni2525
ENCODING 9509
SWIDTH 600 0
DWIDTH 11 0
BBX 7 27 -1 -8
BITMAP
0004
001C
001C
001C
001C
001C
001C
001C
001C
001C
001C
001C
BFFC
BFFC
BFFC
001C
001C
001C
001C
001C
001C
001C
001C
001C
001C
001C
0004
ENDCHAR
STARTCHAR uni2526
ENCODING 9510
SWIDTH 600 0
DWIDTH 11 0
BBX 8 25 -1 -7
BITMAP
003E
003E
003E
003E
003E
003E
003E
003E
003E
003E
003E
003E
BFFE
001C
001C
001C
001C
001C
001C
001C
001C
001C
001C
001C
001C
ENDCHAR
STARTCHAR uni2527
ENCODING 9511
SWIDTH 600 0
DWIDTH 11 0
BBX 8 25 -1 -7
BITMAP
001C
001C
001C
001C
001C
001C
001C
001C
001C
001C
001C
001C
BFFE
003E
003E
003E
003E
003E
003E
003E
003E
003E
003E
003E
003E
ENDCHAR
STARTCHAR uni2528
ENCODING 9512
SWIDTH 600 0
DWIDTH 11 0
BBX 8 25 -1 -7
BITMAP
003E
003E
003E
003E
003E
003E
003E
003E
003E
003E
003E
003E
BFFE
003E
003E
003E
003E
003E
003E
003E
003E
003E
003E
003E
003E
ENDCHAR
STARTCHAR uni2529
ENCODING 9513
SWIDTH 600 0
DWIDTH 11 0
BBX 8 27 -1 -8
BITMAP
0014
003E
003E
003E
003E
003E
003E
003E
003E
003E
003E
003E
BFFE
BFFE
BFFE
001C
001C
001C
001C
001C
001C
001C
001C
001C
001C
001C
0004
ENDCHAR
STARTCHAR uni252A
ENCODING 9514
SWIDTH 600 0
DWIDTH 11 0
BBX 8 27 -1 -8
BITMAP
0004
001C
001C
001C
001C
001C
001C
001C
001C
001C
001C
001C
BFFE
BFFE
BFFE
003E
003E
003E
003E
003E
003E
003E
003E
003E
003E
003E
0014
ENDCHAR
STARTCHAR uni252B
ENCODING 9515
SWIDTH 600 0
DWIDTH 11 0
BBX 8 27 -1 -8
BITMAP
0014
003E
003E
003E
003E
003E
003E
003E
003E
003E
003E
003E
BFFE
BFFE
BFFE
003E
003E
003E
003E
003E
003E
003E
003E
003E
003E
003E
0014
ENDCHAR
STARTCHAR uni252C
ENCODING 9516
SWIDTH 600 0
DWIDTH 11 0
BBX 13 13 -1 -7
BITMAP
BFFFFF80
001C0000
001C0000
001C0000
001C0000
001C0000
001C0000
001C0000
001C0000
001C0000
001C0000
001C0000
001C0000
ENDCHAR
STARTCHAR uni252D
ENCODING 9517
SWIDTH 600 0
DWIDTH 11 0
BBX 13 15 -1 -8
BITMAP
BFFC0000
BFFFFF80
BFFC0000
001C0000
001C0000
001C0000
001C0000
001C0000
001C0000
001C0000
001C0000
001C0000
001C0000
001C0000
00040000
ENDCHAR
STARTCHAR uni252E
ENCODING 9518
SWIDTH 600 0
DWIDTH 11 0
BBX 13 15 -1 -8
BITMAP
001FFF80
BFFFFF80
001FFF80
001C0000
001C0000
001C0000
001C0000
001C0000
001C0000
001C0000
001C0000
001C0000
001C0000
001C0000
00040000
ENDCHAR
STARTCHAR uni252F
ENCODING 9519
SWIDTH 600 0
DWIDTH 11 0
BBX 13 15 -1 -8
BITMAP
BFFFFF80
BFFFFF80
BFFFFF80
001C0000
001C0000
001C0000
001C0000
001C0000
001C0000
001C0000
001C0000
001C0000
001C0000
001C0000
00040000
ENDCHAR
STARTCHAR uni2530
ENCODING 9520
SWIDTH 600 0
DWIDTH 11 0
BBX 13 13 -1 -7
BITMAP
BFFFFF80
003E0000
003E0000
003E0000
003E0000
003E0000
003E0000
003E0000
003E0000
003E0000
003E0000
003E0000
003E0000
ENDCHAR
STARTCHAR uni2531
ENCODING 9521
SWIDTH 600 0
DWIDTH 11 0
BBX 13 15 -1 -8
BITMAP
BFFE0000
BFFFFF80
BFFE0000
003E0000
003E0000
003E0000
003E0000
003E0000
003E0000
003E0000
003E0000
003E0000
003E0000
003E0000
00140000
ENDCHAR
STARTCHAR uni2532
ENCODING 9522
SWIDTH 600 0
DWIDTH 11 0
BBX 13 15 -1 -8
BITMAP
003FFF80
BFFFFF80
003FFF80
003E0000
003E0000
003E0000
003E0000
003E0000
003E0000
003E0000
003E0000
003E0000
003E0000
003E0000
00140000
ENDCHAR
STARTCHAR uni2533
ENCODING 9523
SWIDTH 600 0
DWIDTH 11 0
BBX 13 15 -1 -8
BITMAP
BFFFFF80
BFFFFF80
BFFFFF80
003E0000
003E0000
003E0000
003E0000
003E0000
003E0000
003E0000
003E0000
003E0000
003E0000
003E0000
00140000
ENDCHAR
STARTCHAR uni2534
ENCODING 9524
SWIDTH 600 0
DWIDTH 11 0
BBX 13 13 -1 5
BITMAP
001C0000
001C0000
001C0000
001C0000
001C0000
001C0000
001C0000
001C0000
001C0000
001C0000
001C0000
001C0000
BFFFFF80
ENDCHAR
STARTCHAR uni2535
ENCODING 9525
SWIDTH 600 0
DWIDTH 11 0
BBX 13 15 -1 4
BITMAP
00040000
001C0000
001C0000
001C0000
001C0000
001C0000
001C0000
001C0000
001C0000
001C0000
001C0000
001C0000
BFFC0000
BFFFFF80
BFFC0000
ENDCHAR
STARTCHAR uni2536
ENCODING 9526
SWIDTH 600 0
DWIDTH 11 0
BBX 13 15 -1 4
BITMAP
00040000
001C0000
001C0000
001C0000
001C0000
001C0000
001C0000
001C0000
001C0000
001C0000
001C0000
001C0000
001FFF80
BFFFFF80
001FFF80
ENDCHAR
STARTCHAR uni2537
ENCODING 9527
SWIDTH 600 0
DWIDTH 11 0
BBX 13 15 -1 4
BITMAP
00040000
001C0000
001C0000
001C0000
001C0000
001C0000
001C0000
001C0000
001C0000
001C0000
001C0000
001C0000
BFFFFF80
BFFFFF80
BFFFFF80
ENDCHAR
STARTCHAR uni2538
ENCODING 9528
SWIDTH 600 0
DWIDTH 11 0
BBX 13 13 -1 5
BITMAP
003E0000
003E0000
003E0000
003E0000
003E0000
003E0000
003E0000
003E0000
003E0000
003E0000
003E0000
003E0000
BFFFFF80
ENDCHAR
STARTCHAR uni2539
ENCODING 9529
SWIDTH 600 0
DWIDTH 11 0
BBX 13 15 -1 4
BITMAP
00140000
003E0000
003E0000
003E0000
003E0000
003E0000
003E0000
003E0000
003E0000
003E0000
003E0000
003E0000
BFFE0000
BFFFFF80
BFFE0000
ENDCHAR
STARTCHAR uni253A
ENCODING 9530
SWIDTH 600 0
DWIDTH 11 0
BBX 13 15 -1 4
BITMAP
00140000
003E0000
003E0000
003E0000
003E0000
003E0000
003E0000
003E0000
003E0000
003E0000
003E0000
003E0000
003FFF80
BFFFFF80
003FFF80
ENDCHAR
STARTCHAR uni253B
ENCODING 9531
SWIDTH 600 0
DWIDTH 11 0
BBX 13 15 -1 4
BITMAP
00140000
003E0000
003E0000
003E0000
003E0000
003E0000
003E0000
003E0000
003E0000
003E0000
003E0000
003E0000
BFFFFF80
BFFFFF80
BFFFFF80
ENDCHAR
STARTCHAR uni253C
ENCODING 9532
SWIDTH 600 0
DWIDTH 11 0
BBX 13 25 -1 -7
BITMAP
001C0000
001C0000
001C0000
001C0000
001C0000
001C0000
001C0000
001C0000
001C0000
001C0000
001C0000
001C0000
BFFFFF80
001C0000
001C0000
001C0000
001C0000
001C0000
001C0000
001C0000
001C0000
001C0000
001C0000
001C0000
001C0000
ENDCHAR
STARTCHAR uni253D
ENCODING 9533
SWIDTH 600 0
DWIDTH 11 0
BBX 13 27 -1 -8
BITMAP
00040000
001C0000
001C0000
001C0000
001C0000
001C0000
001C0000
001C0000
001C0000
001C0000
001C0000
001C0000
BFFC0000
BFFFFF80
BFFC0000
001C0000
001C0000
001C0000
001C0000
001C0000
001C0000
001C0000
001C0000
001C0000
001C0000
001C0000
00040000
ENDCHAR
STARTCHAR uni253E
ENCODING 9534
SWIDTH 600 0
DWIDTH 11 0
BBX 13 27 -1 -8
BITMAP
00040000
001C0000
001C0000
001C0000
001C0000
001C0000
001C0000
001C0000
001C0000
001C0000
001C0000
001C0000
001FFF80
BFFFFF80
001FFF80
001C0000
001C0000
001C0000
001C0000
001C0000
001C0000
001C0000
001C0000
001C0000
001C0000
001C0000
00040000
ENDCHAR
STARTCHAR uni253F
ENCODING 9535
SWIDTH 600 0
DWIDTH 11 0
BBX 13 27 -1 -8
BITMAP
00040000
001C0000
001C0000
001C0000
001C0000
001C0000
001C0000
001C0000
001C0000
001C0000
001C0000
001C0000
BFFFFF80
BFFFFF80
BFFFFF80
001C0000
001C0000
001C0000
001C0000
001C0000
001C0000
001C0000
001C0000
001C0000
001C0000
001C0000
00040000
ENDCHAR
STARTCHAR uni2540
ENCODING 9536
SWIDTH 600 0
DWIDTH 11 0
BBX 13 25 -1 -7
BITMAP
003E0000
003E0000
003E0000
003E0000
003E0000
003E0000
003E0000
003E0000
003E0000
003E0000
003E0000
003E0000
BFFFFF80
001C0000
001C0000
001C0000
001C0000
001C0000
001C0000
001C0000
001C0000
001C0000
001C0000
001C0000
001C0000
ENDCHAR
STARTCHAR uni2541
ENCODING 9537
SWIDTH 600 0
DWIDTH 11 0
BBX 13 25 -1 -7
BITMAP
001C0000
001C0000
001C0000
001C0000
001C0000
001C0000
001C0000
001C0000
001C0000
001C0000
001C0000
001C0000
BFFFFF80
003E0000
003E0000
003E0000
003E0000
003E0000
003E0000
003E0000
003E0000
003E0000
003E0000
003E0000
003E0000
ENDCHAR
STARTCHAR uni2542
ENCODING 9538
SWIDTH 600 0
DWIDTH 11 0
BBX 13 25 -1 -7
BITMAP
003E0000
003E0000
003E0000
003E0000
003E0000
003E0000
003E0000
003E0000
003E0000
003E0000
003E0000
003E0000
BFFFFF80
003E0000
003E0000
003E0000
003E0000
003E0000
003E0000
003E0000
003E0000
003E0000
003E0000
003E0000
003E0000
ENDCHAR
STARTCHAR uni2543
ENCODING 9539
SWIDTH 600 0
DWIDTH 11 0
BBX 13 27 -1 -8
BITMAP
00140000
003E0000
003E0000
003E0000
003E0000
003E0000
003E0000
003E0000
003E0000
003E0000
003E0000
003E0000
BFFE0000
BFFFFF80
BFFE0000
001C0000
001C0000
001C0000
001C0000
001C0000
001C0000
001C0000
001C0000
001C0000
001C0000
001C0000
00040000
ENDCHAR
STARTCHAR uni2544
ENCODING 9540
SWIDTH 600 0
DWIDTH 11 0
BBX 13 27 -1 -8
BITMAP
00140000
003E0000
003E0000
003E0000
003E0000
003E0000
003E0000
003E0000
003E0000
003E0000
003E0000
003E0000
003FFF80
BFFFFF80
003FFF80
001C0000
001C0000
001C0000
001C0000
001C0000
001C0000
001C0000
001C0000
001C0000
001C0000
001C0000
00040000
ENDCHAR
STARTCHAR uni2545
ENCODING 9541
SWIDTH 600 0
DWIDTH 11 0
BBX 13 27 -1 -8
BITMAP
00040000
001C0000
001C0000
001C0000
001C0000
001C0000
001C0000
001C0000
001C0000
001C0000
001C0000
001C0000
BFFE0000
BFFFFF80
BFFE0000
003E0000
003E0000
003E0000
003E0000
003E0000
003E0000
003E0000
003E0000
003E0000
003E0000
003E0000
00140000
ENDCHAR
STARTCHAR uni2546
ENCODING 9542
SWIDTH 600 0
DWIDTH 11 0
BBX 13 27 -1 -8
BITMAP
00040000
001C0000
001C0000
001C0000
001C0000
001C0000
001C0000
001C0000
001C0000
001C0000
001C0000
001C0000
003FFF80
BFFFFF80
003FFF80
003E0000
003E0000
003E0000
003E0000
003E0000
003E0000
003E0000
003E0000
003E0000
003E0000
003E0000
00140000
ENDCHAR
STARTCHAR uni2547
ENCODING 9543
SWIDTH 600 0
DWIDTH 11 0
BBX 13 27 -1 -8
BITMAP
00140000
003E0000
003E0000
003E0000
003E0000
003E0000
003E0000
003E0000
003E0000
003E0000
003E0000
003E0000
BFFFFF80
BFFFFF80
BFFFFF80
001C0000
001C0000
001C0000
001C0000
001C0000
001C0000
001C0000
001C0000
001C0000
001C0000
001C0000
00040000
ENDCHAR
STARTCHAR uni2548
ENCODING 9544
SWIDTH 600 0
DWIDTH 11 0
BBX 13 27 -1 -8
BITMAP
00040000
001C0000
001C0000
001C0000
001C0000
001C0000
001C0000
001C0000
001C0000
001C0000
001C0000
001C0000
BFFFFF80
BFFFFF80
BFFFFF80
003E0000
003E0000
003E0000
003E0000
003E0000
003E0000
003E0000
003E0000
003E0000
003E0000
003E0000
00140000
ENDCHAR
STARTCHAR uni2549
ENCODING 9545
SWIDTH 600 0
DWIDTH 11 0
BBX 13 27 -1 -8
BITMAP
00140000
003E0000
003E0000
003E0000
003E0000
003E0000
003E0000
003E0000
003E0000
003E0000
003E0000
003E0000
BFFE0000
BFFFFF80
BFFE0000
003E0000
003E0000
003E0000
003E0000
003E0000
003E0000
003E0000
003E0000
003E0000
003E0000
003E0000
00140000
ENDCHAR
STARTCHAR uni254A
ENCODING 9546
SWIDTH 600 0
DWIDTH 11 0
BBX 13 27 -1 -8
BITMAP
00140000
003E0000
003E0000
003E0000
003E0000
003E0000
003E0000
003E0000
003E0000
003E0000
003E0000
003E0000
003FFF80
BFFFFF80
003FFF80
003E0000
003E0000
003E0000
003E0000
003E0000
003E0000
003E0000
003E0000
003E0000
003E0000
003E0000
00140000
ENDCHAR
STARTCHAR uni254B
ENCODING 9547
SWIDTH 600 0
DWIDTH 11 0
BBX 13 27 -1 -8
BITMAP
00140000
003E0000
003E0000
003E0000
003E0000
003E0000
003E0000
003E0000
003E0000
003E0000
003E0000
003E0000
BFFFFF80
BFFFFF80
BFFFFF80
003E0000
003E0000
003E0000
003E0000
003E0000
003E0000
003E0000
003E0000
003E0000
003E0000
003E0000
00140000
ENDCHAR
STARTCHAR uni254C
ENCODING 9548
SWIDTH 600 0
DWIDTH 11 0
BBX 9 1 1 5
BITMAP
BC1F40
ENDCHAR
STARTCHAR uni254D
ENCODING 9549
SWIDTH 600 0
DWIDTH 11 0
BBX 9 3 1 4
BITMAP
BC1F40
BC1F40
BC1F40
ENDCHAR
STARTCHAR uni254E
ENCODING 9550
SWIDTH 600 0
DWIDTH 11 0
BBX 2 16 4 -3
BITMAP
70
70
70
70
70
10
00
00
00
00
10
70
70
70
70
70
ENDCHAR
STARTCHAR uni254F
ENCODING 9551
SWIDTH 600 0
DWIDTH 11 0
BBX 3 16 4 -3
BITMAP
F8
F8
F8
F8
F8
00
00
00
00
00
A8
F8
F8
F8
F8
A8
ENDCHAR
STARTCHAR uni2550
ENCODING 9552
SWIDTH 600 0
DWIDTH 11 0
BBX 13 4 -1 3
BITMAP
BFFFFF80
00000000
00000000
BFFFFF80
ENDCHAR
STARTCHAR uni2551
ENCODING 9553
SWIDTH 600 0
DWIDTH 11 0
BBX 5 25 3 -7
BITMAP
A380
A380
A380
A380
A380
A380
A380
A380
A380
A380
A380
A380
A380
A380
A380
A380
A380
A380
A380
A380
A380
A380
A380
A380
A380
ENDCHAR
STARTCHAR uni2552
ENCODING 9554
SWIDTH 600 0
DWIDTH 11 0
BBX 8 15 4 -8
BITMAP
7FFE
7000
7000
7FFE
7000
7000
7000
7000
7000
7000
7000
7000
7000
7000
2000
ENDCHAR
STARTCHAR uni2553
ENCODING 9555
SWIDTH 600 0
DWIDTH 11 0
BBX 9 13 3 -7
BITMAP
BFFF80
A38000
A38000
A38000
A38000
A38000
A38000
A38000
A38000
A38000
A38000
A38000
A24000
ENDCHAR
STARTCHAR uni2554
ENCODING 9556
SWIDTH 600 0
DWIDTH 11 0
BBX 9 15 3 -8
BITMAP
BFFF80
A00000
A00000
A3FF80
A38000
A38000
A38000
A38000
A38000
A38000
A38000
A38000
A38000
A38000
514000
ENDCHAR
STARTCHAR uni2555
ENCODING 9557
SWIDTH 600 0
DWIDTH 11 0
BBX 7 15 -1 -8
BITMAP
BFFC
001C
001C
BFFC
001C
001C
001C
001C
001C
001C
001C
001C
001C
001C
0008
ENDCHAR
STARTCHAR uni2556
ENCODING 9558
SWIDTH 600 0
DWIDTH 11 0
BBX 9 13 -1 -7
BITMAP
BFFF80
00A380
00A380
00A380
00A380
00A380
00A380
00A380
00A380
00A380
00A380
00A380
00A240
ENDCHAR
STARTCHAR uni2557
ENCODING 9559
SWIDTH 600 0
DWIDTH 11 0
BBX 9 15 -1 -8
BITMAP
BFFF80
000380
000380
BFE380
00A380
00A380
00A380
00A380
00A380
00A380
00A380
00A380
00A380
00A380
005100
ENDCHAR
STARTCHAR uni2558
ENCODING 9560
SWIDTH 600 0
DWIDTH 11 0
BBX 8 15 4 3
BITMAP
2000
7000
7000
7000
7000
7000
7000
7000
7000
7000
7000
7FFE
7000
7000
7FFE
ENDCHAR
STARTCHAR uni2559
ENCODING 9561
SWIDTH 600 0
DWIDTH 11 0
BBX 9 13 3 5
BITMAP
A24000
A38000
A38000
A38000
A38000
A38000
A38000
A38000
A38000
A38000
A38000
A38000
BFFF80
ENDCHAR
STARTCHAR uni255A
ENCODING 9562
SWIDTH 600 0
DWIDTH 11 0
BBX 9 15 3 3
BITMAP
514000
A38000
A38000
A38000
A38000
A38000
A38000
A38000
A38000
A38000
A38000
A3FF80
A00000
A00000
BFFF80
ENDCHAR
STARTCHAR uni255B
ENCODING 9563
SWIDTH 600 0
DWIDTH 11 0
BBX 7 15 -1 3
BITMAP
0008
001C
001C
001C
001C
001C
001C
001C
001C
001C
001C
BFFC
001C
001C
BFFC
ENDCHAR
STARTCHAR uni255C
ENCODING 9564
SWIDTH 600 0
DWIDTH 11 0
BBX 9 13 -1 5
BITMAP
00A240
00A380
00A380
00A380
00A380
00A380
00A380
00A380
00A380
00A380
00A380
00A380
BFFF80
ENDCHAR
STARTCHAR uni255D
ENCODING 9565
SWIDTH 600 0
DWIDTH 11 0
BBX 9 15 -1 3
BITMAP
005100
00A380
00A380
00A380
00A380
00A380
00A380
00A380
00A380
00A380
00A380
BFE380
000380
000380
BFFF80
ENDCHAR
STARTCHAR uni255E
ENCODING 9566
SWIDTH 600 0
DWIDTH 11 0
BBX 8 26 4 -8
BITMAP
2000
7000
7000
7000
7000
7000
7000
7000
7000
7000
7000
7FFE
7000
7000
7FFE
7000
7000
7000
7000
7000
7000
7000
7000
7000
7000
2000
ENDCHAR
STARTCHAR uni255F
ENCODING 9567
SWIDTH 600 0
DWIDTH 11 0
BBX 9 25 3 -7
BITMAP
A24000
A38000
A38000
A38000
A38000
A38000
A38000
A38000
A38000
A38000
A38000
A38000
A3FF80
A38000
A38000
A38000
A38000
A38000
A38000
A38000
A38000
A38000
A38000
A38000
A24000
ENDCHAR
STARTCHAR uni2560
ENCODING 9568
SWIDTH 600 0
DWIDTH 11 0
BBX 9 26 3 -8
BITMAP
A14000
A38000
A38000
A38000
A38000
A38000
A38000
A38000
A38000
A38000
A38000
A3FF80
A00000
A00000
A3FF80
A38000
A38000
A38000
A38000
A38000
A38000
A38000
A38000
A38000
A38000
014000
ENDCHAR
STARTCHAR uni2561
ENCODING 9569
SWIDTH 600 0
DWIDTH 11 0
BBX 7 26 -1 -8
BITMAP
0008
001C
001C
001C
001C
001C
001C
001C
001C
001C
001C
BFFC
001C
001C
BFFC
001C
001C
001C
001C
001C
001C
001C
001C
001C
001C
0008
ENDCHAR
STARTCHAR uni2562
ENCODING 9570
SWIDTH 600 0
DWIDTH 11 0
BBX 9 26 -1 -8
BITMAP
00A380
00A380
00A380
00A380
00A380
00A380
00A380
00A380
00A380
00A380
00A380
00A380
BFE380
00A380
00A380
00A380
00A380
00A380
00A380
00A380
00A380
00A380
00A380
00A380
00A380
000100
ENDCHAR
STARTCHAR uni2563
ENCODING 9571
SWIDTH 600 0
DWIDTH 11 0
BBX 9 26 -1 -8
BITMAP
005380
00A380
00A380
00A380
00A380
00A380
00A380
00A380
00A380
00A380
00A380
BFE380
000380
000380
BFE380
00A380
00A380
00A380
00A380
00A380
00A380
00A380
00A380
00A380
00A380
005100
ENDCHAR
STARTCHAR uni2564
ENCODING 9572
SWIDTH 600 0
DWIDTH 11 0
BBX 13 15 -1 -8
BITMAP
BFFFFF80
00000000
00000000
BFFFFF80
001C0000
001C0000
001C0000
001C0000
001C0000
001C0000
001C0000
001C0000
001C0000
001C0000
00080000
ENDCHAR
STARTCHAR uni2565
ENCODING 9573
SWIDTH 600 0
DWIDTH 11 0
BBX 13 13 -1 -7
BITMAP
BFFFFF80
00A38000
00A38000
00A38000
00A38000
00A38000
00A38000
00A38000
00A38000
00A38000
00A38000
00A38000
00A24000
ENDCHAR
STARTCHAR uni2566
ENCODING 9574
SWIDTH 600 0
DWIDTH 11 0
BBX 13 15 -1 -8
BITMAP
BFFFFF80
00000000
00000000
BFE3FF80
00A38000
00A38000
00A38000
00A38000
00A38000
00A38000
00A38000
00A38000
00A38000
00A38000
00514000
ENDCHAR
STARTCHAR uni2567
ENCODING 9575
SWIDTH 600 0
DWIDTH 11 0
BBX 13 15 -1 3
BITMAP
00080000
001C0000
001C0000
001C0000
001C0000
001C0000
001C0000
001C0000
001C0000
001C0000
001C0000
BFFFFF80
00000000
00000000
BFFFFF80
ENDCHAR
STARTCHAR uni2568
ENCODING 9576
SWIDTH 600 0
DWIDTH 11 0
BBX 13 13 -1 5
BITMAP
00A24000
00A38000
00A38000
00A38000
00A38000
00A38000
00A38000
00A38000
00A38000
00A38000
00A38000
00A38000
BFFFFF80
ENDCHAR
STARTCHAR uni2569
ENCODING 9577
SWIDTH 600 0
DWIDTH 11 0
BBX 13 15 -1 3
BITMAP
00514000
00A38000
00A38000
00A38000
00A38000
00A38000
00A38000
00A38000
00A38000
00A38000
00A38000
BFE3FF80
00000000
00000000
BFFFFF80
ENDCHAR
STARTCHAR uni256A
ENCODING 9578
SWIDTH 600 0
DWIDTH 11 0
BBX 13 26 -1 -8
BITMAP
00080000
001C0000
001C0000
001C0000
001C0000
001C0000
001C0000
001C0000
001C0000
001C0000
001C0000
BFFFFF80
001C0000
001C0000
BFFFFF80
001C0000
001C0000
001C0000
001C0000
001C0000
001C0000
001C0000
001C0000
001C0000
001C0000
00080000
ENDCHAR
STARTCHAR uni256B
ENCODING 9579
SWIDTH 600 0
DWIDTH 11 0
BBX 13 25 -1 -7
BITMAP
00A24000
00A38000
00A38000
00A38000
00A38000
00A38000
00A38000
00A38000
00A38000
00A38000
00A38000
00A38000
BFFFFF80
00A38000
00A38000
00A38000
00A38000
00A38000
00A38000
00A38000
00A38000
00A38000
00A38000
00A38000
00A24000
ENDCHAR
STARTCHAR uni256C
ENCODING 9580
SWIDTH 600 0
DWIDTH 11 0
BBX 13 26 -1 -8
BITMAP
00514000
00A38000
00A38000
00A38000
00A38000
00A38000
00A38000
00A38000
00A38000
00A38000
00A38000
BFE3FF80
00000000
00000000
BFE3FF80
00A38000
00A38000
00A38000
00A38000
00A38000
00A38000
00A38000
00A38000
00A38000
00A38000
00514000
ENDCHAR
STARTCHAR uni256D
ENCODING 9581
SWIDTH 600 0
DWIDTH 11 0
BBX 8 13 4 -7
BITMAP
01BE
0B90
1D00
3800
3400
7000
7000
7000
7000
7000
7000
7000
7000
ENDCHAR
STARTCHAR uni256E
ENCODING 9582
SWIDTH 600 0
DWIDTH 11 0
BBX 7 13 -1 -7
BITMAP
BE00
06D0
00B4
0038
001C
001C
001C
001C
001C
001C
001C
001C
001C
ENDCHAR
STARTCHAR uni256F
ENCODING 9583
SWIDTH 600 0
DWIDTH 11 0
BBX 7 13 -1 5
BITMAP
001C
001C
001C
001C
001C
001C
001C
001C
001C
0038
00B4
06D0
BE00
ENDCHAR
STARTCHAR uni2570
ENCODING 9584
SWIDTH 600 0
DWIDTH 11 0
BBX 8 13 4 5
BITMAP
7000
7000
7000
7000
7000
7000
7000
7000
3400
3800
1D00
0B90
01BE
ENDCHAR
STARTCHAR uni2571
ENCODING 9585
SWIDTH 600 0
DWIDTH 11 0
BBX 11 22 0 -6
BITMAP
000018
000028
000074
0000B0
0001D0
0002C0
000740
000B00
000D00
002C00
003400
00B000
00D000
02C000
034000
0B0000
0D0000
2C0000
340000
B00000
E00000
C00000
ENDCHAR
STARTCHAR uni2572
ENCODING 9586
SWIDTH 600 0
DWIDTH 11 0
BBX 11 22 0 -6
BITMAP
C00000
E00000
B00000
340000
2C0000
0D0000
0B0000
034000
02C000
00D000
00B000
003400
002C00
000D00
000B00
000740
0002C0
0001D0
0000B0
000074
000028
000018
ENDCHAR
STARTCHAR uni2573
ENCODING 9587
SWIDTH 600 0
DWIDTH 11 0
BBX 11 22 0 -6
BITMAP
C00018
E00028
B00074
3800B0
2C01D0
0E02C0
0B0740
038B00
02DD00
00FC00
00B400
00B400
00FC00
02DD00
038B00
0B0740
0E02C0
2C01D0
3800B0
B00074
E00028
C00018
ENDCHAR
STARTCHAR uni2574
ENCODING 9588
SWIDTH 600 0
DWIDTH 11 0
BBX 7 1 -1 5
BITMAP
BFFC
ENDCHAR
STARTCHAR uni2575
ENCODING 9589
SWIDTH 600 0
DWIDTH 11 0
BBX 2 13 4 5
BITMAP
70
70
70
70
70
70
70
70
70
70
70
70
70
ENDCHAR
STARTCHAR uni2576
ENCODING 9590
SWIDTH 600 0
DWIDTH 11 0
BBX 8 1 4 5
BITMAP
7FFE
ENDCHAR
STARTCHAR uni2577
ENCODING 9591
SWIDTH 600 0
DWIDTH 11 0
BBX 2 13 4 -7
BITMAP
70
70
70
70
70
70
70
70
70
70
70
70
70
ENDCHAR
STARTCHAR uni2578
ENCODING 9592
SWIDTH 600 0
DWIDTH 11 0
BBX 7 3 -1 4
BITMAP
BFFC
BFFC
BFFC
ENDCHAR
STARTCHAR uni2579
ENCODING 9593
SWIDTH 600 0
DWIDTH 11 0
BBX 3 13 4 5
BITMAP
F8
F8
F8
F8
F8
F8
F8
F8
F8
F8
F8
F8
F8
ENDCHAR
STARTCHAR uni257A
ENCODING 9594
SWIDTH 600 0
DWIDTH 11 0
BBX 8 3 4 4
BITMAP
7FFE
7FFE
7FFE
ENDCHAR
STARTCHAR uni257B
ENCODING 9595
SWIDTH 600 0
DWIDTH 11 0
BBX 3 13 4 -7
BITMAP
F8
F8
F8
F8
F8
F8
F8
F8
F8
F8
F8
F8
F8
ENDCHAR
STARTCHAR uni257C
ENCODING 9596
SWIDTH 600 0
DWIDTH 11 0
BBX 13 3 -1 4
BITMAP
001AAA40
BFFFFF80
001AAA40
ENDCHAR
STARTCHAR uni257D
ENCODING 9597
SWIDTH 600 0
DWIDTH 11 0
BBX 3 25 4 -7
BITMAP
70
70
70
70
70
70
70
70
70
70
70
74
F8
F8
F8
F8
F8
F8
F8
F8
F8
F8
F8
F8
F8
ENDCHAR
STARTCHAR uni257E
ENCODING 9598
SWIDTH 600 0
DWIDTH 11 0
BBX 13 3 -1 4
BITMAP
6AA80000
BFFFFF80
6AA80000
ENDCHAR
STARTCHAR uni257F
ENCODING 9599
SWIDTH 600 0
DWIDTH 11 0
BBX 3 25 4 -7
BITMAP
F8
F8
F8
F8
F8
F8
F8
F8
F8
F8
F8
F8
F8
74
70
70
70
70
70
70
70
70
70
70
70
ENDCHAR
STARTCHAR uni2580
ENCODING 9600
SWIDTH 600 0
DWIDTH 11 0
BBX 11 13 0 5
BITMAP
FFFFF8
FFFFF8
FFFFF8
FFFFF8
FFFFF8
FFFFF8
FFFFF8
FFFFF8
FFFFF8
FFFFF8
FFFFF8
FFFFF8
FFFFF8
ENDCHAR
STARTCHAR uni2581
ENCODING 9601
SWIDTH 600 0
DWIDTH 11 0
BBX 11 3 0 -7
BITMAP
FFFFF8
FFFFF8
FFFFF8
ENDCHAR
STARTCHAR uni2582
ENCODING 9602
SWIDTH 600 0
DWIDTH 11 0
BBX 11 6 0 -7
BITMAP
FFFFF8
FFFFF8
FFFFF8
FFFFF8
FFFFF8
FFFFF8
ENDCHAR
STARTCHAR uni2583
ENCODING 9603
SWIDTH 600 0
DWIDTH 11 0
BBX 11 9 0 -7
BITMAP
FFFFF8
FFFFF8
FFFFF8
FFFFF8
FFFFF8
FFFFF8
FFFFF8
FFFFF8
FFFFF8
ENDCHAR
STARTCHAR uni2584
ENCODING 9604
SWIDTH 600 0
DWIDTH 11 0
BBX 11 12 0 -7
BITMAP
FFFFF8
FFFFF8
FFFFF8
FFFFF8
FFFFF8
FFFFF8
FFFFF8
FFFFF8
FFFFF8
FFFFF8
FFFFF8
FFFFF8
ENDCHAR
STARTCHAR uni2585
ENCODING 9605
SWIDTH 600 0
DWIDTH 11 0
BBX 11 16 0 -7
BITMAP
FFFFF8
FFFFF8
FFFFF8
FFFFF8
FFFFF8
FFFFF8
FFFFF8
FFFFF8
FFFFF8
FFFFF8
FFFFF8
FFFFF8
FFFFF8
FFFFF8
FFFFF8
FFFFF8
ENDCHAR
STARTCHAR uni2586
ENCODING 9606
SWIDTH 600 0
DWIDTH 11 0
BBX 11 19 0 -7
BITMAP
FFFFF8
FFFFF8
FFFFF8
FFFFF8
FFFFF8
FFFFF8
FFFFF8
FFFFF8
FFFFF8
FFFFF8
FFFFF8
FFFFF8
FFFFF8
FFFFF8
FFFFF8
FFFFF8
FFFFF8
FFFFF8
FFFFF8
ENDCHAR
STARTCHAR uni2587
ENCODING 9607
SWIDTH 600 0
DWIDTH 11 0
BBX 11 22 0 -7
BITMAP
FFFFF8
FFFFF8
FFFFF8
FFFFF8
FFFFF8
FFFFF8
FFFFF8
FFFFF8
FFFFF8
FFFFF8
FFFFF8
FFFFF8
FFFFF8
FFFFF8
FFFFF8
FFFFF8
FFFFF8
FFFFF8
FFFFF8
FFFFF8
FFFFF8
FFFFF8
ENDCHAR
STARTCHAR uni2588
ENCODING 9608
SWIDTH 600 0
DWIDTH 11 0
BBX 11 25 0 -7
BITMAP
FFFFF8
FFFFF8
FFFFF8
FFFFF8
FFFFF8
FFFFF8
FFFFF8
FFFFF8
FFFFF8
FFFFF8
FFFFF8
FFFFF8
FFFFF8
FFFFF8
FFFFF8
FFFFF8
FFFFF8
FFFFF8
FFFFF8
FFFFF8
FFFFF8
FFFFF8
FFFFF8
FFFFF8
FFFFF8
ENDCHAR
STARTCHAR uni2589
ENCODING 9609
SWIDTH 600 0
DWIDTH 11 0
BBX 10 25 0 -7
BITMAP
FFFFD0
FFFFD0
FFFFD0
FFFFD0
FFFFD0
FFFFD0
FFFFD0
FFFFD0
FFFFD0
FFFFD0
FFFFD0
FFFFD0
FFFFD0
FFFFD0
FFFFD0
FFFFD0
FFFFD0
FFFFD0
FFFFD0
FFFFD0
FFFFD0
FFFFD0
FFFFD0
FFFFD0
FFFFD0
ENDCHAR
STARTCHAR uni258A
ENCODING 9610
SWIDTH 600 0
DWIDTH 11 0
BBX 8 25 0 -7
BITMAP
FFFF
FFFF
FFFF
FFFF
FFFF
FFFF
FFFF
FFFF
FFFF
FFFF
FFFF
FFFF
FFFF
FFFF
FFFF
FFFF
FFFF
FFFF
FFFF
FFFF
FFFF
FFFF
FFFF
FFFF
FFFF
ENDCHAR
STARTCHAR uni258B
ENCODING 9611
SWIDTH 600 0
DWIDTH 11 0
BBX 7 25 0 -7
BITMAP
FFF8
FFF8
FFF8
FFF8
FFF8
FFF8
FFF8
FFF8
FFF8
FFF8
FFF8
FFF8
FFF8
FFF8
FFF8
FFF8
FFF8
FFF8
FFF8
FFF8
FFF8
FFF8
FFF8
FFF8
FFF8
ENDCHAR
STARTCHAR uni258C
ENCODING 9612
SWIDTH 600 0
DWIDTH 11 0
BBX 6 25 0 -7
BITMAP
FFD0
FFD0
FFD0
FFD0
FFD0
FFD0
FFD0
FFD0
FFD0
FFD0
FFD0
FFD0
FFD0
FFD0
FFD0
FFD0
FFD0
FFD0
FFD0
FFD0
FFD0
FFD0
FFD0
FFD0
FFD0
ENDCHAR
STARTCHAR uni258D
ENCODING 9613
SWIDTH 600 0
DWIDTH 11 0
BBX 4 25 0 -7
BITMAP
FF
FF
FF
FF
FF
FF
FF
FF
FF
FF
FF
FF
FF
FF
FF
FF
FF
FF
FF
FF
FF
FF
FF
FF
FF
ENDCHAR
STARTCHAR uni258E
ENCODING 9614
SWIDTH 600 0
DWIDTH 11 0
BBX 3 25 0 -7
BITMAP
F8
F8
F8
F8
F8
F8
F8
F8
F8
F8
F8
F8
F8
F8
F8
F8
F8
F8
F8
F8
F8
F8
F8
F8
F8
ENDCHAR
STARTCHAR uni258F
ENCODING 9615
SWIDTH 600 0
DWIDTH 11 0
BBX 2 25 0 -7
BITMAP
D0
D0
D0
D0
D0
D0
D0
D0
D0
D0
D0
D0
D0
D0
D0
D0
D0
D0
D0
D0
D0
D0
D0
D0
D0
ENDCHAR
STARTCHAR uni2590
ENCODING 9616
SWIDTH 600 0
DWIDTH 11 0
BBX 6 25 5 -7
BITMAP
BFE0
BFE0
BFE0
BFE0
BFE0
BFE0
BFE0
BFE0
BFE0
BFE0
BFE0
BFE0
BFE0
BFE0
BFE0
BFE0
BFE0
BFE0
BFE0
BFE0
BFE0
BFE0
BFE0
BFE0
BFE0
ENDCHAR
STARTCHAR uni2591
ENCODING 9617
SWIDTH 600 0
DWIDTH 11 0
BBX 11 25 -1 -8
BITMAP
090C14
000400
508040
000000
090C28
000000
504040
050814
050814
504040
000000
090C28
000000
508040
040414
090814
004040
004040
090814
040414
508040
000000
090C28
000000
508040
ENDCHAR
STARTCHAR uni2592
ENCODING 9618
SWIDTH 600 0
DWIDTH 11 0
BBX 11 25 -1 -8
BITMAP
0E1D28
0A1D28
A0C180
050814
0E2D3C
544454
508180
0E1D28
0E1D28
508180
544454
0E2D3C
050814
A0C180
091828
0E1D3C
508140
508140
0E1D3C
091828
A0C180
050814
0E2D3C
044414
50C180
ENDCHAR
STARTCHAR uni2593
ENCODING 9619
SWIDTH 600 0
DWIDTH 11 0
BBX 12 26 -1 -8
BITMAP
1E2D3C
2F7E7D
5E6D68
F1E2C0
6FAEBC
2F7E7D
AAAAA8
F5E6D4
2F7E7D
2F7E7D
F5E6D4
AAAAA8
2F7E7D
6FAEBC
F5E6D0
6F7E7D
2F7E7D
AAEAE8
AAEAE8
2F7E7D
6F7E7D
F5E6D0
6FAEBC
2F7E7D
BAEBE8
A1D2C0
ENDCHAR
STARTCHAR uni2594
ENCODING 9620
SWIDTH 600 0
DWIDTH 11 0
BBX 11 3 0 15
BITMAP
FFFFF8
FFFFF8
FFFFF8
ENDCHAR
STARTCHAR uni2595
ENCODING 9621
SWIDTH 600 0
DWIDTH 11 0
BBX 2 25 9 -7
BITMAP
A0
A0
A0
A0
A0
A0
A0
A0
A0
A0
A0
A0
A0
A0
A0
A0
A0
A0
A0
A0
A0
A0
A0
A0
A0
ENDCHAR
STARTCHAR uni2596
ENCODING 9622
SWIDTH 600 0
DWIDTH 11 0
BBX 6 12 0 -7
BITMAP
FFD0
FFD0
FFD0
FFD0
FFD0
FFD0
FFD0
FFD0
FFD0
FFD0
FFD0
FFD0
ENDCHAR
STARTCHAR uni2597
ENCODING 9623
SWIDTH 600 0
DWIDTH 11 0
BBX 6 12 5 -7
BITMAP
BFE0
BFE0
BFE0
BFE0
BFE0
BFE0
BFE0
BFE0
BFE0
BFE0
BFE0
BFE0
ENDCHAR
STARTCHAR uni2598
ENCODING 9624
SWIDTH 600 0
DWIDTH 11 0
BBX 6 13 0 5
BITMAP
FFD0
FFD0
FFD0
FFD0
FFD0
FFD0
FFD0
FFD0
FFD0
FFD0
FFD0
FFD0
FFD0
ENDCHAR
STARTCHAR uni2599
ENCODING 9625
SWIDTH 600 0
DWIDTH 11 0
BBX 11 25 0 -7
BITMAP
FFD000
FFD000
FFD000
FFD000
FFD000
FFD000
FFD000
FFD000
FFD000
FFD000
FFD000
FFD000
FFD000
FFFFF8
FFFFF8
FFFFF8
FFFFF8
FFFFF8
FFFFF8
FFFFF8
FFFFF8
FFFFF8
FFFFF8
FFFFF8
FFFFF8
ENDCHAR
STARTCHAR uni259A
ENCODING 9626
SWIDTH 600 0
DWIDTH 11 0
BBX 11 25 0 -7
BITMAP
FFD000
FFD000
FFD000
FFD000
FFD000
FFD000
FFD000
FFD000
FFD000
FFD000
FFD000
FFD000
FFD000
002FF8
002FF8
002FF8
002FF8
002FF8
002FF8
002FF8
002FF8
002FF8
002FF8
002FF8
002FF8
ENDCHAR
STARTCHAR uni259B
ENCODING 9627
SWIDTH 600 0
DWIDTH 11 0
BBX 11 25 0 -7
BITMAP
FFFFF8
FFFFF8
FFFFF8
FFFFF8
FFFFF8
FFFFF8
FFFFF8
FFFFF8
FFFFF8
FFFFF8
FFFFF8
FFFFF8
FFFFF8
FFD000
FFD000
FFD000
FFD000
FFD000
FFD000
FFD000
FFD000
FFD000
FFD000
FFD000
FFD000
ENDCHAR
STARTCHAR uni259C
ENCODING 9628
SWIDTH 600 0
DWIDTH 11 0
BBX 11 25 0 -7
BITMAP
FFFFF8
FFFFF8
FFFFF8
FFFFF8
FFFFF8
FFFFF8
FFFFF8
FFFFF8
FFFFF8
FFFFF8
FFFFF8
FFFFF8
FFFFF8
002FF8
002FF8
002FF8
002FF8
002FF8
002FF8
002FF8
002FF8
002FF8
002FF8
002FF8
002FF8
ENDCHAR
STARTCHAR uni259D
ENCODING 9629
SWIDTH 600 0
DWIDTH 11 0
BBX 6 13 5 5
BITMAP
BFE0
BFE0
BFE0
BFE0
BFE0
BFE0
BFE0
BFE0
BFE0
BFE0
BFE0
BFE0
BFE0
ENDCHAR
STARTCHAR uni259E
ENCODING 9630
SWIDTH 600 0
DWIDTH 11 0
BBX 11 25 0 -7
BITMAP
002FF8
002FF8
002FF8
002FF8
002FF8
002FF8
002FF8
002FF8
002FF8
002FF8
002FF8
002FF8
002FF8
FFD000
FFD000
FFD000
FFD000
FFD000
FFD000
FFD000
FFD000
FFD000
FFD000
FFD000
FFD000
ENDCHAR
STARTCHAR uni259F
ENCODING 9631
SWIDTH 600 0
DWIDTH 11 0
BBX 11 25 0 -7
BITMAP
002FF8
002FF8
002FF8
002FF8
002FF8
002FF8
002FF8
002FF8
002FF8
002FF8
002FF8
002FF8
002FF8
FFFFF8
FFFFF8
FFFFF8
FFFFF8
FFFFF8
FFFFF8
FFFFF8
FFFFF8
FFFFF8
FFFFF8
FFFFF8
FFFFF8
ENDCHAR
STARTCHAR uni25A0
ENCODING 9632
SWIDTH 600 0
DWIDTH 11 0
BBX 9 8 1 2
BITMAP
7FFF40
7FFF40
7FFF40
7FFF40
7FFF40
7FFF40
7FFF40
7FFF40
ENDCHAR
STARTCHAR uni25A1
ENCODING 9633
SWIDTH 600 0
DWIDTH 11 0
BBX 9 8 1 2
BITMAP
BFFF40
900140
900140
900140
900140
900140
900140
BFFF40
ENDCHAR
STARTCHAR uni25AA
ENCODING 9642
SWIDTH 600 0
DWIDTH 11 0
BBX 5 5 3 2
BITMAP
FF80
FF80
FF80
FF80
FF80
ENDCHAR
STARTCHAR uni25AB
ENCODING 9643
SWIDTH 600 0
DWIDTH 11 0
BBX 6 5 2 2
BITMAP
7FF0
6020
6020
6020
7FF0
ENDCHAR
STARTCHAR filledrect
ENCODING 9644
SWIDTH 600 0
DWIDTH 11 0
BBX 11 1 0 4
BITMAP
FFFFF8
ENDCHAR
STARTCHAR triagup
ENCODING 9650
SWIDTH 600 0
DWIDTH 11 0
BBX 9 9 1 2
BITMAP
008000
01C000
02E000
07F000
0BF800
1FFC00
2FFE00
7FFF00
BFFF40
ENDCHAR
STARTCHAR uni25B3
ENCODING 9651
SWIDTH 600 0
DWIDTH 11 0
BBX 9 9 1 2
BITMAP
004000
01C000
026000
062000
081800
180800
200600
600200
BFFF40
ENDCHAR
STARTCHAR uni25B4
ENCODING 9652
SWIDTH 600 0
DWIDTH 11 0
BBX 6 5 2 2
BITMAP
0200
0740
0FC0
2FD0
7FF0
ENDCHAR
STARTCHAR uni25B5
ENCODING 9653
SWIDTH 600 0
DWIDTH 11 0
BBX 7 6 2 2
BITMAP
0100
0640
0880
1450
2020
BFF4
ENDCHAR
STARTCHAR uni25B6
ENCODING 9654
SWIDTH 600 0
DWIDTH 11 0
BBX 9 9 1 1
BITMAP
900000
FD0000
FFD000
FFFD00
FFFF80
FFF800
FF4000
F40000
400000
ENDCHAR
STARTCHAR uni25B7
ENCODING 9655
SWIDTH 600 0
DWIDTH 11 0
BBX 9 9 1 1
BITMAP
900000
850000
805000
800500
801F80
81F800
EF4000
F40000
400000
ENDCHAR
STARTCHAR uni25B8
ENCODING 9656
SWIDTH 600 0
DWIDTH 11 0
BBX 5 6 3 2
BITMAP
9000
F800
FF40
FF40
F800
9000
ENDCHAR
STARTCHAR uni25B9
ENCODING 9657
SWIDTH 600 0
DWIDTH 11 0
BBX 7 7 2 1
BITMAP
6000
6900
6290
6074
6290
6900
6000
ENDCHAR
STARTCHAR triagrt
ENCODING 9658
SWIDTH 600 0
DWIDTH 11 0
BBX 11 9 0 1
BITMAP
A40000
BE4000
BFF900
BFFF90
BFFFF8
BFFE40
BFE400
B90000
400000
ENDCHAR
STARTCHAR triagdn
ENCODING 9660
SWIDTH 600 0
DWIDTH 11 0
BBX 9 9 1 1
BITMAP
BFFF40
7FFF00
2FFD00
1FFC00
0BF800
07F000
02E000
01C000
004000
ENDCHAR
STARTCHAR uni25BD
ENCODING 9661
SWIDTH 600 0
DWIDTH 11 0
BBX 9 9 1 1
BITMAP
BFFF40
600200
200500
180800
081800
062000
026000
01C000
004000
ENDCHAR
STARTCHAR uni25BE
ENCODING 9662
SWIDTH 600 0
DWIDTH 11 0
BBX 6 5 2 2
BITMAP
7FF0
2FD0
0FC0
0740
0200
ENDCHAR
STARTCHAR uni25BF
ENCODING 9663
SWIDTH 600 0
DWIDTH 11 0
BBX 7 6 2 1
BITMAP
BFF4
2020
2450
0880
0640
0100
ENDCHAR
STARTCHAR uni25C0
ENCODING 9664
SWIDTH 600 0
DWIDTH 11 0
BBX 9 9 1 1
BITMAP
000180
002F80
02FF80
2FFF80
BFFF80
0BFF80
00BF80
000B80
000040
ENDCHAR
STARTCHAR uni25C1
ENCODING 9665
SWIDTH 600 0
DWIDTH 11 0
BBX 9 9 1 1
BITMAP
000180
001480
014080
140080
B90080
0BD080
00BE80
000B80
000040
ENDCHAR
STARTCHAR uni25C2
ENCODING 9666
SWIDTH 600 0
DWIDTH 11 0
BBX 5 6 3 2
BITMAP
0180
1B80
BF80
BF80
1B80
0180
ENDCHAR
STARTCHAR uni25C3
ENCODING 9667
SWIDTH 600 0
DWIDTH 11 0
BBX 6 7 2 1
BITMAP
0020
02B0
1920
7020
1920
02B0
0020
ENDCHAR
STARTCHAR triaglf
ENCODING 9668
SWIDTH 600 0
DWIDTH 11 0
BBX 11 9 0 1
BITMAP
000064
0007F4
01BFF4
2FFFF4
BFFFF4
07FFF4
006FF4
0001B4
000014
ENDCHAR
STARTCHAR uni25C6
ENCODING 9670
SWIDTH 600 0
DWIDTH 11 0
BBX 9 10 1 1
BITMAP
008000
03E000
0FF800
3FFE00
FFFF80
FFFF80
3FFE00
0FF800
03E000
008000
ENDCHAR
STARTCHAR uni25C9
ENCODING 9673
SWIDTH 600 0
DWIDTH 11 0
BBX 9 9 1 2
BITMAP
0BF400
381A00
96E240
CFF980
CFFCC0
CFF880
97F640
395A00
0BF400
ENDCHAR
STARTCHAR lozenge
ENCODING 9674
SWIDTH 600 0
DWIDTH 11 0
BBX 7 12 2 0
BITMAP
0B40
0D80
18D0
3460
6034
D018
D018
6034
3460
18D0
0D80
0B40
ENDCHAR
STARTCHAR uni25CB
ENCODING 9675
SWIDTH 600 0
DWIDTH 11 0
BBX 9 8 1 2
BITMAP
0BF400
381A00
A00240
900180
900180
A00240
381A00
0BF400
ENDCHAR
STARTCHAR uni25CC
ENCODING 9676
SWIDTH 600 0
DWIDTH 11 0
BBX 9 9 1 0
BITMAP
018000
181800
900300
000000
800240
000000
900300
000000
199800
ENDCHAR
STARTCHAR uni25CF
ENCODING 9679
SWIDTH 600 0
DWIDTH 11 0
BBX 9 8 1 2
BITMAP
07F400
2FFE00
7FFF00
BFFF40
BFFF40
7FFF00
2FFE00
0BF400
ENDCHAR
STARTCHAR invbullet
ENCODING 9688
SWIDTH 600 0
DWIDTH 11 0
BBX 6 6 2 2
BITMAP
7FF0
6470
4010
4010
6070
7FF0
ENDCHAR
STARTCHAR invcircle
ENCODING 9689
SWIDTH 600 0
DWIDTH 11 0
BBX 9 8 1 2
BITMAP
B40B80
97F580
5FFC40
2FFD00
2FFD00
5FFC40
9BF580
B55B80
ENDCHAR
STARTCHAR uni25E6
ENCODING 9702
SWIDTH 600 0
DWIDTH 11 0
BBX 6 6 2 2
BITMAP
0BD0
3470
6030
9030
6090
2F40
ENDCHAR
STARTCHAR uni2610
ENCODING 9744
SWIDTH 600 0
DWIDTH 11 0
BBX 13 12 -1 0
BITMAP
3FFFFF40
50000340
50000340
50000340
50000340
50000340
50000340
50000340
50000340
50000340
50000340
7FFFFE00
ENDCHAR
STARTCHAR uni2611
ENCODING 9745
SWIDTH 600 0
DWIDTH 11 0
BBX 14 14 -1 0
BITMAP
00000090
000002C0
3FFFFF40
50001F40
50003740
50006340
5000C340
52428340
51C34340
50960340
50790340
502C0340
50000340
7FFFFE00
ENDCHAR
STARTCHAR uni2615
ENCODING 9749
SWIDTH 600 0
DWIDTH 11 0
BBX 13 10 -1 1
BITMAP
06FE4000
3901A000
66FE5400
9D1D9500
56FE5980
50002580
20000740
24007900
0D02C000
02FE0000
ENDCHAR
STARTCHAR smileface
ENCODING 9786
SWIDTH 600 0
DWIDTH 11 0
BBX 11 10 0 1
BITMAP
06FE00
1D02D0
728D70
928D24
800018
800018
960724
71F970
1D01D0
06FE00
ENDCHAR
STARTCHAR invsmileface
ENCODING 9787
SWIDTH 600 0
DWIDTH 11 0
BBX 11 10 0 1
BITMAP
02FE00
1FFFC0
3D76E0
7E75F0
7D76F4
7FFFF4
79F8F0
3D01E0
1F47C0
02FE00
ENDCHAR
STARTCHAR sun
ENCODING 9788
SWIDTH 600 0
DWIDTH 11 0
BBX 11 11 0 0
BITMAP
103010
2835E0
0FFF80
0A4740
0C0180
FC00FC
0C0180
0A4740
1DBAD0
243060
003000
ENDCHAR
STARTCHAR female
ENCODING 9792
SWIDTH 600 0
DWIDTH 11 0
BBX 9 14 1 -1
BITMAP
0BF400
281E00
600340
900280
D00180
900280
600340
291E00
0BF400
00C000
2FFE00
00C000
00C000
004000
ENDCHAR
STARTCHAR male
ENCODING 9794
SWIDTH 600 0
DWIDTH 11 0
BBX 12 12 -1 0
BITMAP
0002EF
00001F
000077
02FAD3
0E0743
2801C0
3000D0
700090
3000D0
2801C0
0E0740
02F900
ENDCHAR
STARTCHAR spade
ENCODING 9824
SWIDTH 600 0
DWIDTH 11 0
BBX 11 13 0 0
BITMAP
006000
01F800
03FE00
0FFF80
2FFFE0
7FFFF0
BFFFF4
BFFFF8
BFFFF4
2E76E0
00B800
02FE00
0FFFC0
ENDCHAR
STARTCHAR club
ENCODING 9827
SWIDTH 600 0
DWIDTH 11 0
BBX 11 13 0 0
BITMAP
01B800
03FE00
07FF00
03FE00
05FD40
7FFFE0
BFFFF8
BFFFF8
BFFFF4
2E7690
00B800
02FE00
0FFFC0
ENDCHAR
STARTCHAR heart
ENCODING 9829
SWIDTH 600 0
DWIDTH 11 0
BBX 11 13 0 0
BITMAP
2F47D0
7FDFF4
BFFFF8
BFFFF8
BFFFF8
BFFFF4
7FFFF0
3FFFE0
1FFFC0
0BFF40
02FE00
00F800
002000
ENDCHAR
STARTCHAR diamond
ENCODING 9830
SWIDTH 600 0
DWIDTH 11 0
BBX 11 13 0 0
BITMAP
002000
00B800
02FD00
07FF40
1FFFC0
7FFFF0
BFFFF8
7FFFF0
1FFFC0
07FF40
02FD00
00B800
002000
ENDCHAR
STARTCHAR musicalnote
ENCODING 9834
SWIDTH 600 0
DWIDTH 11 0
BBX 9 13 1 0
BITMAP
009000
00B400
00BD00
009B00
009340
009240
009140
009200
009000
009000
2FD000
7FC000
7E4000
ENDCHAR
STARTCHAR musicalnotedbl
ENCODING 9835
SWIDTH 600 0
DWIDTH 11 0
BBX 11 13 0 0
BITMAP
005AF8
00FFF8
00FFA8
00D018
00C018
00C018
00C018
00C018
00C018
00C6F8
6F8FF4
BF8BD0
BE0000
ENDCHAR
STARTCHAR uni2713
ENCODING 10003
SWIDTH 600 0
DWIDTH 11 0
BBX 11 12 0 0
BITMAP
000028
0000A0
0001C0
000340
000A00
001C00
802400
A06000
349000
28C000
0E8000
0B4000
ENDCHAR
STARTCHAR uni2752
ENCODING 10066
SWIDTH 600 0
DWIDTH 11 0
BBX 9 8 1 2
BITMAP
7FFF40
800240
800240
800240
800240
800240
800240
BFFF00
ENDCHAR
STARTCHAR uni2764
ENCODING 10084
SWIDTH 600 0
DWIDTH 11 0
BBX 14 12 -2 0
BITMAP
0BE47E40
2FFDFFD0
3FFFFFF0
7FFFFFF0
7FFFFFF0
3FFFFFF0
2FFFFFD0
0BFFFF80
02FFFD00
007FE000
000B8000
00020000
ENDCHAR
STARTCHAR uni27E6
ENCODING 10214
SWIDTH 600 0
DWIDTH 11 0
BBX 10 16 1 -3
BITMAP
01FFD0
026000
026000
036000
065000
069000
098000
098000
0D8000
194000
1A4000
270000
260000
360000
290000
7FF400
ENDCHAR
STARTCHAR uni27E7
ENCODING 10215
SWIDTH 600 0
DWIDTH 11 0
BBX 9 16 0 -3
BITMAP
02FFC0
000D80
000980
001A40
001600
002700
003600
002600
006900
005800
009C00
009800
009800
01A400
016400
BFF000
ENDCHAR
STARTCHAR uni2E18
ENCODING 11800
SWIDTH 600 0
DWIDTH 11 0
BBX 7 13 1 -4
BITMAP
0074
00B8
00B4
0000
0000
0090
01D0
06C0
29C0
7180
B000
7428
1FE0
ENDCHAR
STARTCHAR uni2E22
ENCODING 11810
SWIDTH 600 0
DWIDTH 11 0
BBX 7 8 4 5
BITMAP
2FF4
3400
3000
6000
6000
9000
D000
C000
ENDCHAR
STARTCHAR uni2E23
ENCODING 11811
SWIDTH 600 0
DWIDTH 11 0
BBX 6 8 3 5
BITMAP
BFD0
00C0
0180
0180
0240
0340
0300
0600
ENDCHAR
STARTCHAR uni2E24
ENCODING 11812
SWIDTH 600 0
DWIDTH 11 0
BBX 6 8 2 -3
BITMAP
1800
1800
2400
3400
3000
7000
6000
BFD0
ENDCHAR
STARTCHAR uni2E25
ENCODING 11813
SWIDTH 600 0
DWIDTH 11 0
BBX 7 8 0 -3
BITMAP
0018
0024
0034
0030
0070
0060
0090
BFD0
ENDCHAR
STARTCHAR uniE0A0
ENCODING 57504
SWIDTH 600 0
DWIDTH 11 0
BBX 10 24 1 -5
BITMAP
740000
740000
740000
740B00
741F80
743FD0
740B00
740B00
740B00
740B00
740B00
740A00
601E00
007C00
02E000
0B4000
2D0000
380000
340000
740000
740000
740000
740000
740000
ENDCHAR
STARTCHAR uniE0A1
ENCODING 57505
SWIDTH 600 0
DWIDTH 11 0
BBX 9 20 1 -3
BITMAP
600000
600000
600000
600000
600000
600000
600000
600000
7FE000
000000
000000
074340
078340
06C340
06A340
063340
062640
061E40
060B40
060740
ENDCHAR
STARTCHAR uniE0A2
ENCODING 57506
SWIDTH 600 0
DWIDTH 11 0
BBX 9 16 1 -1
BITMAP
07E400
1D1C00
280D00
280900
280900
280900
FFFF80
FFFFC0
FD2FC0
FC0FC0
FD2FC0
FE3FC0
FE2FC0
FE2FC0
FFFFC0
FFFF80
ENDCHAR
STARTCHAR uniE0B0
ENCODING 57520
SWIDTH 600 0
DWIDTH 11 0
BBX 11 24 0 -5
BITMAP
400000
D00000
F40000
FD0000
FF0000
FFC000
FFE000
FFF800
FFFE00
FFFF80
FFFFD0
FFFFF4
FFFFF4
FFFFD0
FFFF80
FFFE00
FFF800
FFE000
FFC000
FF0000
FD0000
F40000
D00000
400000
ENDCHAR
STARTCHAR uniE0B1
ENCODING 57521
SWIDTH 600 0
DWIDTH 11 0
BBX 11 22 0 -4
BITMAP
900000
740000
2C0000
0B0000
02C000
00A000
002800
000A00
000280
0000E0
000038
000038
0000E0
000280
000A00
002800
00A000
02C000
0B0000
2C0000
740000
900000
ENDCHAR
STARTCHAR uniE0B2
ENCODING 57522
SWIDTH 600 0
DWIDTH 11 0
BBX 11 24 0 -5
BITMAP
000004
00001C
00007C
0001FC
0007FC
000FFC
003FFC
00BFFC
02FFFC
0BFFFC
2FFFFC
BFFFFC
BFFFFC
2FFFFC
0BFFFC
02FFFC
00BFFC
003FFC
000FFC
0007FC
0001FC
00007C
00001C
000004
ENDCHAR
STARTCHAR uniE0B3
ENCODING 57523
SWIDTH 600 0
DWIDTH 11 0
BBX 11 22 0 -4
BITMAP
000018
000074
0001D0
000740
001D00
003800
00E000
038000
0A0000
280000
A00000
A00000
280000
0A0000
038000
00E000
003800
001D00
000740
0001D0
000074
000018
ENDCHAR
STARTCHAR f_i
ENCODING 64257
SWIDTH 600 0
DWIDTH 11 0
BBX 10 13 1 0
BITMAP
01F5D0
0742D0
0A0000
0D0000
7FD340
1C0700
280700
280A00
340A00
340D00
701D00
701C00
A02800
ENDCHAR
STARTCHAR f_l
ENCODING 64258
SWIDTH 600 0
DWIDTH 11 0
BBX 9 13 1 0
BITMAP
01F5C0
0742C0
0A0280
0D0340
7FD340
1C0700
280B00
280A00
340D00
340D00
701C00
702C00
A01D00
ENDCHAR
STARTCHAR uniFE0E
ENCODING 65038
SWIDTH 600 0
DWIDTH 11 0
BBX 11 11 0 0
BITMAP
6AAAA0
900024
400010
6A02A0
020100
020100
020100
020100
020100
020100
02A900
ENDCHAR
STARTCHAR uniFE0F
ENCODING 65039
SWIDTH 600 0
DWIDTH 11 0
BBX 11 10 0 1
BITMAP
02AA00
080080
200010
929A24
029A00
800004
440154
622230
080080
02AA00
ENDCHAR
STARTCHAR uniFEFF
ENCODING 65279
SWIDTH 600 0
DWIDTH 11 0
BBX 1 1 0 0
BITMAP
00
ENDCHAR
STARTCHAR u1F3B5
ENCODING 127925
SWIDTH 600 0
DWIDTH 11 0
BBX 9 13 1 0
BITMAP
004000
00B400
00BD00
009B00
009340
009240
009240
009100
009000
009000
2FD000
7FC000
7E4000
ENDCHAR
STARTCHAR u1F3B6
ENCODING 127926
SWIDTH 600 0
DWIDTH 11 0
BBX 11 13 0 0
BITMAP
005AF8
00FFF8
00FFA8
00D018
00C018
00C018
00C018
00C018
00C018
00C6F8
6F8FF4
BF8BD0
BE0000
ENDCHAR
STARTCHAR u1F4A9
ENCODING 128169
SWIDTH 600 0
DWIDTH 11 0
BBX 11 11 0 1
BITMAP
017D00
07FF00
07FF40
1FFF80
3D75E0
3830E0
3A6AE0
6FFFE0
FC01F8
FE06F8
6FFFE0
ENDCHAR
STARTCHAR u1F512
ENCODING 128274
SWIDTH 600 0
DWIDTH 11 0
BBX 9 16 1 -1
BITMAP
07E400
1D1C00
280D00
280900
280900
280900
FFFF80
FFFFC0
FD2FC0
FC0FC0
FD2FC0
FE3FC0
FE2FC0
FE2FC0
FFFFC0
FFFF80
ENDCHAR
STARTCHAR u1F916
ENCODING 129302
SWIDTH 600 0
DWIDTH 11 0
BBX 13 10 -1 1
BITMAP
01BF9000
0A406400
18BF8800
361D6600
729A6740
71BF9740
34000B00
080C1800
07407400
01BF8000
ENDCHAR
STARTCHAR .notdef
ENCODING -1
SWIDTH 600 0
DWIDTH 11 0
BBX 9 12 1 0
BITMAP
BFFF80
B40B80
9C1E80
9A2680
937280
92D280
92E280
973280
9D2A80
A80E80
B40780
BFFF80
ENDCHAR
STARTCHAR uni00470303
ENCODING -1
SWIDTH 600 0
DWIDTH 11 0
BBX 10 15 1 0
BITMAP
01F8A0
024B80
000000
01BE40
0741C0
1D0000
380000
700000
A00000
E03F80
E00340
A00340
700700
391A00
0BF800
ENDCHAR
STARTCHAR uni004C00B7004C
ENCODING -1
SWIDTH 600 0
DWIDTH 11 0
BBX 10 12 0 0
BITMAP
0A01C0
0D01C0
1C0280
1C0380
29E340
2AF700
35D700
740A00
700E00
A00D00
A01C00
FF5FF0
ENDCHAR
STARTCHAR uni01320301
ENCODING -1
SWIDTH 600 0
DWIDTH 11 0
BBX 11 19 1 -3
BITMAP
009018
02D078
090090
000000
0D01C0
1D02C0
1C0280
2C0380
280340
340700
340700
700A00
B00E00
A00D00
D01C00
D01C00
002800
007400
03E000
ENDCHAR
STARTCHAR uni00670303
ENCODING -1
SWIDTH 600 0
DWIDTH 11 0
BBX 10 17 0 -4
BITMAP
001410
00AD70
0082D0
000000
01BE70
0742E0
1D00D0
2C00D0
3801C0
3401C0
380280
2D1B80
0BE340
000700
000A00
642D00
2FE000
ENDCHAR
STARTCHAR uni006C00B7006C
ENCODING -1
SWIDTH 600 0
DWIDTH 11 0
BBX 10 13 0 0
BITMAP
FE1FD0
0A01C0
0D01C0
0C0280
1C0340
29E340
2AF700
35D700
700A00
700D00
A00D00
700E10
2F47E0
ENDCHAR
STARTCHAR uni01330301
ENCODING -1
SWIDTH 600 0
DWIDTH 11 0
BBX 10 18 1 -4
BITMAP
009020
02D0F0
0B4380
080600
000000
0D0700
1C0A00
280E00
280D00
341C00
341C00
702800
B02800
A03400
007000
007000
00A000
0B8000
ENDCHAR
STARTCHAR uni014A.a
ENCODING -1
SWIDTH 600 0
DWIDTH 11 0
BBX 11 15 0 -3
BITMAP
074034
078034
0AC070
0DD060
0DA0A0
1C70D0
1C34D0
2829C0
341D80
340E80
700B40
700740
000700
000A00
00B800
ENDCHAR
STARTCHAR a.a
ENCODING -1
SWIDTH 600 0
DWIDTH 11 0
BBX 9 9 1 0
BITMAP
06FD00
290700
000340
06BF40
2E4700
A00A00
D00E00
E06D00
7E4D00
ENDCHAR
STARTCHAR agrave.a
ENCODING -1
SWIDTH 600 0
DWIDTH 11 0
BBX 9 14 1 0
BITMAP
009000
00A000
003400
001800
000000
06FD00
290700
000340
06BF40
2E4700
A00A00
D00E00
E06D00
7E4D00
ENDCHAR
STARTCHAR aacute.a
ENCODING -1
SWIDTH 600 0
DWIDTH 11 0
BBX 9 14 1 0
BITMAP
000600
001E00
003800
006000
000000
06FD00
290700
000340
06BF40
2E4700
A00A00
D00E00
E06D00
7E4D00
ENDCHAR
STARTCHAR acircumflex.a
ENCODING -1
SWIDTH 600 0
DWIDTH 11 0
BBX 9 13 1 0
BITMAP
007C00
01DA00
020200
000000
06FD00
290700
000340
06BF40
2E4700
A00A00
D00E00
E06D00
7E4D00
ENDCHAR
STARTCHAR atilde.a
ENCODING -1
SWIDTH 600 0
DWIDTH 11 0
BBX 9 13 1 0
BITMAP
005040
03B580
061F40
000000
06FD00
290700
000340
06BF40
2E4700
A00A00
D00E00
E06D00
7E4D00
ENDCHAR
STARTCHAR adieresis.a
ENCODING -1
SWIDTH 600 0
DWIDTH 11 0
BBX 9 13 1 0
BITMAP
028700
028700
000000
000000
06FD00
290700
000340
06BF40
2E4700
A00A00
D00E00
E06D00
7E4D00
ENDCHAR
STARTCHAR amacron.a
ENCODING -1
SWIDTH 600 0
DWIDTH 11 0
BBX 9 12 1 0
BITMAP
02FF00
000000
000000
06FD00
290700
000340
06BF40
2E4700
A00A00
D00E00
E06D00
7E4D00
ENDCHAR
STARTCHAR abreve.a
ENCODING -1
SWIDTH 600 0
DWIDTH 11 0
BBX 9 13 1 0
BITMAP
030180
028700
00B900
000000
06FD00
290700
000340
06BF40
2E4700
A00A00
D00E00
E06D00
7E4D00
ENDCHAR
STARTCHAR aring.a
ENCODING -1
SWIDTH 600 0
DWIDTH 11 0
BBX 9 14 1 0
BITMAP
007D00
00C600
00C900
00B800
000000
06FD00
290700
000340
06BF40
2E4700
A00A00
D00E00
E06D00
7E4D00
ENDCHAR
STARTCHAR aringacute.a
ENCODING -1
SWIDTH 600 0
DWIDTH 11 0
BBX 9 16 1 0
BITMAP
000100
001900
007D00
00C600
01C900
00B800
000000
06FD00
290700
000340
06BF40
2E4700
A00A00
D01E00
E06D00
7E4D00
ENDCHAR
STARTCHAR uni01CE.a
ENCODING -1
SWIDTH 600 0
DWIDTH 11 0
BBX 9 13 1 0
BITMAP
024140
01DA00
00B800
000000
06FD00
290700
000340
06BF40
2E4700
A00A00
D00E00
E06D00
7E4D00
ENDCHAR
STARTCHAR uni1EA1.a
ENCODING -1
SWIDTH 600 0
DWIDTH 11 0
BBX 9 13 1 -4
BITMAP
06FD00
290700
000340
06BF40
2E4700
A00A00
D00E00
E06D00
7E4D00
000000
000000
0B4000
0B0000
ENDCHAR
STARTCHAR uni1EA3.a
ENCODING -1
SWIDTH 600 0
DWIDTH 11 0
BBX 9 14 1 0
BITMAP
007800
001D00
001C00
002400
000000
06FD00
290700
000340
06BF40
2E4700
A00A00
D00E00
E06D00
7E4D00
ENDCHAR
STARTCHAR uni1EA5.a
ENCODING -1
SWIDTH 600 0
DWIDTH 11 0
BBX 10 14 1 0
BITMAP
000020
0000D0
00BD40
024600
000000
06FD00
290700
000340
06BF40
2E4700
A00A00
D00E00
E06D00
7E4D00
ENDCHAR
STARTCHAR uni1EA7.a
ENCODING -1
SWIDTH 600 0
DWIDTH 11 0
BBX 9 14 1 0
BITMAP
180000
0D0000
06BC00
024600
000000
06FD00
290700
000340
06BF40
2E4700
A00A00
D00E00
E06D00
7E4D00
ENDCHAR
STARTCHAR uni1EA9.a
ENCODING -1
SWIDTH 600 0
DWIDTH 11 0
BBX 10 14 1 0
BITMAP
0001D0
0000A0
00BD80
024600
000000
06FD00
290700
000340
06BF40
2E4700
A00A00
D00E00
E06D00
7E4D00
ENDCHAR
STARTCHAR uni1EAB.a
ENCODING -1
SWIDTH 600 0
DWIDTH 11 0
BBX 9 15 1 0
BITMAP
00A540
019F00
000000
007C00
028600
000000
06FD00
290700
000340
06BF40
2E4700
A00A00
D00E00
E06D00
7E4D00
ENDCHAR
STARTCHAR uni1EAD.a
ENCODING -1
SWIDTH 600 0
DWIDTH 11 0
BBX 9 17 1 -4
BITMAP
007C00
01DA00
020200
000000
06FD00
290700
000340
06BF40
2E4700
A00A00
D00E00
E06D00
7E4D00
000000
000000
0B4000
0B0000
ENDCHAR
STARTCHAR uni1EAF.a
ENCODING -1
SWIDTH 600 0
DWIDTH 11 0
BBX 9 16 1 0
BITMAP
000600
000D00
001400
030180
028700
00B900
000000
06FD00
290700
000340
06BF40
2E4700
A00A00
D00E00
E06D00
7E4D00
ENDCHAR
STARTCHAR uni1EB1.a
ENCODING -1
SWIDTH 600 0
DWIDTH 11 0
BBX 9 15 1 0
BITMAP
006000
003000
031580
028700
00B900
000000
06FD00
290700
000340
06BF40
2E4700
A00A00
D00E00
E06D00
7E4D00
ENDCHAR
STARTCHAR uni1EB3.a
ENCODING -1
SWIDTH 600 0
DWIDTH 11 0
BBX 9 15 1 0
BITMAP
002800
000D00
032980
028700
00B900
000000
06FD00
290700
000340
06BF40
2E4700
A00A00
D00E00
E06D00
7E4D00
ENDCHAR
STARTCHAR uni1EB5.a
ENCODING -1
SWIDTH 600 0
DWIDTH 11 0
BBX 9 15 1 0
BITMAP
00A540
019F00
000000
024600
01B900
000000
06FD00
290700
000340
06BF40
2E4700
A00A00
D00E00
E06D00
7E4D00
ENDCHAR
STARTCHAR uni1EB7.a
ENCODING -1
SWIDTH 600 0
DWIDTH 11 0
BBX 9 17 1 -4
BITMAP
030180
028700
00B900
000000
06FD00
290700
000340
06BF40
2E4700
A00A00
D00E00
E06D00
7E4D00
000000
000000
0B4000
0B0000
ENDCHAR
STARTCHAR aogonek.a
ENCODING -1
SWIDTH 600 0
DWIDTH 11 0
BBX 9 13 1 -4
BITMAP
06F900
290700
000340
06BF40
2E4700
A00A00
D00E00
E06D00
7E4D00
002400
009000
00C000
00B800
ENDCHAR
STARTCHAR g.a
ENCODING -1
SWIDTH 600 0
DWIDTH 11 0
BBX 10 13 0 -4
BITMAP
01BFF0
074780
0D0280
0D0240
0E0B00
0BF800
180000
290000
1FF900
601B40
D00340
A41B00
2FE400
ENDCHAR
STARTCHAR uni01F5.a
ENCODING -1
SWIDTH 600 0
DWIDTH 11 0
BBX 10 18 0 -4
BITMAP
000180
000780
000E00
001800
000000
01BFF0
074780
0D0280
0D0240
0E0B00
0BF800
180000
290000
1FF900
601B40
D00340
A41B00
2FE400
ENDCHAR
STARTCHAR gcircumflex.a
ENCODING -1
SWIDTH 600 0
DWIDTH 11 0
BBX 10 17 0 -4
BITMAP
001F00
007680
008080
000000
01BFF0
074780
0D0280
0D0240
0E0B00
0BF800
180000
290000
1FF900
601B40
D00340
A41B00
2FE400
ENDCHAR
STARTCHAR gbreve.a
ENCODING -1
SWIDTH 600 0
DWIDTH 11 0
BBX 10 17 0 -4
BITMAP
00C060
00A1C0
002E40
000000
01BFF0
074780
0D0280
0D0240
0E0B00
0BF800
180000
290000
1FF900
601B40
D00340
A41B00
2FE400
ENDCHAR
STARTCHAR gdotaccent.a
ENCODING -1
SWIDTH 600 0
DWIDTH 11 0
BBX 10 17 0 -4
BITMAP
001E00
001E00
000000
000000
01BFF0
074780
0D0280
0D0240
0E0B00
0BF800
180000
290000
1FF900
601B40
D00340
A41B00
2FE400
ENDCHAR
STARTCHAR uni0123.a
ENCODING -1
SWIDTH 600 0
DWIDTH 11 0
BBX 10 17 0 -4
BITMAP
000640
001900
001800
000400
01BFF0
074780
0D0280
0D0240
0E0B00
0BF800
180000
290000
1FF900
601B40
D00340
A41B00
2FE400
ENDCHAR
STARTCHAR gcaron.a
ENCODING -1
SWIDTH 600 0
DWIDTH 11 0
BBX 10 17 0 -4
BITMAP
009050
007680
002E00
000000
01BFF0
074780
0D0280
0D0240
0E0B00
0BF800
180000
290000
1FF900
601B40
D00340
A41B00
2FE400
ENDCHAR
STARTCHAR uni1E21.a
ENCODING -1
SWIDTH 600 0
DWIDTH 11 0
BBX 10 16 0 -4
BITMAP
00BFC0
000000
000000
01BFF0
074780
0D0280
0D0240
0E0B00
0BF800
180000
290000
1FF900
601B40
D00340
A41B00
2FE400
ENDCHAR
STARTCHAR uni00670303.a
ENCODING -1
SWIDTH 600 0
DWIDTH 11 0
BBX 10 17 0 -4
BITMAP
001410
00ED60
0187D0
000000
01BFF0
074780
0D0280
0D0240
0E0B00
0BF800
180000
290000
1FF900
601B40
D00340
A41B00
2FE400
ENDCHAR
STARTCHAR iogonek.d
ENCODING -1
SWIDTH 600 0
DWIDTH 11 0
BBX 7 13 2 -4
BITMAP
FF80
0340
0700
0700
0A00
0D00
0D00
0E10
07F4
0180
0300
0600
02E0
ENDCHAR
STARTCHAR uni0268.d
ENCODING -1
SWIDTH 600 0
DWIDTH 11 0
BBX 8 9 1 0
BITMAP
3FE0
00D0
01D0
01C0
7FFE
0380
0340
0384
01FD
ENDCHAR
STARTCHAR uni029D.d
ENCODING -1
SWIDTH 600 0
DWIDTH 11 0
BBX 8 14 0 -5
BITMAP
0BFF
000A
000D
000D
001C
001C
0028
0038
0034
6EB0
91F0
D1F4
7E68
0018
ENDCHAR
STARTCHAR zero.a
ENCODING -1
SWIDTH 600 0
DWIDTH 11 0
BBX 9 11 1 0
BITMAP
02F900
0E0B00
2D0280
760280
A14280
908280
D05340
D02700
A01E00
742800
1FE000
ENDCHAR
STARTCHAR one.a
ENCODING -1
SWIDTH 600 0
DWIDTH 11 0
BBX 9 12 0 0
BITMAP
000500
001E00
00BD00
039C00
011C00
002800
003800
003400
007000
007000
00A000
7FFF80
ENDCHAR
STARTCHAR zero.onum
ENCODING -1
SWIDTH 600 0
DWIDTH 11 0
BBX 9 10 1 0
BITMAP
06F800
1D0B00
340340
B00280
A1D280
D2C340
D00740
A00A00
742C00
1BE000
ENDCHAR
STARTCHAR one.onum
ENCODING -1
SWIDTH 600 0
DWIDTH 11 0
BBX 9 10 0 0
BITMAP
006D00
02AC00
001C00
002800
003800
003400
007000
007000
00A000
7FFF80
ENDCHAR
STARTCHAR two.onum
ENCODING -1
SWIDTH 600 0
DWIDTH 11 0
BBX 9 10 0 0
BITMAP
02FD00
0E0740
040280
000340
000700
001D00
007400
02D000
1A0000
7FFF40
ENDCHAR
STARTCHAR three.onum
ENCODING -1
SWIDTH 600 0
DWIDTH 11 0
BBX 9 11 0 -1
BITMAP
01BE00
0A4280
0001C0
000280
006A00
02F800
000B00
000340
500340
741A00
1BF400
ENDCHAR
STARTCHAR four.onum
ENCODING -1
SWIDTH 600 0
DWIDTH 11 0
BBX 9 11 0 -1
BITMAP
0003C0
000F80
003640
00D340
074700
1D0600
740A00
FFFFC0
000C00
001C00
002800
ENDCHAR
STARTCHAR five.onum
ENCODING -1
SWIDTH 600 0
DWIDTH 11 0
BBX 10 11 0 -1
BITMAP
03FFD0
070000
060000
090000
0EFD00
090740
000280
000280
100340
741A00
1BE400
ENDCHAR
STARTCHAR six.onum
ENCODING -1
SWIDTH 600 0
DWIDTH 11 0
BBX 9 11 1 0
BITMAP
01BE40
0B4280
280000
340000
62F800
B90A00
A00700
A00700
A00A00
381D00
0BE000
ENDCHAR
STARTCHAR seven.onum
ENCODING -1
SWIDTH 600 0
DWIDTH 11 0
BBX 8 11 2 -1
BITMAP
FFFF
001D
0034
00D0
0280
0700
0A00
1D00
2800
3400
7400
ENDCHAR
STARTCHAR eight.onum
ENCODING -1
SWIDTH 600 0
DWIDTH 11 0
BBX 9 11 1 0
BITMAP
02F900
0E0740
1C0280
0D0340
074B00
2EF900
742800
A00A00
900A00
741D00
1BE400
ENDCHAR
STARTCHAR nine.onum
ENCODING -1
SWIDTH 600 0
DWIDTH 11 0
BBX 10 11 0 -1
BITMAP
01BE00
074280
1D00D0
2800D0
2801D0
1D06D0
07E5C0
000280
000700
742D00
1FE000
ENDCHAR
STARTCHAR zero.b
ENCODING -1
SWIDTH 600 0
DWIDTH 11 0
BBX 9 10 1 0
BITMAP
06F800
1D0B00
3D0340
B20280
A14280
D08340
D06740
A02E00
742C00
1BE000
ENDCHAR
STARTCHAR one.b
ENCODING -1
SWIDTH 600 0
DWIDTH 11 0
BBX 9 10 0 0
BITMAP
001D00
00BC00
03AC00
012800
003800
003400
007000
007000
00A000
7FFF80
ENDCHAR
STARTCHAR zero.cap
ENCODING -1
SWIDTH 600 0
DWIDTH 11 0
BBX 9 12 1 0
BITMAP
02F900
0A0B00
280340
340280
700280
A1D280
D1D280
D00340
900700
A00E00
346800
1BD000
ENDCHAR
STARTCHAR one.cap
ENCODING -1
SWIDTH 600 0
DWIDTH 11 0
BBX 9 23 0 0
BITMAP
001900
01FE00
000D00
000C00
001C00
001800
001800
001400
002000
002000
001000
002F80
003F80
003F80
003F80
003F80
007F80
007F80
007F80
00BF80
00BF80
00BF80
7FFF40
ENDCHAR
STARTCHAR two.cap
ENCODING -1
SWIDTH 600 0
DWIDTH 11 0
BBX 9 12 0 0
BITMAP
01BE00
074280
0001C0
0001C0
0002C0
000340
000E00
002800
00A000
078000
1E0000
7FFF80
ENDCHAR
STARTCHAR three.cap
ENCODING -1
SWIDTH 600 0
DWIDTH 11 0
BBX 10 12 0 0
BITMAP
01BE40
0742C0
0000D0
0001D0
000740
00F800
001B00
000380
000280
100380
781B00
0BF800
ENDCHAR
STARTCHAR four.cap
ENCODING -1
SWIDTH 600 0
DWIDTH 11 0
BBX 10 12 0 0
BITMAP
0002D0
0007C0
001DC0
007680
01D280
034340
0A0340
280700
7FFFE0
000A00
000D00
001C00
ENDCHAR
STARTCHAR five.cap
ENCODING -1
SWIDTH 600 0
DWIDTH 11 0
BBX 10 12 0 0
BITMAP
02FFE0
034000
070000
060000
0ABE00
090780
0002C0
0001C0
000280
100340
781A00
1BF400
ENDCHAR
STARTCHAR six.cap
ENCODING -1
SWIDTH 600 0
DWIDTH 11 0
BBX 9 12 1 0
BITMAP
01BE40
0B4180
1D0000
340000
700000
A6F800
B90A00
A00700
A00700
A00A00
381D00
0BE000
ENDCHAR
STARTCHAR seven.cap
ENCODING -1
SWIDTH 600 0
DWIDTH 11 0
BBX 9 12 2 0
BITMAP
BFFF40
000A00
002800
00A000
01C000
038000
070000
0A0000
1D0000
2C0000
380000
340000
ENDCHAR
STARTCHAR eight.cap
ENCODING -1
SWIDTH 600 0
DWIDTH 11 0
BBX 9 12 1 0
BITMAP
02FD00
0A0740
0C0280
0D0340
074B00
0BF800
397800
A00E00
900A00
A00A00
741D00
1BE400
ENDCHAR
STARTCHAR nine.cap
ENCODING -1
SWIDTH 600 0
DWIDTH 11 0
BBX 9 12 1 0
BITMAP
06F800
1D0A00
340340
700280
700280
381B80
1BE340
000740
000A00
001D00
D07400
6F9000
ENDCHAR
STARTCHAR zero.c
ENCODING -1
SWIDTH 600 0
DWIDTH 11 0
BBX 9 12 1 0
BITMAP
02F900
0A0B00
2C0340
390280
720280
A18280
D08280
D02340
902B00
A00E00
346800
1BD000
ENDCHAR
STARTCHAR one.c
ENCODING -1
SWIDTH 600 0
DWIDTH 11 0
BBX 9 12 0 0
BITMAP
000A00
007E00
01ED00
025C00
001C00
002800
003800
003400
007000
007000
00A000
7FFF80
ENDCHAR
STARTCHAR at.case
ENCODING -1
SWIDTH 600 0
DWIDTH 11 0
BBX 11 12 0 0
BITMAP
006FD0
02D074
0A0024
1C0024
2406F4
307930
70D060
70D1E0
30BD90
340000
1D0600
06F900
ENDCHAR
STARTCHAR asterisk.a
ENCODING -1
SWIDTH 600 0
DWIDTH 11 0
BBX 7 7 3 6
BITMAP
0200
0300
9664
6F90
1F00
7680
9080
ENDCHAR
STARTCHAR hyphen.a
ENCODING -1
SWIDTH 600 0
DWIDTH 11 0
BBX 7 1 2 4
BITMAP
BFF4
ENDCHAR
STARTCHAR uni00AD.a
ENCODING -1
SWIDTH 600 0
DWIDTH 11 0
BBX 7 1 2 4
BITMAP
BFF4
ENDCHAR
STARTCHAR uni2010.a
ENCODING -1
SWIDTH 600 0
DWIDTH 11 0
BBX 7 1 2 4
BITMAP
BFF4
ENDCHAR
STARTCHAR dollar.a
ENCODING -1
SWIDTH 600 0
DWIDTH 11 0
BBX 9 15 1 -2
BITMAP
000600
000900
06FC00
1D2E00
1C3640
0A6000
01D000
01E400
024D00
530A00
BA1D00
1FE400
080000
140000
200000
ENDCHAR
STARTCHAR period.sups
ENCODING -1
SWIDTH 600 0
DWIDTH 11 0
BBX 2 1 5 7
BITMAP
D0
ENDCHAR
STARTCHAR comma.sups
ENCODING -1
SWIDTH 600 0
DWIDTH 11 0
BBX 3 3 4 5
BITMAP
34
24
90
ENDCHAR
STARTCHAR period.subs
ENCODING -1
SWIDTH 600 0
DWIDTH 11 0
BBX 2 1 3 -3
BITMAP
60
ENDCHAR
STARTCHAR comma.subs
ENCODING -1
SWIDTH 600 0
DWIDTH 11 0
BBX 2 3 3 -5
BITMAP
70
70
90
ENDCHAR
STARTCHAR zero.dnom
ENCODING -1
SWIDTH 600 0
DWIDTH 11 0
BBX 6 6 2 0
BITMAP
1B80
3490
A090
9090
A180
2E00
ENDCHAR
STARTCHAR one.dnom
ENCODING -1
SWIDTH 600 0
DWIDTH 11 0
BBX 3 5 3 0
BITMAP
6C
0C
18
28
24
ENDCHAR
STARTCHAR two.dnom
ENCODING -1
SWIDTH 600 0
DWIDTH 11 0
BBX 5 6 2 0
BITMAP
1F40
2180
0180
0600
2800
BF80
ENDCHAR
STARTCHAR three.dnom
ENCODING -1
SWIDTH 600 0
DWIDTH 11 0
BBX 5 6 2 0
BITMAP
1B80
15C0
0180
0B40
5280
2F40
ENDCHAR
STARTCHAR four.dnom
ENCODING -1
SWIDTH 600 0
DWIDTH 11 0
BBX 5 6 2 0
BITMAP
0200
0900
1940
6240
BFC0
0300
ENDCHAR
STARTCHAR five.dnom
ENCODING -1
SWIDTH 600 0
DWIDTH 11 0
BBX 5 6 2 0
BITMAP
1FC0
2400
2F40
11C0
5180
2E00
ENDCHAR
STARTCHAR six.dnom
ENCODING -1
SWIDTH 600 0
DWIDTH 11 0
BBX 5 6 2 0
BITMAP
0BC0
2440
7B80
60C0
61C0
2F40
ENDCHAR
STARTCHAR seven.dnom
ENCODING -1
SWIDTH 600 0
DWIDTH 11 0
BBX 5 6 3 0
BITMAP
BF80
0600
0C00
2400
3000
6000
ENDCHAR
STARTCHAR eight.dnom
ENCODING -1
SWIDTH 600 0
DWIDTH 11 0
BBX 5 6 2 0
BITMAP
1B80
24C0
29C0
1F40
6280
7F40
ENDCHAR
STARTCHAR nine.dnom
ENCODING -1
SWIDTH 600 0
DWIDTH 11 0
BBX 5 6 2 0
BITMAP
1F40
31C0
71C0
2EC0
4280
7E00
ENDCHAR
STARTCHAR parenleft.dnom
ENCODING -1
SWIDTH 600 0
DWIDTH 11 0
BBX 4 9 3 -2
BITMAP
02
0D
28
30
70
60
70
34
14
ENDCHAR
STARTCHAR parenright.dnom
ENCODING -1
SWIDTH 600 0
DWIDTH 11 0
BBX 3 9 3 -2
BITMAP
24
18
0C
0C
0C
1C
24
A0
80
ENDCHAR
STARTCHAR period.dnom
ENCODING -1
SWIDTH 600 0
DWIDTH 11 0
BBX 2 1 3 0
BITMAP
70
ENDCHAR
STARTCHAR comma.dnom
ENCODING -1
SWIDTH 600 0
DWIDTH 11 0
BBX 3 3 3 -2
BITMAP
34
64
D0
ENDCHAR
STARTCHAR zero.numr
ENCODING -1
SWIDTH 600 0
DWIDTH 11 0
BBX 6 6 3 5
BITMAP
1B80
3490
60A0
9090
A1C0
2E00
ENDCHAR
STARTCHAR one.numr
ENCODING -1
SWIDTH 600 0
DWIDTH 11 0
BBX 4 5 4 5
BITMAP
6D
0C
18
28
24
ENDCHAR
STARTCHAR two.numr
ENCODING -1
SWIDTH 600 0
DWIDTH 11 0
BBX 5 6 3 5
BITMAP
1F80
21C0
0180
0600
1800
BF80
ENDCHAR
STARTCHAR three.numr
ENCODING -1
SWIDTH 600 0
DWIDTH 11 0
BBX 5 6 3 5
BITMAP
0B80
14C0
01C0
0B40
5180
2F40
ENDCHAR
STARTCHAR four.numr
ENCODING -1
SWIDTH 600 0
DWIDTH 11 0
BBX 5 6 3 5
BITMAP
0200
0900
1840
2140
BFC0
0300
ENDCHAR
STARTCHAR five.numr
ENCODING -1
SWIDTH 600 0
DWIDTH 11 0
BBX 6 6 3 5
BITMAP
1FD0
1400
2F80
11C0
5180
2E40
ENDCHAR
STARTCHAR six.numr
ENCODING -1
SWIDTH 600 0
DWIDTH 11 0
BBX 6 6 3 5
BITMAP
0BD0
2440
3B80
70C0
71C0
2F40
ENDCHAR
STARTCHAR seven.numr
ENCODING -1
SWIDTH 600 0
DWIDTH 11 0
BBX 5 6 4 5
BITMAP
BF80
0600
0D00
2800
3000
7000
ENDCHAR
STARTCHAR eight.numr
ENCODING -1
SWIDTH 600 0
DWIDTH 11 0
BBX 6 6 3 5
BITMAP
0B80
24D0
29C0
1F40
6180
3F40
ENDCHAR
STARTCHAR nine.numr
ENCODING -1
SWIDTH 600 0
DWIDTH 11 0
BBX 6 6 3 5
BITMAP
1F40
30C0
71D0
2EC0
4280
7E00
ENDCHAR
STARTCHAR parenleft.numr
ENCODING -1
SWIDTH 600 0
DWIDTH 11 0
BBX 4 9 4 3
BITMAP
02
0D
28
34
30
70
30
34
18
ENDCHAR
STARTCHAR parenright.numr
ENCODING -1
SWIDTH 600 0
DWIDTH 11 0
BBX 4 9 4 3
BITMAP
14
1C
0C
0D
0C
1C
28
70
80
ENDCHAR
STARTCHAR period.numr
ENCODING -1
SWIDTH 600 0
DWIDTH 11 0
BBX 2 1 5 5
BITMAP
D0
ENDCHAR
STARTCHAR comma.numr
ENCODING -1
SWIDTH 600 0
DWIDTH 11 0
BBX 3 3 4 3
BITMAP
34
24
90
ENDCHAR
STARTCHAR ordfeminine.a
ENCODING -1
SWIDTH 600 0
DWIDTH 11 0
BBX 6 6 3 7
BITMAP
1BD0
1460
05A0
24A0
A1D0
7E80
ENDCHAR
STARTCHAR q.sups
ENCODING -1
SWIDTH 600 0
DWIDTH 11 0
BBX 6 8 3 5
BITMAP
1BA0
3470
A060
90A0
A1D0
7EC0
00C0
0180
ENDCHAR
STARTCHAR egrave.sups
ENCODING -1
SWIDTH 600 0
DWIDTH 11 0
BBX 6 10 3 7
BITMAP
0100
0340
0080
0000
0BD0
2860
7030
BFF0
6040
2F80
ENDCHAR
STARTCHAR eacute.sups
ENCODING -1
SWIDTH 600 0
DWIDTH 11 0
BBX 6 9 3 7
BITMAP
00A0
0140
0000
0BD0
2860
7030
BFF0
6040
2F80
ENDCHAR
ENDFONT
